STARTFONT 2.3
FONT -FontForge-Roboto Condensed-Book-R-Condensed---10-100-72-72-P-49-ISO10646-1
SIZE 10 72 72  2
FONTBOUNDINGBOX 17 16 -7 -3
COMMENT "Generated by fontforge, http://fontforge.sourceforge.net"
COMMENT "Copyright 2011 Google Inc. All Rights Reserved."
STARTPROPERTIES 42
FOUNDRY "FontForge"
FAMILY_NAME "Roboto Condensed"
WEIGHT_NAME "Book"
SLANT "R"
SETWIDTH_NAME "Condensed"
ADD_STYLE_NAME ""
PIXEL_SIZE 10
POINT_SIZE 100
RESOLUTION_X 72
RESOLUTION_Y 72
SPACING "P"
AVERAGE_WIDTH 49
CHARSET_REGISTRY "ISO10646"
CHARSET_ENCODING "1"
FONTNAME_REGISTRY ""
CHARSET_COLLECTIONS "ISO8859-2 ISO8859-5 ISO8859-7 ISO8859-9 ISO8859-4 ISO10646-1"
BITS_PER_PIXEL 2
FONT_NAME "RobotoCondensed-Regular"
FACE_NAME "Roboto Condensed"
COPYRIGHT "Copyright 2011 Google Inc. All Rights Reserved."
FONT_VERSION "2.137; 2017"
FONT_ASCENT 8
FONT_DESCENT 2
UNDERLINE_POSITION -1
UNDERLINE_THICKNESS 1
X_HEIGHT 4
CAP_HEIGHT 6
DEFAULT_CHAR 1
RAW_ASCENT 750
RAW_DESCENT 250
NORM_SPACE 2
RELATIVE_WEIGHT 40
RELATIVE_SETWIDTH 50
SUPERSCRIPT_X 0
SUPERSCRIPT_Y 4
SUPERSCRIPT_SIZE 6
SUBSCRIPT_X 0
SUBSCRIPT_Y 1
SUBSCRIPT_SIZE 6
FIGURE_WIDTH 5
AVG_LOWERCASE_WIDTH 48
AVG_UPPERCASE_WIDTH 58
ENDPROPERTIES
CHARS 1296
STARTCHAR uni0000
ENCODING 0
SWIDTH 0 0
DWIDTH 0 0
BBX 1 1 0 0
BITMAP
00
ENDCHAR
STARTCHAR uni0002
ENCODING 2
SWIDTH 0 0
DWIDTH 0 0
BBX 1 1 0 0
BITMAP
00
ENDCHAR
STARTCHAR uni000D
ENCODING 13
SWIDTH 229 0
DWIDTH 2 0
BBX 1 1 0 0
BITMAP
00
ENDCHAR
STARTCHAR space
ENCODING 32
SWIDTH 229 0
DWIDTH 2 0
BBX 1 1 0 0
BITMAP
00
ENDCHAR
STARTCHAR exclam
ENCODING 33
SWIDTH 245 0
DWIDTH 2 0
BBX 2 7 0 0
BITMAP
60
60
60
60
20
00
20
ENDCHAR
STARTCHAR quotedbl
ENCODING 34
SWIDTH 319 0
DWIDTH 3 0
BBX 3 3 0 5
BITMAP
58
58
58
ENDCHAR
STARTCHAR numbersign
ENCODING 35
SWIDTH 547 0
DWIDTH 5 0
BBX 6 7 0 0
BITMAP
0880
0880
3FD0
0940
7FC0
1600
2200
ENDCHAR
STARTCHAR dollar
ENCODING 36
SWIDTH 493 0
DWIDTH 5 0
BBX 5 9 0 -1
BITMAP
0800
2E00
2240
3400
1E00
0240
6240
2E00
0800
ENDCHAR
STARTCHAR percent
ENCODING 37
SWIDTH 632 0
DWIDTH 6 0
BBX 6 7 0 0
BITMAP
7800
5880
7A00
0500
09E0
1660
01E0
ENDCHAR
STARTCHAR ampersand
ENCODING 38
SWIDTH 543 0
DWIDTH 5 0
BBX 5 7 0 0
BITMAP
2E00
3300
2A00
2C40
6680
6280
2EC0
ENDCHAR
STARTCHAR quotesingle
ENCODING 39
SWIDTH 174 0
DWIDTH 2 0
BBX 2 2 0 6
BITMAP
50
50
ENDCHAR
STARTCHAR parenleft
ENCODING 40
SWIDTH 313 0
DWIDTH 3 0
BBX 3 10 0 -2
BITMAP
08
24
20
60
60
60
60
20
24
08
ENDCHAR
STARTCHAR parenright
ENCODING 41
SWIDTH 318 0
DWIDTH 3 0
BBX 3 10 0 -2
BITMAP
40
20
20
14
14
14
14
20
20
40
ENDCHAR
STARTCHAR asterisk
ENCODING 42
SWIDTH 430 0
DWIDTH 4 0
BBX 4 4 0 3
BITMAP
18
9A
2D
25
ENDCHAR
STARTCHAR plus
ENCODING 43
SWIDTH 496 0
DWIDTH 5 0
BBX 5 6 0 0
BITMAP
0C00
0C00
BF80
0C00
0C00
0400
ENDCHAR
STARTCHAR comma
ENCODING 44
SWIDTH 196 0
DWIDTH 2 0
BBX 2 2 0 -1
BITMAP
50
80
ENDCHAR
STARTCHAR hyphen
ENCODING 45
SWIDTH 248 0
DWIDTH 2 0
BBX 3 1 0 2
BITMAP
B4
ENDCHAR
STARTCHAR period
ENCODING 46
SWIDTH 263 0
DWIDTH 3 0
BBX 2 1 0 0
BITMAP
60
ENDCHAR
STARTCHAR slash
ENCODING 47
SWIDTH 370 0
DWIDTH 4 0
BBX 4 8 0 -1
BITMAP
09
08
08
14
20
20
50
80
ENDCHAR
STARTCHAR zero
ENCODING 48
SWIDTH 493 0
DWIDTH 5 0
BBX 5 7 0 0
BITMAP
2E00
6240
5240
5240
5240
6240
2E00
ENDCHAR
STARTCHAR one
ENCODING 49
SWIDTH 493 0
DWIDTH 5 0
BBX 3 7 0 0
BITMAP
18
68
08
08
08
08
08
ENDCHAR
STARTCHAR two
ENCODING 50
SWIDTH 493 0
DWIDTH 5 0
BBX 5 7 0 0
BITMAP
2E00
6240
0200
0600
1800
2000
7F80
ENDCHAR
STARTCHAR three
ENCODING 51
SWIDTH 493 0
DWIDTH 5 0
BBX 5 7 0 0
BITMAP
2E00
6200
0200
1E00
0240
6240
2E00
ENDCHAR
STARTCHAR four
ENCODING 52
SWIDTH 493 0
DWIDTH 5 0
BBX 5 7 0 0
BITMAP
0700
0B00
1700
2300
5300
BF80
0300
ENDCHAR
STARTCHAR five
ENCODING 53
SWIDTH 493 0
DWIDTH 5 0
BBX 5 7 0 0
BITMAP
2F40
2000
3E00
1240
0140
6240
2E00
ENDCHAR
STARTCHAR six
ENCODING 54
SWIDTH 493 0
DWIDTH 5 0
BBX 5 7 0 0
BITMAP
1A00
3400
6E00
6240
6140
3240
2E00
ENDCHAR
STARTCHAR seven
ENCODING 55
SWIDTH 493 0
DWIDTH 5 0
BBX 5 7 0 0
BITMAP
BF40
0240
0200
0500
0800
1800
2400
ENDCHAR
STARTCHAR eight
ENCODING 56
SWIDTH 493 0
DWIDTH 5 0
BBX 5 7 0 0
BITMAP
2E00
6200
2200
2E00
6240
6240
2E00
ENDCHAR
STARTCHAR nine
ENCODING 57
SWIDTH 493 0
DWIDTH 5 0
BBX 5 7 0 0
BITMAP
2D00
6300
5240
6240
2E40
0700
2900
ENDCHAR
STARTCHAR colon
ENCODING 58
SWIDTH 233 0
DWIDTH 2 0
BBX 2 5 0 0
BITMAP
60
00
00
00
60
ENDCHAR
STARTCHAR semicolon
ENCODING 59
SWIDTH 202 0
DWIDTH 2 0
BBX 2 6 0 -1
BITMAP
60
00
00
00
60
90
ENDCHAR
STARTCHAR less
ENCODING 60
SWIDTH 445 0
DWIDTH 4 0
BBX 4 4 0 1
BITMAP
06
64
64
06
ENDCHAR
STARTCHAR equal
ENCODING 61
SWIDTH 479 0
DWIDTH 5 0
BBX 4 3 0 2
BITMAP
7F
00
7F
ENDCHAR
STARTCHAR greater
ENCODING 62
SWIDTH 459 0
DWIDTH 5 0
BBX 4 4 0 1
BITMAP
60
1A
1A
60
ENDCHAR
STARTCHAR question
ENCODING 63
SWIDTH 421 0
DWIDTH 4 0
BBX 4 7 0 0
BITMAP
3D
56
06
08
14
00
14
ENDCHAR
STARTCHAR at
ENCODING 64
SWIDTH 769 0
DWIDTH 8 0
BBX 8 9 0 -2
BITMAP
0BE0
2818
22D8
5654
5885
5998
67B4
2400
0B80
ENDCHAR
STARTCHAR A
ENCODING 65
SWIDTH 576 0
DWIDTH 6 0
BBX 6 7 0 0
BITMAP
0900
0A00
1600
2140
3F80
6080
9090
ENDCHAR
STARTCHAR B
ENCODING 66
SWIDTH 545 0
DWIDTH 5 0
BBX 5 7 0 0
BITMAP
7F40
6180
6180
7F40
6180
6180
7F40
ENDCHAR
STARTCHAR C
ENCODING 67
SWIDTH 566 0
DWIDTH 6 0
BBX 5 7 0 0
BITMAP
1F40
30C0
6040
6000
6040
30C0
1F40
ENDCHAR
STARTCHAR D
ENCODING 68
SWIDTH 570 0
DWIDTH 6 0
BBX 5 7 0 0
BITMAP
7E00
6180
60C0
6080
60C0
6180
7E00
ENDCHAR
STARTCHAR E
ENCODING 69
SWIDTH 496 0
DWIDTH 5 0
BBX 5 7 0 0
BITMAP
7F80
6000
6000
7F40
6000
6000
7F80
ENDCHAR
STARTCHAR F
ENCODING 70
SWIDTH 480 0
DWIDTH 5 0
BBX 5 7 0 0
BITMAP
7F40
6000
6000
7F00
6000
6000
6000
ENDCHAR
STARTCHAR G
ENCODING 71
SWIDTH 590 0
DWIDTH 6 0
BBX 6 7 0 0
BITMAP
1F40
30C0
6040
6000
63D0
3090
1F80
ENDCHAR
STARTCHAR H
ENCODING 72
SWIDTH 620 0
DWIDTH 6 0
BBX 6 7 0 0
BITMAP
6050
6050
6050
7FD0
6050
6050
6050
ENDCHAR
STARTCHAR I
ENCODING 73
SWIDTH 250 0
DWIDTH 3 0
BBX 2 7 0 0
BITMAP
60
60
60
60
60
60
60
ENDCHAR
STARTCHAR J
ENCODING 74
SWIDTH 483 0
DWIDTH 5 0
BBX 4 7 0 0
BITMAP
02
02
02
02
02
93
7D
ENDCHAR
STARTCHAR K
ENCODING 75
SWIDTH 544 0
DWIDTH 5 0
BBX 5 7 0 0
BITMAP
6180
6200
6900
7D00
6600
6240
60C0
ENDCHAR
STARTCHAR L
ENCODING 76
SWIDTH 475 0
DWIDTH 5 0
BBX 5 7 0 0
BITMAP
6000
6000
6000
6000
6000
6000
7F40
ENDCHAR
STARTCHAR M
ENCODING 77
SWIDTH 755 0
DWIDTH 8 0
BBX 7 7 0 0
BITMAP
7028
7428
6868
6898
6588
6288
6248
ENDCHAR
STARTCHAR N
ENCODING 78
SWIDTH 619 0
DWIDTH 6 0
BBX 6 7 0 0
BITMAP
7050
7450
6850
6650
6290
61D0
6090
ENDCHAR
STARTCHAR O
ENCODING 79
SWIDTH 600 0
DWIDTH 6 0
BBX 6 7 0 0
BITMAP
1F40
30C0
6090
6090
6090
30C0
1F40
ENDCHAR
STARTCHAR P
ENCODING 80
SWIDTH 554 0
DWIDTH 6 0
BBX 5 7 0 0
BITMAP
7F40
60C0
60C0
7F40
6000
6000
6000
ENDCHAR
STARTCHAR Q
ENCODING 81
SWIDTH 600 0
DWIDTH 6 0
BBX 6 8 0 -1
BITMAP
1F40
30C0
6090
5090
6090
70C0
1F80
0090
ENDCHAR
STARTCHAR R
ENCODING 82
SWIDTH 530 0
DWIDTH 5 0
BBX 5 7 0 0
BITMAP
7F40
6180
6180
7F40
6300
6180
60C0
ENDCHAR
STARTCHAR S
ENCODING 83
SWIDTH 518 0
DWIDTH 5 0
BBX 5 7 0 0
BITMAP
2E00
6180
6040
1A00
4180
6180
2F40
ENDCHAR
STARTCHAR T
ENCODING 84
SWIDTH 520 0
DWIDTH 5 0
BBX 5 7 0 0
BITMAP
BFC0
0C00
0C00
0C00
0C00
0C00
0C00
ENDCHAR
STARTCHAR U
ENCODING 85
SWIDTH 561 0
DWIDTH 6 0
BBX 5 7 0 0
BITMAP
60C0
60C0
60C0
60C0
60C0
61C0
2F40
ENDCHAR
STARTCHAR V
ENCODING 86
SWIDTH 560 0
DWIDTH 6 0
BBX 6 7 0 0
BITMAP
9090
60C0
3180
2640
1600
0E00
0900
ENDCHAR
STARTCHAR W
ENCODING 87
SWIDTH 761 0
DWIDTH 8 0
BBX 8 7 0 0
BITMAP
9249
6288
2288
2598
2864
2C74
1830
ENDCHAR
STARTCHAR X
ENCODING 88
SWIDTH 550 0
DWIDTH 6 0
BBX 5 7 0 0
BITMAP
60C0
2640
1A00
0D00
1A00
3240
60C0
ENDCHAR
STARTCHAR Y
ENCODING 89
SWIDTH 524 0
DWIDTH 5 0
BBX 5 7 0 0
BITMAP
90C0
6240
2600
1D00
0C00
0800
0800
ENDCHAR
STARTCHAR Z
ENCODING 90
SWIDTH 522 0
DWIDTH 5 0
BBX 5 7 0 0
BITMAP
BF80
0240
0600
0800
2400
6000
BF80
ENDCHAR
STARTCHAR bracketleft
ENCODING 91
SWIDTH 250 0
DWIDTH 3 0
BBX 3 10 0 -2
BITMAP
74
60
60
60
60
60
60
60
60
74
ENDCHAR
STARTCHAR backslash
ENCODING 92
SWIDTH 369 0
DWIDTH 4 0
BBX 4 8 0 -1
BITMAP
90
60
20
20
14
08
08
05
ENDCHAR
STARTCHAR bracketright
ENCODING 93
SWIDTH 250 0
DWIDTH 3 0
BBX 2 10 0 -2
BITMAP
E0
20
20
20
20
20
20
20
20
E0
ENDCHAR
STARTCHAR asciicircum
ENCODING 94
SWIDTH 371 0
DWIDTH 4 0
BBX 3 3 0 4
BITMAP
24
28
58
ENDCHAR
STARTCHAR underscore
ENCODING 95
SWIDTH 404 0
DWIDTH 4 0
BBX 4 1 0 -1
BITMAP
FF
ENDCHAR
STARTCHAR grave
ENCODING 96
SWIDTH 309 0
DWIDTH 3 0
BBX 2 2 0 6
BITMAP
60
20
ENDCHAR
STARTCHAR a
ENCODING 97
SWIDTH 479 0
DWIDTH 5 0
BBX 5 5 0 0
BITMAP
2E00
1300
2F00
6200
3F40
ENDCHAR
STARTCHAR b
ENCODING 98
SWIDTH 493 0
DWIDTH 5 0
BBX 5 8 0 0
BITMAP
6000
6000
6000
6E00
6240
6140
6240
6E00
ENDCHAR
STARTCHAR c
ENCODING 99
SWIDTH 461 0
DWIDTH 5 0
BBX 4 5 0 0
BITMAP
2E
62
90
61
2E
ENDCHAR
STARTCHAR d
ENCODING 100
SWIDTH 496 0
DWIDTH 5 0
BBX 5 8 0 0
BITMAP
0240
0240
0240
2F40
6240
9240
6240
2E40
ENDCHAR
STARTCHAR e
ENCODING 101
SWIDTH 468 0
DWIDTH 5 0
BBX 5 5 0 0
BITMAP
2E00
6200
BF40
6000
2E00
ENDCHAR
STARTCHAR f
ENCODING 102
SWIDTH 316 0
DWIDTH 3 0
BBX 3 8 0 0
BITMAP
1C
30
30
B8
30
30
30
30
ENDCHAR
STARTCHAR g
ENCODING 103
SWIDTH 492 0
DWIDTH 5 0
BBX 5 7 0 -2
BITMAP
2E40
6240
9240
6240
2F40
0240
2E00
ENDCHAR
STARTCHAR h
ENCODING 104
SWIDTH 482 0
DWIDTH 5 0
BBX 5 8 0 0
BITMAP
6000
6000
6000
6E00
6200
6240
6240
6240
ENDCHAR
STARTCHAR i
ENCODING 105
SWIDTH 229 0
DWIDTH 2 0
BBX 2 7 0 0
BITMAP
60
00
60
60
60
60
60
ENDCHAR
STARTCHAR j
ENCODING 106
SWIDTH 223 0
DWIDTH 2 0
BBX 2 9 0 -2
BITMAP
50
00
60
60
60
60
60
60
D0
ENDCHAR
STARTCHAR k
ENCODING 107
SWIDTH 450 0
DWIDTH 5 0
BBX 4 8 0 0
BITMAP
60
60
60
66
6C
78
65
62
ENDCHAR
STARTCHAR l
ENCODING 108
SWIDTH 229 0
DWIDTH 2 0
BBX 2 8 0 0
BITMAP
60
60
60
60
60
60
60
60
ENDCHAR
STARTCHAR m
ENCODING 109
SWIDTH 752 0
DWIDTH 8 0
BBX 7 5 0 0
BITMAP
6EB4
624C
624C
624C
624C
ENDCHAR
STARTCHAR n
ENCODING 110
SWIDTH 483 0
DWIDTH 5 0
BBX 5 5 0 0
BITMAP
6E00
6200
6240
6240
6240
ENDCHAR
STARTCHAR o
ENCODING 111
SWIDTH 501 0
DWIDTH 5 0
BBX 5 5 0 0
BITMAP
2E00
6240
9180
6240
2E00
ENDCHAR
STARTCHAR p
ENCODING 112
SWIDTH 493 0
DWIDTH 5 0
BBX 5 7 0 -2
BITMAP
6E00
6240
6140
6240
6E00
6000
6000
ENDCHAR
STARTCHAR q
ENCODING 113
SWIDTH 500 0
DWIDTH 5 0
BBX 5 7 0 -2
BITMAP
2E40
6240
9240
6240
2F40
0240
0240
ENDCHAR
STARTCHAR r
ENCODING 114
SWIDTH 304 0
DWIDTH 3 0
BBX 3 5 0 0
BITMAP
68
60
60
60
60
ENDCHAR
STARTCHAR s
ENCODING 115
SWIDTH 455 0
DWIDTH 5 0
BBX 4 5 0 0
BITMAP
2E
65
1E
53
2E
ENDCHAR
STARTCHAR t
ENCODING 116
SWIDTH 295 0
DWIDTH 3 0
BBX 3 6 0 0
BITMAP
20
F8
20
20
20
28
ENDCHAR
STARTCHAR u
ENCODING 117
SWIDTH 483 0
DWIDTH 5 0
BBX 5 5 0 0
BITMAP
5240
5240
5240
6240
3F40
ENDCHAR
STARTCHAR v
ENCODING 118
SWIDTH 427 0
DWIDTH 4 0
BBX 4 5 0 0
BITMAP
93
66
29
28
18
ENDCHAR
STARTCHAR w
ENCODING 119
SWIDTH 649 0
DWIDTH 7 0
BBX 6 5 0 0
BITMAP
9620
5B20
2960
29D0
24C0
ENDCHAR
STARTCHAR x
ENCODING 120
SWIDTH 438 0
DWIDTH 4 0
BBX 4 5 0 0
BITMAP
66
29
18
29
62
ENDCHAR
STARTCHAR y
ENCODING 121
SWIDTH 416 0
DWIDTH 4 0
BBX 4 7 0 -2
BITMAP
92
66
29
28
18
24
A0
ENDCHAR
STARTCHAR z
ENCODING 122
SWIDTH 438 0
DWIDTH 4 0
BBX 4 5 0 0
BITMAP
BF
09
18
20
BF
ENDCHAR
STARTCHAR braceleft
ENCODING 123
SWIDTH 306 0
DWIDTH 3 0
BBX 3 10 0 -2
BITMAP
08
24
20
20
30
A0
30
20
24
18
ENDCHAR
STARTCHAR bar
ENCODING 124
SWIDTH 243 0
DWIDTH 2 0
BBX 1 8 1 -1
BITMAP
80
80
80
80
80
80
80
80
ENDCHAR
STARTCHAR braceright
ENCODING 125
SWIDTH 306 0
DWIDTH 3 0
BBX 3 10 0 -2
BITMAP
90
60
30
30
20
18
30
30
20
90
ENDCHAR
STARTCHAR asciitilde
ENCODING 126
SWIDTH 589 0
DWIDTH 6 0
BBX 6 2 0 2
BITMAP
2D90
6780
ENDCHAR
STARTCHAR uni00A0
ENCODING 160
SWIDTH 229 0
DWIDTH 2 0
BBX 1 1 0 0
BITMAP
00
ENDCHAR
STARTCHAR exclamdown
ENCODING 161
SWIDTH 231 0
DWIDTH 2 0
BBX 2 7 0 -2
BITMAP
60
00
60
60
60
60
60
ENDCHAR
STARTCHAR cent
ENCODING 162
SWIDTH 479 0
DWIDTH 5 0
BBX 5 7 0 -1
BITMAP
0C00
2E00
6240
5000
6200
2E00
0C00
ENDCHAR
STARTCHAR sterling
ENCODING 163
SWIDTH 510 0
DWIDTH 5 0
BBX 5 7 0 0
BITMAP
1F40
3540
3000
BD00
3000
3000
BF80
ENDCHAR
STARTCHAR currency
ENCODING 164
SWIDTH 712 0
DWIDTH 7 0
BBX 7 6 0 0
BITMAP
6BA4
3470
6014
6014
3470
6BA4
ENDCHAR
STARTCHAR yen
ENCODING 165
SWIDTH 463 0
DWIDTH 5 0
BBX 5 7 0 0
BITMAP
9240
6300
3A00
2D00
7F00
7F00
0800
ENDCHAR
STARTCHAR brokenbar
ENCODING 166
SWIDTH 239 0
DWIDTH 2 0
BBX 2 8 0 -1
BITMAP
60
60
60
60
00
60
60
60
ENDCHAR
STARTCHAR section
ENCODING 167
SWIDTH 537 0
DWIDTH 5 0
BBX 5 9 0 -2
BITMAP
2E40
6180
3400
6B40
5180
2A40
0640
6180
2E00
ENDCHAR
STARTCHAR dieresis
ENCODING 168
SWIDTH 417 0
DWIDTH 4 0
BBX 4 1 0 6
BITMAP
56
ENDCHAR
STARTCHAR copyright
ENCODING 169
SWIDTH 785 0
DWIDTH 8 0
BBX 8 7 0 0
BITMAP
0BE0
2418
57D5
8805
57D5
2418
0BE0
ENDCHAR
STARTCHAR ordfeminine
ENCODING 170
SWIDTH 395 0
DWIDTH 4 0
BBX 3 4 1 3
BITMAP
B0
64
F4
F4
ENDCHAR
STARTCHAR guillemotleft
ENCODING 171
SWIDTH 417 0
DWIDTH 4 0
BBX 4 4 0 1
BITMAP
25
68
68
25
ENDCHAR
STARTCHAR logicalnot
ENCODING 172
SWIDTH 487 0
DWIDTH 5 0
BBX 4 2 0 2
BITMAP
7F
02
ENDCHAR
STARTCHAR uni00AD
ENCODING 173
SWIDTH 248 0
DWIDTH 2 0
BBX 3 1 0 2
BITMAP
B4
ENDCHAR
STARTCHAR registered
ENCODING 174
SWIDTH 786 0
DWIDTH 8 0
BBX 8 7 0 0
BITMAP
0BE0
2418
5BC5
8955
5BD5
2418
0BE0
ENDCHAR
STARTCHAR macron
ENCODING 175
SWIDTH 414 0
DWIDTH 4 0
BBX 4 1 0 6
BITMAP
7E
ENDCHAR
STARTCHAR degree
ENCODING 176
SWIDTH 373 0
DWIDTH 4 0
BBX 3 3 0 4
BITMAP
38
58
38
ENDCHAR
STARTCHAR plusminus
ENCODING 177
SWIDTH 469 0
DWIDTH 5 0
BBX 5 6 0 0
BITMAP
0800
0800
7F40
0800
0000
7F00
ENDCHAR
STARTCHAR uni00B2
ENCODING 178
SWIDTH 329 0
DWIDTH 3 0
BBX 3 4 0 3
BITMAP
78
58
20
BC
ENDCHAR
STARTCHAR uni00B3
ENCODING 179
SWIDTH 329 0
DWIDTH 3 0
BBX 3 4 0 3
BITMAP
78
28
48
78
ENDCHAR
STARTCHAR acute
ENCODING 180
SWIDTH 313 0
DWIDTH 3 0
BBX 3 2 0 6
BITMAP
24
60
ENDCHAR
STARTCHAR mu
ENCODING 181
SWIDTH 498 0
DWIDTH 5 0
BBX 5 7 0 -2
BITMAP
6240
6240
6240
6240
7F40
6000
6000
ENDCHAR
STARTCHAR paragraph
ENCODING 182
SWIDTH 434 0
DWIDTH 4 0
BBX 4 7 0 0
BITMAP
3E
BE
BE
7E
1A
06
06
ENDCHAR
STARTCHAR periodcentered
ENCODING 183
SWIDTH 243 0
DWIDTH 2 0
BBX 2 1 0 3
BITMAP
60
ENDCHAR
STARTCHAR cedilla
ENCODING 184
SWIDTH 229 0
DWIDTH 2 0
BBX 2 2 0 -2
BITMAP
10
60
ENDCHAR
STARTCHAR uni00B9
ENCODING 185
SWIDTH 329 0
DWIDTH 3 0
BBX 3 4 0 3
BITMAP
24
74
24
24
ENDCHAR
STARTCHAR ordmasculine
ENCODING 186
SWIDTH 402 0
DWIDTH 4 0
BBX 4 4 0 3
BITMAP
2C
55
55
3C
ENDCHAR
STARTCHAR guillemotright
ENCODING 187
SWIDTH 417 0
DWIDTH 4 0
BBX 4 4 0 1
BITMAP
58
26
26
58
ENDCHAR
STARTCHAR onequarter
ENCODING 188
SWIDTH 637 0
DWIDTH 6 0
BBX 6 7 0 0
BITMAP
2000
B080
2100
2160
09A0
16F0
0020
ENDCHAR
STARTCHAR onehalf
ENCODING 189
SWIDTH 677 0
DWIDTH 7 0
BBX 7 7 0 0
BITMAP
2000
B040
2200
25E0
0860
1090
01F4
ENDCHAR
STARTCHAR threequarters
ENCODING 190
SWIDTH 673 0
DWIDTH 7 0
BBX 7 7 0 0
BITMAP
2800
2840
0880
7A70
05A0
09F4
0020
ENDCHAR
STARTCHAR questiondown
ENCODING 191
SWIDTH 421 0
DWIDTH 4 0
BBX 4 7 0 -2
BITMAP
14
00
14
20
50
96
7D
ENDCHAR
STARTCHAR Agrave
ENCODING 192
SWIDTH 576 0
DWIDTH 6 0
BBX 6 10 0 0
BITMAP
1800
0900
0000
0900
0A00
1600
2140
3F80
6080
9090
ENDCHAR
STARTCHAR Aacute
ENCODING 193
SWIDTH 576 0
DWIDTH 6 0
BBX 6 10 0 0
BITMAP
0300
0500
0000
0900
0A00
1600
2140
3F80
6080
9090
ENDCHAR
STARTCHAR Acircumflex
ENCODING 194
SWIDTH 576 0
DWIDTH 6 0
BBX 6 10 0 0
BITMAP
0A00
1A00
0000
0900
0A00
1600
2140
3F80
6080
9090
ENDCHAR
STARTCHAR Atilde
ENCODING 195
SWIDTH 576 0
DWIDTH 6 0
BBX 6 10 0 0
BITMAP
1940
2700
0000
0900
0A00
1600
2140
3F80
6080
9090
ENDCHAR
STARTCHAR Adieresis
ENCODING 196
SWIDTH 576 0
DWIDTH 6 0
BBX 6 9 0 0
BITMAP
2540
0000
0900
0A00
1600
2140
3F80
6080
9090
ENDCHAR
STARTCHAR Aring
ENCODING 197
SWIDTH 576 0
DWIDTH 6 0
BBX 6 10 0 0
BITMAP
0A00
0A00
0000
0900
0A00
1600
2140
3F80
6080
9090
ENDCHAR
STARTCHAR AE
ENCODING 198
SWIDTH 812 0
DWIDTH 8 0
BBX 8 7 0 0
BITMAP
02FE
06C0
08C0
18FD
2FC0
60C0
90FF
ENDCHAR
STARTCHAR Ccedilla
ENCODING 199
SWIDTH 566 0
DWIDTH 6 0
BBX 5 9 0 -2
BITMAP
1F40
30C0
6040
6000
6040
30C0
1F40
0500
0600
ENDCHAR
STARTCHAR Egrave
ENCODING 200
SWIDTH 496 0
DWIDTH 5 0
BBX 5 10 0 0
BITMAP
2800
0800
0000
7F80
6000
6000
7F40
6000
6000
7F80
ENDCHAR
STARTCHAR Eacute
ENCODING 201
SWIDTH 496 0
DWIDTH 5 0
BBX 5 10 0 0
BITMAP
0600
0900
0000
7F80
6000
6000
7F40
6000
6000
7F80
ENDCHAR
STARTCHAR Ecircumflex
ENCODING 202
SWIDTH 496 0
DWIDTH 5 0
BBX 5 10 0 0
BITMAP
0D00
1600
0000
7F80
6000
6000
7F40
6000
6000
7F80
ENDCHAR
STARTCHAR Edieresis
ENCODING 203
SWIDTH 496 0
DWIDTH 5 0
BBX 5 9 0 0
BITMAP
2200
0000
7F80
6000
6000
7F40
6000
6000
7F80
ENDCHAR
STARTCHAR Igrave
ENCODING 204
SWIDTH 250 0
DWIDTH 3 0
BBX 2 10 0 0
BITMAP
C0
50
00
60
60
60
60
60
60
60
ENDCHAR
STARTCHAR Iacute
ENCODING 205
SWIDTH 250 0
DWIDTH 3 0
BBX 3 10 0 0
BITMAP
24
20
00
60
60
60
60
60
60
60
ENDCHAR
STARTCHAR Icircumflex
ENCODING 206
SWIDTH 250 0
DWIDTH 3 0
BBX 3 10 0 0
BITMAP
60
94
00
60
60
60
60
60
60
60
ENDCHAR
STARTCHAR Idieresis
ENCODING 207
SWIDTH 250 0
DWIDTH 3 0
BBX 4 9 -1 0
BITMAP
62
00
18
18
18
18
18
18
18
ENDCHAR
STARTCHAR Eth
ENCODING 208
SWIDTH 585 0
DWIDTH 6 0
BBX 6 7 0 0
BITMAP
3E40
21C0
2090
F890
2090
21C0
3E40
ENDCHAR
STARTCHAR Ntilde
ENCODING 209
SWIDTH 619 0
DWIDTH 6 0
BBX 6 10 0 0
BITMAP
0D80
1740
0000
7050
7450
6850
6650
6290
61D0
6090
ENDCHAR
STARTCHAR Ograve
ENCODING 210
SWIDTH 600 0
DWIDTH 6 0
BBX 6 10 0 0
BITMAP
1C00
0900
0000
1F40
30C0
6090
6090
6090
30C0
1F40
ENDCHAR
STARTCHAR Oacute
ENCODING 211
SWIDTH 600 0
DWIDTH 6 0
BBX 6 10 0 0
BITMAP
0240
0600
0000
1F40
30C0
6090
6090
6090
30C0
1F40
ENDCHAR
STARTCHAR Ocircumflex
ENCODING 212
SWIDTH 600 0
DWIDTH 6 0
BBX 6 10 0 0
BITMAP
0A00
0A00
0000
1F40
30C0
6090
6090
6090
30C0
1F40
ENDCHAR
STARTCHAR Otilde
ENCODING 213
SWIDTH 600 0
DWIDTH 6 0
BBX 6 10 0 0
BITMAP
0D40
1740
0000
1F40
30C0
6090
6090
6090
30C0
1F40
ENDCHAR
STARTCHAR Odieresis
ENCODING 214
SWIDTH 600 0
DWIDTH 6 0
BBX 6 9 0 0
BITMAP
1540
0000
1F40
30C0
6090
6090
6090
30C0
1F40
ENDCHAR
STARTCHAR multiply
ENCODING 215
SWIDTH 470 0
DWIDTH 5 0
BBX 4 4 0 1
BITMAP
52
29
29
52
ENDCHAR
STARTCHAR Oslash
ENCODING 216
SWIDTH 600 0
DWIDTH 6 0
BBX 6 8 0 -1
BITMAP
1F80
35C0
6290
5150
6890
34C0
2F40
1000
ENDCHAR
STARTCHAR Ugrave
ENCODING 217
SWIDTH 561 0
DWIDTH 6 0
BBX 5 10 0 0
BITMAP
1800
0800
0000
60C0
60C0
60C0
60C0
60C0
61C0
2F40
ENDCHAR
STARTCHAR Uacute
ENCODING 218
SWIDTH 561 0
DWIDTH 6 0
BBX 5 10 0 0
BITMAP
0300
0500
0000
60C0
60C0
60C0
60C0
60C0
61C0
2F40
ENDCHAR
STARTCHAR Ucircumflex
ENCODING 219
SWIDTH 561 0
DWIDTH 6 0
BBX 5 10 0 0
BITMAP
0900
1600
0000
60C0
60C0
60C0
60C0
60C0
61C0
2F40
ENDCHAR
STARTCHAR Udieresis
ENCODING 220
SWIDTH 561 0
DWIDTH 6 0
BBX 5 9 0 0
BITMAP
2640
0000
60C0
60C0
60C0
60C0
60C0
61C0
2F40
ENDCHAR
STARTCHAR Yacute
ENCODING 221
SWIDTH 524 0
DWIDTH 5 0
BBX 5 10 0 0
BITMAP
0600
0900
0000
90C0
6240
2600
1D00
0C00
0800
0800
ENDCHAR
STARTCHAR Thorn
ENCODING 222
SWIDTH 515 0
DWIDTH 5 0
BBX 5 7 0 0
BITMAP
6000
7E00
6180
6180
6180
7E00
6000
ENDCHAR
STARTCHAR germandbls
ENCODING 223
SWIDTH 521 0
DWIDTH 5 0
BBX 5 8 0 0
BITMAP
2D00
6300
6200
6500
6600
6180
6180
6B40
ENDCHAR
STARTCHAR agrave
ENCODING 224
SWIDTH 479 0
DWIDTH 5 0
BBX 5 8 0 0
BITMAP
2400
0800
0000
2E00
1300
2F00
6200
3F40
ENDCHAR
STARTCHAR aacute
ENCODING 225
SWIDTH 479 0
DWIDTH 5 0
BBX 5 8 0 0
BITMAP
0600
0800
0000
2E00
1300
2F00
6200
3F40
ENDCHAR
STARTCHAR acircumflex
ENCODING 226
SWIDTH 479 0
DWIDTH 5 0
BBX 5 8 0 0
BITMAP
0C00
2600
0000
2E00
1300
2F00
6200
3F40
ENDCHAR
STARTCHAR atilde
ENCODING 227
SWIDTH 479 0
DWIDTH 5 0
BBX 5 8 0 0
BITMAP
2600
2A00
0000
2E00
1300
2F00
6200
3F40
ENDCHAR
STARTCHAR adieresis
ENCODING 228
SWIDTH 479 0
DWIDTH 5 0
BBX 5 7 0 0
BITMAP
2200
0000
2E00
1300
2F00
6200
3F40
ENDCHAR
STARTCHAR aring
ENCODING 229
SWIDTH 479 0
DWIDTH 5 0
BBX 5 8 0 0
BITMAP
1900
1900
0000
2E00
1300
2F00
6200
3F40
ENDCHAR
STARTCHAR ae
ENCODING 230
SWIDTH 728 0
DWIDTH 7 0
BBX 7 5 0 0
BITMAP
2EF4
5358
7FFC
9340
7DB8
ENDCHAR
STARTCHAR ccedilla
ENCODING 231
SWIDTH 461 0
DWIDTH 5 0
BBX 4 7 0 -2
BITMAP
2E
62
90
61
2E
04
0C
ENDCHAR
STARTCHAR egrave
ENCODING 232
SWIDTH 468 0
DWIDTH 5 0
BBX 5 8 0 0
BITMAP
2400
1800
0000
2E00
6200
BF40
6000
2E00
ENDCHAR
STARTCHAR eacute
ENCODING 233
SWIDTH 468 0
DWIDTH 5 0
BBX 5 8 0 0
BITMAP
0600
0800
0000
2E00
6200
BF40
6000
2E00
ENDCHAR
STARTCHAR ecircumflex
ENCODING 234
SWIDTH 468 0
DWIDTH 5 0
BBX 5 8 0 0
BITMAP
1C00
2500
0000
2E00
6200
BF40
6000
2E00
ENDCHAR
STARTCHAR edieresis
ENCODING 235
SWIDTH 468 0
DWIDTH 5 0
BBX 5 7 0 0
BITMAP
2200
0000
2E00
6200
BF40
6000
2E00
ENDCHAR
STARTCHAR igrave
ENCODING 236
SWIDTH 234 0
DWIDTH 2 0
BBX 2 8 0 0
BITMAP
C0
50
00
60
60
60
60
60
ENDCHAR
STARTCHAR iacute
ENCODING 237
SWIDTH 234 0
DWIDTH 2 0
BBX 3 8 0 0
BITMAP
24
20
00
60
60
60
60
60
ENDCHAR
STARTCHAR icircumflex
ENCODING 238
SWIDTH 234 0
DWIDTH 2 0
BBX 3 8 0 0
BITMAP
60
94
00
60
60
60
60
60
ENDCHAR
STARTCHAR idieresis
ENCODING 239
SWIDTH 234 0
DWIDTH 2 0
BBX 4 7 -1 0
BITMAP
66
00
18
18
18
18
18
ENDCHAR
STARTCHAR eth
ENCODING 240
SWIDTH 513 0
DWIDTH 5 0
BBX 5 8 0 0
BITMAP
2500
0E00
1700
2F40
6240
5140
6240
2E00
ENDCHAR
STARTCHAR ntilde
ENCODING 241
SWIDTH 483 0
DWIDTH 5 0
BBX 5 8 0 0
BITMAP
2600
2A00
0000
6E00
6200
6240
6240
6240
ENDCHAR
STARTCHAR ograve
ENCODING 242
SWIDTH 501 0
DWIDTH 5 0
BBX 5 8 0 0
BITMAP
2400
0800
0000
2E00
6240
9180
6240
2E00
ENDCHAR
STARTCHAR oacute
ENCODING 243
SWIDTH 501 0
DWIDTH 5 0
BBX 5 8 0 0
BITMAP
0600
0800
0000
2E00
6240
9180
6240
2E00
ENDCHAR
STARTCHAR ocircumflex
ENCODING 244
SWIDTH 501 0
DWIDTH 5 0
BBX 5 8 0 0
BITMAP
1C00
2500
0000
2E00
6240
9180
6240
2E00
ENDCHAR
STARTCHAR otilde
ENCODING 245
SWIDTH 501 0
DWIDTH 5 0
BBX 5 8 0 0
BITMAP
2600
2A00
0000
2E00
6240
9180
6240
2E00
ENDCHAR
STARTCHAR odieresis
ENCODING 246
SWIDTH 501 0
DWIDTH 5 0
BBX 5 7 0 0
BITMAP
2200
0000
2E00
6240
9180
6240
2E00
ENDCHAR
STARTCHAR divide
ENCODING 247
SWIDTH 500 0
DWIDTH 5 0
BBX 5 5 0 1
BITMAP
0800
0000
BF40
0000
0800
ENDCHAR
STARTCHAR oslash
ENCODING 248
SWIDTH 498 0
DWIDTH 5 0
BBX 5 7 0 -1
BITMAP
0100
2F00
6640
5980
6640
2E00
1000
ENDCHAR
STARTCHAR ugrave
ENCODING 249
SWIDTH 483 0
DWIDTH 5 0
BBX 5 8 0 0
BITMAP
2400
1800
0000
5240
5240
5240
6240
3F40
ENDCHAR
STARTCHAR uacute
ENCODING 250
SWIDTH 483 0
DWIDTH 5 0
BBX 5 8 0 0
BITMAP
0600
0800
0000
5240
5240
5240
6240
3F40
ENDCHAR
STARTCHAR ucircumflex
ENCODING 251
SWIDTH 483 0
DWIDTH 5 0
BBX 5 8 0 0
BITMAP
1C00
2500
0000
5240
5240
5240
6240
3F40
ENDCHAR
STARTCHAR udieresis
ENCODING 252
SWIDTH 483 0
DWIDTH 5 0
BBX 5 7 0 0
BITMAP
2200
0000
5240
5240
5240
6240
3F40
ENDCHAR
STARTCHAR yacute
ENCODING 253
SWIDTH 416 0
DWIDTH 4 0
BBX 4 10 0 -2
BITMAP
09
08
00
92
66
29
28
18
24
A0
ENDCHAR
STARTCHAR thorn
ENCODING 254
SWIDTH 508 0
DWIDTH 5 0
BBX 5 10 0 -2
BITMAP
6000
6000
6000
7E00
6240
6140
6240
7E00
6000
6000
ENDCHAR
STARTCHAR ydieresis
ENCODING 255
SWIDTH 416 0
DWIDTH 4 0
BBX 4 9 0 -2
BITMAP
66
00
92
66
29
28
18
24
A0
ENDCHAR
STARTCHAR Amacron
ENCODING 256
SWIDTH 576 0
DWIDTH 6 0
BBX 6 9 0 0
BITMAP
2F40
0000
0900
0A00
1600
2140
3F80
6080
9090
ENDCHAR
STARTCHAR amacron
ENCODING 257
SWIDTH 479 0
DWIDTH 5 0
BBX 5 7 0 0
BITMAP
3F00
0000
2E00
1300
2F00
6200
3F40
ENDCHAR
STARTCHAR Abreve
ENCODING 258
SWIDTH 576 0
DWIDTH 6 0
BBX 6 10 0 0
BITMAP
1640
0E00
0000
0900
0A00
1600
2140
3F80
6080
9090
ENDCHAR
STARTCHAR abreve
ENCODING 259
SWIDTH 479 0
DWIDTH 5 0
BBX 5 8 0 0
BITMAP
2200
1D00
0000
2E00
1300
2F00
6200
3F40
ENDCHAR
STARTCHAR Aogonek
ENCODING 260
SWIDTH 576 0
DWIDTH 6 0
BBX 6 9 0 -2
BITMAP
0900
0A00
1600
2140
3F80
6080
9090
0080
00D0
ENDCHAR
STARTCHAR aogonek
ENCODING 261
SWIDTH 479 0
DWIDTH 5 0
BBX 5 7 0 -2
BITMAP
2E00
1300
2F00
6200
3F40
0200
0700
ENDCHAR
STARTCHAR Cacute
ENCODING 262
SWIDTH 566 0
DWIDTH 6 0
BBX 5 10 0 0
BITMAP
0300
0500
0000
1F40
30C0
6040
6000
6040
30C0
1F40
ENDCHAR
STARTCHAR cacute
ENCODING 263
SWIDTH 461 0
DWIDTH 5 0
BBX 4 8 0 0
BITMAP
09
08
00
2E
62
90
61
2E
ENDCHAR
STARTCHAR Ccircumflex
ENCODING 264
SWIDTH 566 0
DWIDTH 6 0
BBX 5 10 0 0
BITMAP
0900
1A00
0000
1F40
30C0
6040
6000
6040
30C0
1F40
ENDCHAR
STARTCHAR ccircumflex
ENCODING 265
SWIDTH 461 0
DWIDTH 5 0
BBX 4 8 0 0
BITMAP
18
25
00
2E
62
90
61
2E
ENDCHAR
STARTCHAR Cdotaccent
ENCODING 266
SWIDTH 566 0
DWIDTH 6 0
BBX 5 9 0 0
BITMAP
0900
0000
1F40
30C0
6040
6000
6040
30C0
1F40
ENDCHAR
STARTCHAR cdotaccent
ENCODING 267
SWIDTH 461 0
DWIDTH 5 0
BBX 4 7 0 0
BITMAP
08
00
2E
62
90
61
2E
ENDCHAR
STARTCHAR Ccaron
ENCODING 268
SWIDTH 566 0
DWIDTH 6 0
BBX 5 10 0 0
BITMAP
1A00
0900
0000
1F40
30C0
6040
6000
6040
30C0
1F40
ENDCHAR
STARTCHAR ccaron
ENCODING 269
SWIDTH 461 0
DWIDTH 5 0
BBX 4 8 0 0
BITMAP
25
18
00
2E
62
90
61
2E
ENDCHAR
STARTCHAR Dcaron
ENCODING 270
SWIDTH 570 0
DWIDTH 6 0
BBX 5 10 0 0
BITMAP
1600
0C00
0000
7E00
6180
60C0
6080
60C0
6180
7E00
ENDCHAR
STARTCHAR dcaron
ENCODING 271
SWIDTH 569 0
DWIDTH 6 0
BBX 6 8 0 0
BITMAP
02A0
0290
0240
2F40
6240
9240
6240
2E40
ENDCHAR
STARTCHAR Dcroat
ENCODING 272
SWIDTH 585 0
DWIDTH 6 0
BBX 6 7 0 0
BITMAP
3E40
21C0
2090
F890
2090
21C0
3E40
ENDCHAR
STARTCHAR dcroat
ENCODING 273
SWIDTH 529 0
DWIDTH 5 0
BBX 5 8 0 0
BITMAP
0240
0BC0
0240
2F40
6240
5240
6240
2F40
ENDCHAR
STARTCHAR Emacron
ENCODING 274
SWIDTH 496 0
DWIDTH 5 0
BBX 5 9 0 0
BITMAP
2F00
0000
7F80
6000
6000
7F40
6000
6000
7F80
ENDCHAR
STARTCHAR emacron
ENCODING 275
SWIDTH 468 0
DWIDTH 5 0
BBX 5 7 0 0
BITMAP
3F00
0000
2E00
6200
BF40
6000
2E00
ENDCHAR
STARTCHAR Ebreve
ENCODING 276
SWIDTH 496 0
DWIDTH 5 0
BBX 5 10 0 0
BITMAP
2200
1E00
0000
7F80
6000
6000
7F40
6000
6000
7F80
ENDCHAR
STARTCHAR ebreve
ENCODING 277
SWIDTH 468 0
DWIDTH 5 0
BBX 5 8 0 0
BITMAP
2200
2D00
0000
2E00
6200
BF40
6000
2E00
ENDCHAR
STARTCHAR Edotaccent
ENCODING 278
SWIDTH 496 0
DWIDTH 5 0
BBX 5 9 0 0
BITMAP
0800
0000
7F80
6000
6000
7F40
6000
6000
7F80
ENDCHAR
STARTCHAR edotaccent
ENCODING 279
SWIDTH 468 0
DWIDTH 5 0
BBX 5 7 0 0
BITMAP
0800
0000
2E00
6200
BF40
6000
2E00
ENDCHAR
STARTCHAR Eogonek
ENCODING 280
SWIDTH 496 0
DWIDTH 5 0
BBX 5 9 0 -2
BITMAP
7F80
6000
6000
7F40
6000
6000
7F80
0200
0340
ENDCHAR
STARTCHAR eogonek
ENCODING 281
SWIDTH 468 0
DWIDTH 5 0
BBX 5 7 0 -2
BITMAP
2E00
6200
BF40
6000
2E00
0800
0900
ENDCHAR
STARTCHAR Ecaron
ENCODING 282
SWIDTH 496 0
DWIDTH 5 0
BBX 5 10 0 0
BITMAP
1600
0D00
0000
7F80
6000
6000
7F40
6000
6000
7F80
ENDCHAR
STARTCHAR ecaron
ENCODING 283
SWIDTH 468 0
DWIDTH 5 0
BBX 5 8 0 0
BITMAP
2500
0C00
0000
2E00
6200
BF40
6000
2E00
ENDCHAR
STARTCHAR Gcircumflex
ENCODING 284
SWIDTH 590 0
DWIDTH 6 0
BBX 6 10 0 0
BITMAP
0900
1600
0000
1F40
30C0
6040
6000
63D0
3090
1F80
ENDCHAR
STARTCHAR gcircumflex
ENCODING 285
SWIDTH 492 0
DWIDTH 5 0
BBX 5 10 0 -2
BITMAP
1C00
2500
0000
2E40
6240
9240
6240
2F40
0240
2E00
ENDCHAR
STARTCHAR Gbreve
ENCODING 286
SWIDTH 590 0
DWIDTH 6 0
BBX 6 10 0 0
BITMAP
2640
1E00
0000
1F40
30C0
6040
6000
63D0
3090
1F80
ENDCHAR
STARTCHAR gbreve
ENCODING 287
SWIDTH 492 0
DWIDTH 5 0
BBX 5 10 0 -2
BITMAP
2200
2D00
0000
2E40
6240
9240
6240
2F40
0240
2E00
ENDCHAR
STARTCHAR Gdotaccent
ENCODING 288
SWIDTH 590 0
DWIDTH 6 0
BBX 6 9 0 0
BITMAP
0900
0000
1F40
30C0
6040
6000
63D0
3090
1F80
ENDCHAR
STARTCHAR gdotaccent
ENCODING 289
SWIDTH 492 0
DWIDTH 5 0
BBX 5 9 0 -2
BITMAP
0800
0000
2E40
6240
9240
6240
2F40
0240
2E00
ENDCHAR
STARTCHAR uni0122
ENCODING 290
SWIDTH 590 0
DWIDTH 6 0
BBX 6 10 0 -3
BITMAP
1F40
30C0
6040
6000
63D0
3090
1F80
0000
0500
0500
ENDCHAR
STARTCHAR uni0123
ENCODING 291
SWIDTH 492 0
DWIDTH 5 0
BBX 5 10 0 -2
BITMAP
0800
0800
0000
2E40
6240
9240
6240
2F40
0240
2E00
ENDCHAR
STARTCHAR Hcircumflex
ENCODING 292
SWIDTH 620 0
DWIDTH 6 0
BBX 6 10 0 0
BITMAP
0A00
0A00
0000
6050
6050
6050
7FD0
6050
6050
6050
ENDCHAR
STARTCHAR hcircumflex
ENCODING 293
SWIDTH 482 0
DWIDTH 5 0
BBX 5 11 0 0
BITMAP
1800
2500
0000
6000
6000
6000
6E00
6200
6240
6240
6240
ENDCHAR
STARTCHAR Hbar
ENCODING 294
SWIDTH 611 0
DWIDTH 6 0
BBX 6 7 0 0
BITMAP
6050
BFF0
6050
7FD0
6050
6050
6050
ENDCHAR
STARTCHAR hbar
ENCODING 295
SWIDTH 497 0
DWIDTH 5 0
BBX 5 8 0 0
BITMAP
6000
F800
6000
7F00
6240
6240
6240
6240
ENDCHAR
STARTCHAR Itilde
ENCODING 296
SWIDTH 250 0
DWIDTH 3 0
BBX 4 10 -1 0
BITMAP
36
59
00
18
18
18
18
18
18
18
ENDCHAR
STARTCHAR itilde
ENCODING 297
SWIDTH 234 0
DWIDTH 2 0
BBX 4 8 -1 0
BITMAP
36
59
00
18
18
18
18
18
ENDCHAR
STARTCHAR Imacron
ENCODING 298
SWIDTH 250 0
DWIDTH 3 0
BBX 3 9 0 0
BITMAP
F8
00
60
60
60
60
60
60
60
ENDCHAR
STARTCHAR imacron
ENCODING 299
SWIDTH 234 0
DWIDTH 2 0
BBX 4 7 -1 0
BITMAP
7E
00
18
18
18
18
18
ENDCHAR
STARTCHAR Ibreve
ENCODING 300
SWIDTH 250 0
DWIDTH 3 0
BBX 3 10 0 0
BITMAP
98
B4
00
60
60
60
60
60
60
60
ENDCHAR
STARTCHAR ibreve
ENCODING 301
SWIDTH 234 0
DWIDTH 2 0
BBX 4 8 -1 0
BITMAP
66
2D
00
18
18
18
18
18
ENDCHAR
STARTCHAR Iogonek
ENCODING 302
SWIDTH 250 0
DWIDTH 3 0
BBX 2 9 0 -2
BITMAP
60
60
60
60
60
60
60
80
A0
ENDCHAR
STARTCHAR iogonek
ENCODING 303
SWIDTH 229 0
DWIDTH 2 0
BBX 2 9 0 -2
BITMAP
60
00
60
60
60
60
60
80
A0
ENDCHAR
STARTCHAR Idotaccent
ENCODING 304
SWIDTH 250 0
DWIDTH 3 0
BBX 2 9 0 0
BITMAP
60
00
60
60
60
60
60
60
60
ENDCHAR
STARTCHAR dotlessi
ENCODING 305
SWIDTH 234 0
DWIDTH 2 0
BBX 2 5 0 0
BITMAP
60
60
60
60
60
ENDCHAR
STARTCHAR IJ
ENCODING 306
SWIDTH 733 0
DWIDTH 7 0
BBX 7 7 0 0
BITMAP
6018
6018
6018
6018
6018
6328
62E0
ENDCHAR
STARTCHAR ij
ENCODING 307
SWIDTH 452 0
DWIDTH 5 0
BBX 4 9 0 -2
BITMAP
62
00
62
62
62
62
62
02
0A
ENDCHAR
STARTCHAR Jcircumflex
ENCODING 308
SWIDTH 483 0
DWIDTH 5 0
BBX 5 10 0 0
BITMAP
0340
0580
0000
0200
0200
0200
0200
0200
9300
7D00
ENDCHAR
STARTCHAR jcircumflex
ENCODING 309
SWIDTH 237 0
DWIDTH 2 0
BBX 3 10 0 -2
BITMAP
60
94
00
60
60
60
60
60
60
D0
ENDCHAR
STARTCHAR uni0136
ENCODING 310
SWIDTH 544 0
DWIDTH 5 0
BBX 5 9 0 -2
BITMAP
6180
6200
6900
7D00
6600
6240
60C0
0900
0800
ENDCHAR
STARTCHAR uni0137
ENCODING 311
SWIDTH 450 0
DWIDTH 5 0
BBX 4 10 0 -2
BITMAP
60
60
60
66
6C
78
65
62
08
14
ENDCHAR
STARTCHAR kgreenlandic
ENCODING 312
SWIDTH 491 0
DWIDTH 5 0
BBX 5 5 0 0
BITMAP
6200
6900
7800
6900
6240
ENDCHAR
STARTCHAR Lacute
ENCODING 313
SWIDTH 475 0
DWIDTH 5 0
BBX 5 10 0 0
BITMAP
2400
2000
0000
6000
6000
6000
6000
6000
6000
7F40
ENDCHAR
STARTCHAR lacute
ENCODING 314
SWIDTH 229 0
DWIDTH 2 0
BBX 3 11 0 0
BITMAP
24
20
00
60
60
60
60
60
60
60
60
ENDCHAR
STARTCHAR uni013B
ENCODING 315
SWIDTH 475 0
DWIDTH 5 0
BBX 5 10 0 -3
BITMAP
6000
6000
6000
6000
6000
6000
7F40
0000
0800
0800
ENDCHAR
STARTCHAR uni013C
ENCODING 316
SWIDTH 229 0
DWIDTH 2 0
BBX 2 11 0 -3
BITMAP
60
60
60
60
60
60
60
60
00
60
50
ENDCHAR
STARTCHAR Lcaron
ENCODING 317
SWIDTH 475 0
DWIDTH 5 0
BBX 5 7 0 0
BITMAP
6600
6500
6000
6000
6000
6000
7F40
ENDCHAR
STARTCHAR lcaron
ENCODING 318
SWIDTH 302 0
DWIDTH 3 0
BBX 3 8 0 0
BITMAP
68
68
60
60
60
60
60
60
ENDCHAR
STARTCHAR Ldot
ENCODING 319
SWIDTH 475 0
DWIDTH 5 0
BBX 5 7 0 0
BITMAP
6000
6000
6000
6500
6000
6000
7F40
ENDCHAR
STARTCHAR ldot
ENCODING 320
SWIDTH 336 0
DWIDTH 3 0
BBX 3 8 0 0
BITMAP
60
60
60
60
68
60
60
60
ENDCHAR
STARTCHAR Lslash
ENCODING 321
SWIDTH 475 0
DWIDTH 5 0
BBX 5 7 0 0
BITMAP
6000
6000
6000
7800
A000
6000
7F40
ENDCHAR
STARTCHAR lslash
ENCODING 322
SWIDTH 250 0
DWIDTH 3 0
BBX 3 8 0 0
BITMAP
60
60
60
74
A0
60
60
60
ENDCHAR
STARTCHAR Nacute
ENCODING 323
SWIDTH 619 0
DWIDTH 6 0
BBX 6 10 0 0
BITMAP
0240
0600
0000
7050
7450
6850
6650
6290
61D0
6090
ENDCHAR
STARTCHAR nacute
ENCODING 324
SWIDTH 483 0
DWIDTH 5 0
BBX 5 8 0 0
BITMAP
0600
0800
0000
6E00
6200
6240
6240
6240
ENDCHAR
STARTCHAR uni0145
ENCODING 325
SWIDTH 619 0
DWIDTH 6 0
BBX 6 10 0 -3
BITMAP
7050
7450
6850
6650
6290
61D0
6090
0000
0500
0400
ENDCHAR
STARTCHAR uni0146
ENCODING 326
SWIDTH 483 0
DWIDTH 5 0
BBX 5 8 0 -3
BITMAP
6E00
6200
6240
6240
6240
0000
0800
1400
ENDCHAR
STARTCHAR Ncaron
ENCODING 327
SWIDTH 619 0
DWIDTH 6 0
BBX 6 10 0 0
BITMAP
0A40
0600
0000
7050
7450
6850
6650
6290
61D0
6090
ENDCHAR
STARTCHAR ncaron
ENCODING 328
SWIDTH 483 0
DWIDTH 5 0
BBX 5 8 0 0
BITMAP
2600
0C00
0000
6E00
6200
6240
6240
6240
ENDCHAR
STARTCHAR napostrophe
ENCODING 329
SWIDTH 483 0
DWIDTH 5 0
BBX 5 7 0 0
BITMAP
8000
8000
6E00
6200
6240
6240
6240
ENDCHAR
STARTCHAR Eng
ENCODING 330
SWIDTH 599 0
DWIDTH 6 0
BBX 6 9 0 -2
BITMAP
7090
7490
6890
6590
6290
61D0
6090
0090
0280
ENDCHAR
STARTCHAR eng
ENCODING 331
SWIDTH 498 0
DWIDTH 5 0
BBX 5 7 0 -2
BITMAP
6E00
6240
6240
6240
6240
0240
0600
ENDCHAR
STARTCHAR Omacron
ENCODING 332
SWIDTH 600 0
DWIDTH 6 0
BBX 6 9 0 0
BITMAP
1F40
0000
1F40
30C0
6090
6090
6090
30C0
1F40
ENDCHAR
STARTCHAR omacron
ENCODING 333
SWIDTH 501 0
DWIDTH 5 0
BBX 5 7 0 0
BITMAP
3F00
0000
2E00
6240
9180
6240
2E00
ENDCHAR
STARTCHAR Obreve
ENCODING 334
SWIDTH 600 0
DWIDTH 6 0
BBX 6 10 0 0
BITMAP
1540
0B00
0000
1F40
30C0
6090
6090
6090
30C0
1F40
ENDCHAR
STARTCHAR obreve
ENCODING 335
SWIDTH 501 0
DWIDTH 5 0
BBX 5 8 0 0
BITMAP
2200
1D00
0000
2E00
6240
9180
6240
2E00
ENDCHAR
STARTCHAR Ohungarumlaut
ENCODING 336
SWIDTH 600 0
DWIDTH 6 0
BBX 6 10 0 0
BITMAP
0A80
0A40
0000
1F40
30C0
6090
6090
6090
30C0
1F40
ENDCHAR
STARTCHAR ohungarumlaut
ENCODING 337
SWIDTH 501 0
DWIDTH 5 0
BBX 5 8 0 0
BITMAP
1A40
1600
0000
2E00
6240
9180
6240
2E00
ENDCHAR
STARTCHAR OE
ENCODING 338
SWIDTH 826 0
DWIDTH 8 0
BBX 8 7 0 0
BITMAP
1FFD
6180
5180
51FC
5180
6180
2FFD
ENDCHAR
STARTCHAR oe
ENCODING 339
SWIDTH 777 0
DWIDTH 8 0
BBX 8 5 0 0
BITMAP
2EB8
6289
51FD
6280
2EBC
ENDCHAR
STARTCHAR Racute
ENCODING 340
SWIDTH 530 0
DWIDTH 5 0
BBX 5 10 0 0
BITMAP
0600
0900
0000
7F40
6180
6180
7F40
6300
6180
60C0
ENDCHAR
STARTCHAR racute
ENCODING 341
SWIDTH 304 0
DWIDTH 3 0
BBX 3 8 0 0
BITMAP
0C
14
00
68
60
60
60
60
ENDCHAR
STARTCHAR uni0156
ENCODING 342
SWIDTH 530 0
DWIDTH 5 0
BBX 5 10 0 -3
BITMAP
7F40
6180
6180
7F40
6300
6180
60C0
0000
0800
0800
ENDCHAR
STARTCHAR uni0157
ENCODING 343
SWIDTH 304 0
DWIDTH 3 0
BBX 3 8 0 -3
BITMAP
68
60
60
60
60
00
60
50
ENDCHAR
STARTCHAR Rcaron
ENCODING 344
SWIDTH 530 0
DWIDTH 5 0
BBX 5 10 0 0
BITMAP
1600
0C00
0000
7F40
6180
6180
7F40
6300
6180
60C0
ENDCHAR
STARTCHAR rcaron
ENCODING 345
SWIDTH 304 0
DWIDTH 3 0
BBX 3 8 0 0
BITMAP
58
24
00
68
60
60
60
60
ENDCHAR
STARTCHAR Sacute
ENCODING 346
SWIDTH 518 0
DWIDTH 5 0
BBX 5 10 0 0
BITMAP
0600
0900
0000
2E00
6180
6040
1A00
4180
6180
2F40
ENDCHAR
STARTCHAR sacute
ENCODING 347
SWIDTH 455 0
DWIDTH 5 0
BBX 4 8 0 0
BITMAP
06
08
00
2E
65
1E
53
2E
ENDCHAR
STARTCHAR Scircumflex
ENCODING 348
SWIDTH 518 0
DWIDTH 5 0
BBX 5 10 0 0
BITMAP
0D00
1600
0000
2E00
6180
6040
1A00
4180
6180
2F40
ENDCHAR
STARTCHAR scircumflex
ENCODING 349
SWIDTH 455 0
DWIDTH 5 0
BBX 4 8 0 0
BITMAP
1C
25
00
2E
65
1E
53
2E
ENDCHAR
STARTCHAR Scedilla
ENCODING 350
SWIDTH 518 0
DWIDTH 5 0
BBX 5 9 0 -2
BITMAP
2E00
6180
6040
1A00
4180
6180
2F40
0400
0900
ENDCHAR
STARTCHAR scedilla
ENCODING 351
SWIDTH 455 0
DWIDTH 5 0
BBX 4 7 0 -2
BITMAP
2E
65
1E
53
2E
04
0D
ENDCHAR
STARTCHAR Scaron
ENCODING 352
SWIDTH 518 0
DWIDTH 5 0
BBX 5 10 0 0
BITMAP
1600
0D00
0000
2E00
6180
6040
1A00
4180
6180
2F40
ENDCHAR
STARTCHAR scaron
ENCODING 353
SWIDTH 455 0
DWIDTH 5 0
BBX 4 8 0 0
BITMAP
26
0C
00
2E
65
1E
53
2E
ENDCHAR
STARTCHAR uni0162
ENCODING 354
SWIDTH 520 0
DWIDTH 5 0
BBX 5 9 0 -2
BITMAP
BFC0
0C00
0C00
0C00
0C00
0C00
0C00
0400
0900
ENDCHAR
STARTCHAR uni0163
ENCODING 355
SWIDTH 295 0
DWIDTH 3 0
BBX 3 8 0 -2
BITMAP
20
F8
20
20
20
28
14
18
ENDCHAR
STARTCHAR Tcaron
ENCODING 356
SWIDTH 520 0
DWIDTH 5 0
BBX 5 10 0 0
BITMAP
1600
0C00
0000
BFC0
0C00
0C00
0C00
0C00
0C00
0C00
ENDCHAR
STARTCHAR tcaron
ENCODING 357
SWIDTH 314 0
DWIDTH 3 0
BBX 4 8 0 0
BITMAP
09
08
20
F8
20
20
20
28
ENDCHAR
STARTCHAR Tbar
ENCODING 358
SWIDTH 520 0
DWIDTH 5 0
BBX 5 7 0 0
BITMAP
BFC0
0C00
2F00
0C00
0C00
0C00
0C00
ENDCHAR
STARTCHAR tbar
ENCODING 359
SWIDTH 295 0
DWIDTH 3 0
BBX 3 6 0 0
BITMAP
20
F8
20
F8
20
38
ENDCHAR
STARTCHAR Utilde
ENCODING 360
SWIDTH 561 0
DWIDTH 6 0
BBX 5 10 0 0
BITMAP
1940
2700
0000
60C0
60C0
60C0
60C0
60C0
61C0
2F40
ENDCHAR
STARTCHAR utilde
ENCODING 361
SWIDTH 483 0
DWIDTH 5 0
BBX 5 8 0 0
BITMAP
2600
2A00
0000
5240
5240
5240
6240
3F40
ENDCHAR
STARTCHAR Umacron
ENCODING 362
SWIDTH 561 0
DWIDTH 6 0
BBX 5 9 0 0
BITMAP
2F40
0000
60C0
60C0
60C0
60C0
60C0
61C0
2F40
ENDCHAR
STARTCHAR umacron
ENCODING 363
SWIDTH 483 0
DWIDTH 5 0
BBX 5 7 0 0
BITMAP
3F00
0000
5240
5240
5240
6240
3F40
ENDCHAR
STARTCHAR Ubreve
ENCODING 364
SWIDTH 561 0
DWIDTH 6 0
BBX 5 10 0 0
BITMAP
2640
1E00
0000
60C0
60C0
60C0
60C0
60C0
61C0
2F40
ENDCHAR
STARTCHAR ubreve
ENCODING 365
SWIDTH 483 0
DWIDTH 5 0
BBX 5 8 0 0
BITMAP
2200
2D00
0000
5240
5240
5240
6240
3F40
ENDCHAR
STARTCHAR Uring
ENCODING 366
SWIDTH 561 0
DWIDTH 6 0
BBX 5 10 0 0
BITMAP
0A00
0900
0000
60C0
60C0
60C0
60C0
60C0
61C0
2F40
ENDCHAR
STARTCHAR uring
ENCODING 367
SWIDTH 483 0
DWIDTH 5 0
BBX 5 8 0 0
BITMAP
1900
1900
0000
5240
5240
5240
6240
3F40
ENDCHAR
STARTCHAR Uhungarumlaut
ENCODING 368
SWIDTH 561 0
DWIDTH 6 0
BBX 5 10 0 0
BITMAP
0A80
0A00
0000
60C0
60C0
60C0
60C0
60C0
61C0
2F40
ENDCHAR
STARTCHAR uhungarumlaut
ENCODING 369
SWIDTH 483 0
DWIDTH 5 0
BBX 5 8 0 0
BITMAP
1A00
1600
0000
5240
5240
5240
6240
3F40
ENDCHAR
STARTCHAR Uogonek
ENCODING 370
SWIDTH 561 0
DWIDTH 6 0
BBX 5 9 0 -2
BITMAP
60C0
60C0
60C0
60C0
60C0
61C0
2F40
0500
0700
ENDCHAR
STARTCHAR uogonek
ENCODING 371
SWIDTH 483 0
DWIDTH 5 0
BBX 5 7 0 -2
BITMAP
5240
5240
5240
6240
3F40
0200
0300
ENDCHAR
STARTCHAR Wcircumflex
ENCODING 372
SWIDTH 761 0
DWIDTH 8 0
BBX 8 10 0 0
BITMAP
0240
0680
0000
9249
6288
2288
2598
2864
2C74
1830
ENDCHAR
STARTCHAR wcircumflex
ENCODING 373
SWIDTH 649 0
DWIDTH 7 0
BBX 6 8 0 0
BITMAP
0600
0940
0000
9620
5B20
2960
29D0
24C0
ENDCHAR
STARTCHAR Ycircumflex
ENCODING 374
SWIDTH 524 0
DWIDTH 5 0
BBX 5 10 0 0
BITMAP
0D00
1600
0000
90C0
6240
2600
1D00
0C00
0800
0800
ENDCHAR
STARTCHAR ycircumflex
ENCODING 375
SWIDTH 416 0
DWIDTH 4 0
BBX 4 10 0 -2
BITMAP
18
25
00
92
66
29
28
18
24
A0
ENDCHAR
STARTCHAR Ydieresis
ENCODING 376
SWIDTH 524 0
DWIDTH 5 0
BBX 5 9 0 0
BITMAP
2200
0000
90C0
6240
2600
1D00
0C00
0800
0800
ENDCHAR
STARTCHAR Zacute
ENCODING 377
SWIDTH 522 0
DWIDTH 5 0
BBX 5 10 0 0
BITMAP
0600
0900
0000
BF80
0240
0600
0800
2400
6000
BF80
ENDCHAR
STARTCHAR zacute
ENCODING 378
SWIDTH 438 0
DWIDTH 4 0
BBX 4 8 0 0
BITMAP
09
08
00
BF
09
18
20
BF
ENDCHAR
STARTCHAR Zdotaccent
ENCODING 379
SWIDTH 522 0
DWIDTH 5 0
BBX 5 9 0 0
BITMAP
0800
0000
BF80
0240
0600
0800
2400
6000
BF80
ENDCHAR
STARTCHAR zdotaccent
ENCODING 380
SWIDTH 438 0
DWIDTH 4 0
BBX 4 7 0 0
BITMAP
18
00
BF
09
18
20
BF
ENDCHAR
STARTCHAR Zcaron
ENCODING 381
SWIDTH 522 0
DWIDTH 5 0
BBX 5 10 0 0
BITMAP
1600
0D00
0000
BF80
0240
0600
0800
2400
6000
BF80
ENDCHAR
STARTCHAR zcaron
ENCODING 382
SWIDTH 438 0
DWIDTH 4 0
BBX 4 8 0 0
BITMAP
25
18
00
BF
09
18
20
BF
ENDCHAR
STARTCHAR longs
ENCODING 383
SWIDTH 234 0
DWIDTH 2 0
BBX 3 8 0 0
BITMAP
28
60
60
60
60
60
60
60
ENDCHAR
STARTCHAR uni018F
ENCODING 399
SWIDTH 597 0
DWIDTH 6 0
BBX 6 7 0 0
BITMAP
2E40
11C0
0090
BFD0
5090
61C0
1F40
ENDCHAR
STARTCHAR florin
ENCODING 402
SWIDTH 309 0
DWIDTH 3 0
BBX 3 10 0 -2
BITMAP
1C
30
30
B8
30
30
30
30
20
D0
ENDCHAR
STARTCHAR Ohorn
ENCODING 416
SWIDTH 592 0
DWIDTH 6 0
BBX 6 8 0 0
BITMAP
0010
1E60
71D0
5080
9090
5090
71C0
1F40
ENDCHAR
STARTCHAR ohorn
ENCODING 417
SWIDTH 502 0
DWIDTH 5 0
BBX 5 5 0 0
BITMAP
2D80
6280
9140
6240
2E00
ENDCHAR
STARTCHAR Uhorn
ENCODING 431
SWIDTH 608 0
DWIDTH 6 0
BBX 7 8 0 0
BITMAP
0004
60D4
60E0
60C0
60C0
60C0
61C0
2F40
ENDCHAR
STARTCHAR uhorn
ENCODING 432
SWIDTH 549 0
DWIDTH 6 0
BBX 6 5 0 0
BITMAP
5250
52C0
5240
6240
3F40
ENDCHAR
STARTCHAR uni01F0
ENCODING 496
SWIDTH 237 0
DWIDTH 2 0
BBX 3 10 0 -2
BITMAP
94
60
00
60
60
60
60
60
60
D0
ENDCHAR
STARTCHAR Aringacute
ENCODING 506
SWIDTH 576 0
DWIDTH 6 0
BBX 6 10 0 0
BITMAP
0200
0100
0900
0F00
0A00
1600
2140
3F80
6080
9090
ENDCHAR
STARTCHAR aringacute
ENCODING 507
SWIDTH 479 0
DWIDTH 5 0
BBX 5 9 0 0
BITMAP
0600
0400
0C00
0C00
2E00
1300
2F00
6200
3F40
ENDCHAR
STARTCHAR AEacute
ENCODING 508
SWIDTH 812 0
DWIDTH 8 0
BBX 8 10 0 0
BITMAP
00C0
0140
0000
02FE
06C0
08C0
18FD
2FC0
60C0
90FF
ENDCHAR
STARTCHAR aeacute
ENCODING 509
SWIDTH 728 0
DWIDTH 7 0
BBX 7 8 0 0
BITMAP
0180
0240
0000
2EF4
5358
7FFC
9340
7DB8
ENDCHAR
STARTCHAR Oslashacute
ENCODING 510
SWIDTH 600 0
DWIDTH 6 0
BBX 6 11 0 -1
BITMAP
0240
0600
0000
1F80
35C0
6290
5150
6890
34C0
2F40
1000
ENDCHAR
STARTCHAR oslashacute
ENCODING 511
SWIDTH 498 0
DWIDTH 5 0
BBX 5 9 0 -1
BITMAP
0A00
0800
0100
2F00
6640
5980
6640
2E00
1000
ENDCHAR
STARTCHAR uni0218
ENCODING 536
SWIDTH 518 0
DWIDTH 5 0
BBX 5 10 0 -3
BITMAP
2E00
6180
6040
1A00
4180
6180
2F40
0000
0800
0800
ENDCHAR
STARTCHAR uni0219
ENCODING 537
SWIDTH 455 0
DWIDTH 5 0
BBX 4 8 0 -3
BITMAP
2E
65
1E
53
2E
00
08
08
ENDCHAR
STARTCHAR uni021A
ENCODING 538
SWIDTH 520 0
DWIDTH 5 0
BBX 5 10 0 -3
BITMAP
BFC0
0C00
0C00
0C00
0C00
0C00
0C00
0000
0800
0800
ENDCHAR
STARTCHAR uni021B
ENCODING 539
SWIDTH 295 0
DWIDTH 3 0
BBX 3 9 0 -3
BITMAP
20
F8
20
20
20
28
00
14
20
ENDCHAR
STARTCHAR uni0237
ENCODING 567
SWIDTH 237 0
DWIDTH 2 0
BBX 2 7 0 -2
BITMAP
60
60
60
60
60
60
D0
ENDCHAR
STARTCHAR uni0259
ENCODING 601
SWIDTH 465 0
DWIDTH 5 0
BBX 5 5 0 0
BITMAP
3D00
0200
7F40
6300
2D00
ENDCHAR
STARTCHAR uni02BC
ENCODING 700
SWIDTH 194 0
DWIDTH 2 0
BBX 2 3 0 5
BITMAP
60
50
80
ENDCHAR
STARTCHAR circumflex
ENCODING 710
SWIDTH 428 0
DWIDTH 4 0
BBX 2 2 1 6
BITMAP
A0
A0
ENDCHAR
STARTCHAR caron
ENCODING 711
SWIDTH 403 0
DWIDTH 4 0
BBX 2 2 1 6
BITMAP
A0
A0
ENDCHAR
STARTCHAR uni02C9
ENCODING 713
SWIDTH 414 0
DWIDTH 4 0
BBX 4 1 0 6
BITMAP
7E
ENDCHAR
STARTCHAR breve
ENCODING 728
SWIDTH 426 0
DWIDTH 4 0
BBX 4 2 0 5
BITMAP
65
2C
ENDCHAR
STARTCHAR dotaccent
ENCODING 729
SWIDTH 242 0
DWIDTH 2 0
BBX 2 1 0 6
BITMAP
60
ENDCHAR
STARTCHAR ring
ENCODING 730
SWIDTH 334 0
DWIDTH 3 0
BBX 3 2 0 6
BITMAP
64
64
ENDCHAR
STARTCHAR ogonek
ENCODING 731
SWIDTH 253 0
DWIDTH 3 0
BBX 2 2 0 -2
BITMAP
50
A0
ENDCHAR
STARTCHAR tilde
ENCODING 732
SWIDTH 427 0
DWIDTH 4 0
BBX 4 2 0 6
BITMAP
36
59
ENDCHAR
STARTCHAR hungarumlaut
ENCODING 733
SWIDTH 331 0
DWIDTH 3 0
BBX 4 2 0 6
BITMAP
29
58
ENDCHAR
STARTCHAR uni02F3
ENCODING 755
SWIDTH 263 0
DWIDTH 3 0
BBX 2 2 0 -3
BITMAP
60
70
ENDCHAR
STARTCHAR gravecomb
ENCODING 768
SWIDTH 0 0
DWIDTH 0 0
BBX 2 2 -4 6
BITMAP
60
20
ENDCHAR
STARTCHAR acutecomb
ENCODING 769
SWIDTH 0 0
DWIDTH 0 0
BBX 2 2 -3 6
BITMAP
30
50
ENDCHAR
STARTCHAR tildecomb
ENCODING 771
SWIDTH 0 0
DWIDTH 0 0
BBX 4 2 -4 6
BITMAP
65
9C
ENDCHAR
STARTCHAR hookabovecomb
ENCODING 777
SWIDTH 0 0
DWIDTH 0 0
BBX 2 3 -3 6
BITMAP
90
60
80
ENDCHAR
STARTCHAR uni030F
ENCODING 783
SWIDTH 0 0
DWIDTH 0 0
BBX 3 2 -4 6
BITMAP
A8
28
ENDCHAR
STARTCHAR dotbelowcomb
ENCODING 803
SWIDTH 0 0
DWIDTH 0 0
BBX 2 1 -4 -2
BITMAP
50
ENDCHAR
STARTCHAR tonos
ENCODING 900
SWIDTH 256 0
DWIDTH 3 0
BBX 1 2 1 6
BITMAP
80
40
ENDCHAR
STARTCHAR dieresistonos
ENCODING 901
SWIDTH 452 0
DWIDTH 5 0
BBX 4 2 0 6
BITMAP
08
52
ENDCHAR
STARTCHAR Alphatonos
ENCODING 902
SWIDTH 576 0
DWIDTH 6 0
BBX 6 8 0 0
BITMAP
2000
1900
0A00
1600
2140
3F80
6080
9090
ENDCHAR
STARTCHAR anoteleia
ENCODING 903
SWIDTH 243 0
DWIDTH 2 0
BBX 2 1 0 3
BITMAP
60
ENDCHAR
STARTCHAR Epsilontonos
ENCODING 904
SWIDTH 496 0
DWIDTH 5 0
BBX 6 8 -1 0
BITMAP
8000
9FE0
1800
1800
1FD0
1800
1800
1FE0
ENDCHAR
STARTCHAR Etatonos
ENCODING 905
SWIDTH 620 0
DWIDTH 6 0
BBX 7 8 -1 0
BITMAP
8000
9814
1814
1814
1FF4
1814
1814
1814
ENDCHAR
STARTCHAR Iotatonos
ENCODING 906
SWIDTH 250 0
DWIDTH 3 0
BBX 3 8 -1 0
BITMAP
80
98
18
18
18
18
18
18
ENDCHAR
STARTCHAR Omicrontonos
ENCODING 908
SWIDTH 610 0
DWIDTH 6 0
BBX 6 8 0 0
BITMAP
8000
5F40
3490
6050
6050
6050
3490
1F80
ENDCHAR
STARTCHAR Upsilontonos
ENCODING 910
SWIDTH 573 0
DWIDTH 6 0
BBX 7 8 -1 0
BITMAP
8000
8C24
0930
0650
0280
0180
0180
0180
ENDCHAR
STARTCHAR Omegatonos
ENCODING 911
SWIDTH 591 0
DWIDTH 6 0
BBX 6 8 0 0
BITMAP
8000
5F40
31C0
6090
6090
6080
2080
7AD0
ENDCHAR
STARTCHAR iotadieresistonos
ENCODING 912
SWIDTH 299 0
DWIDTH 3 0
BBX 4 8 -1 0
BITMAP
08
62
00
08
08
08
08
0A
ENDCHAR
STARTCHAR Alpha
ENCODING 913
SWIDTH 576 0
DWIDTH 6 0
BBX 6 7 0 0
BITMAP
0900
0A00
1600
2140
3F80
6080
9090
ENDCHAR
STARTCHAR Beta
ENCODING 914
SWIDTH 545 0
DWIDTH 5 0
BBX 5 7 0 0
BITMAP
7F40
6180
6180
7F40
6180
6180
7F40
ENDCHAR
STARTCHAR Gamma
ENCODING 915
SWIDTH 487 0
DWIDTH 5 0
BBX 5 7 0 0
BITMAP
7F80
6000
6000
6000
6000
6000
6000
ENDCHAR
STARTCHAR Delta.dup1
ENCODING 916
SWIDTH 614 0
DWIDTH 6 0
BBX 6 7 0 0
BITMAP
0600
0A00
1A40
2480
2080
6050
BFE0
ENDCHAR
STARTCHAR Epsilon
ENCODING 917
SWIDTH 496 0
DWIDTH 5 0
BBX 5 7 0 0
BITMAP
7F80
6000
6000
7F40
6000
6000
7F80
ENDCHAR
STARTCHAR Zeta
ENCODING 918
SWIDTH 522 0
DWIDTH 5 0
BBX 5 7 0 0
BITMAP
BF80
0240
0600
0800
2400
6000
BF80
ENDCHAR
STARTCHAR Eta
ENCODING 919
SWIDTH 620 0
DWIDTH 6 0
BBX 6 7 0 0
BITMAP
6050
6050
6050
7FD0
6050
6050
6050
ENDCHAR
STARTCHAR Theta
ENCODING 920
SWIDTH 593 0
DWIDTH 6 0
BBX 6 7 0 0
BITMAP
1F40
31C0
5090
5F90
5090
31C0
1F40
ENDCHAR
STARTCHAR Iota
ENCODING 921
SWIDTH 250 0
DWIDTH 3 0
BBX 2 7 0 0
BITMAP
60
60
60
60
60
60
60
ENDCHAR
STARTCHAR Kappa
ENCODING 922
SWIDTH 544 0
DWIDTH 5 0
BBX 5 7 0 0
BITMAP
6180
6200
6900
7D00
6600
6240
60C0
ENDCHAR
STARTCHAR Lambda
ENCODING 923
SWIDTH 572 0
DWIDTH 6 0
BBX 6 7 0 0
BITMAP
0900
0E00
1B00
2640
3180
60C0
9090
ENDCHAR
STARTCHAR Mu
ENCODING 924
SWIDTH 755 0
DWIDTH 8 0
BBX 7 7 0 0
BITMAP
7028
7428
6868
6898
6588
6288
6248
ENDCHAR
STARTCHAR Nu
ENCODING 925
SWIDTH 619 0
DWIDTH 6 0
BBX 6 7 0 0
BITMAP
7050
7450
6850
6650
6290
61D0
6090
ENDCHAR
STARTCHAR Xi
ENCODING 926
SWIDTH 502 0
DWIDTH 5 0
BBX 5 7 0 0
BITMAP
7F40
0000
0000
3F00
0000
0000
7F40
ENDCHAR
STARTCHAR Omicron
ENCODING 927
SWIDTH 600 0
DWIDTH 6 0
BBX 6 7 0 0
BITMAP
1F40
30C0
6090
6090
6090
30C0
1F40
ENDCHAR
STARTCHAR Pi
ENCODING 928
SWIDTH 620 0
DWIDTH 6 0
BBX 6 7 0 0
BITMAP
7FD0
6090
6090
6090
6090
6090
6090
ENDCHAR
STARTCHAR Rho
ENCODING 929
SWIDTH 554 0
DWIDTH 6 0
BBX 5 7 0 0
BITMAP
7F40
60C0
60C0
7F40
6000
6000
6000
ENDCHAR
STARTCHAR Sigma
ENCODING 931
SWIDTH 502 0
DWIDTH 5 0
BBX 5 7 0 0
BITMAP
BF40
6000
1800
0C00
1800
6000
BF80
ENDCHAR
STARTCHAR Tau
ENCODING 932
SWIDTH 520 0
DWIDTH 5 0
BBX 5 7 0 0
BITMAP
BFC0
0C00
0C00
0C00
0C00
0C00
0C00
ENDCHAR
STARTCHAR Upsilon
ENCODING 933
SWIDTH 524 0
DWIDTH 5 0
BBX 5 7 0 0
BITMAP
90C0
6240
2600
1D00
0C00
0800
0800
ENDCHAR
STARTCHAR Phi
ENCODING 934
SWIDTH 621 0
DWIDTH 6 0
BBX 6 7 0 0
BITMAP
0600
2F80
6660
9620
6660
2F80
0600
ENDCHAR
STARTCHAR Chi
ENCODING 935
SWIDTH 550 0
DWIDTH 6 0
BBX 5 7 0 0
BITMAP
60C0
2640
1A00
0D00
1A00
3240
60C0
ENDCHAR
STARTCHAR Psi
ENCODING 936
SWIDTH 600 0
DWIDTH 6 0
BBX 6 7 0 0
BITMAP
9960
9960
9950
6990
2F40
0900
0900
ENDCHAR
STARTCHAR Omega.dup2
ENCODING 937
SWIDTH 581 0
DWIDTH 6 0
BBX 5 7 0 0
BITMAP
1F40
71C0
6080
5080
6080
2080
7BC0
ENDCHAR
STARTCHAR Iotadieresis
ENCODING 938
SWIDTH 250 0
DWIDTH 3 0
BBX 4 9 -1 0
BITMAP
62
00
18
18
18
18
18
18
18
ENDCHAR
STARTCHAR Upsilondieresis
ENCODING 939
SWIDTH 524 0
DWIDTH 5 0
BBX 5 9 0 0
BITMAP
2200
0000
90C0
6240
2600
1D00
0C00
0800
0800
ENDCHAR
STARTCHAR alphatonos
ENCODING 940
SWIDTH 494 0
DWIDTH 5 0
BBX 5 8 0 0
BITMAP
0500
0400
0000
2E40
6240
5240
6240
2E80
ENDCHAR
STARTCHAR epsilontonos
ENCODING 941
SWIDTH 470 0
DWIDTH 5 0
BBX 4 8 0 0
BITMAP
08
08
00
2E
61
3D
62
2E
ENDCHAR
STARTCHAR etatonos
ENCODING 942
SWIDTH 498 0
DWIDTH 5 0
BBX 5 10 0 -2
BITMAP
0800
0800
0000
6E00
6240
6240
6240
6240
0240
0240
ENDCHAR
STARTCHAR iotatonos
ENCODING 943
SWIDTH 299 0
DWIDTH 3 0
BBX 2 8 1 0
BITMAP
80
80
00
80
80
80
80
A0
ENDCHAR
STARTCHAR upsilondieresistonos
ENCODING 944
SWIDTH 480 0
DWIDTH 5 0
BBX 5 8 0 0
BITMAP
0800
5200
0000
6300
6240
6240
6300
2D00
ENDCHAR
STARTCHAR alpha
ENCODING 945
SWIDTH 494 0
DWIDTH 5 0
BBX 5 5 0 0
BITMAP
2E40
6240
5240
6240
2E80
ENDCHAR
STARTCHAR beta
ENCODING 946
SWIDTH 517 0
DWIDTH 5 0
BBX 5 9 0 -2
BITMAP
2E00
2240
6240
6B00
6180
6180
7E00
6000
6000
ENDCHAR
STARTCHAR gamma
ENCODING 947
SWIDTH 444 0
DWIDTH 4 0
BBX 4 7 0 -2
BITMAP
92
62
25
2C
18
18
18
ENDCHAR
STARTCHAR delta
ENCODING 948
SWIDTH 498 0
DWIDTH 5 0
BBX 5 8 0 0
BITMAP
2E00
3000
2800
2E00
6240
5140
6240
2E00
ENDCHAR
STARTCHAR epsilon
ENCODING 949
SWIDTH 470 0
DWIDTH 5 0
BBX 4 5 0 0
BITMAP
2E
61
3D
62
2E
ENDCHAR
STARTCHAR zeta
ENCODING 950
SWIDTH 462 0
DWIDTH 5 0
BBX 4 9 0 -2
BITMAP
7F
06
08
24
20
30
2D
02
01
ENDCHAR
STARTCHAR eta
ENCODING 951
SWIDTH 498 0
DWIDTH 5 0
BBX 5 7 0 -2
BITMAP
6E00
6240
6240
6240
6240
0240
0240
ENDCHAR
STARTCHAR theta
ENCODING 952
SWIDTH 496 0
DWIDTH 5 0
BBX 5 7 0 0
BITMAP
2E00
6200
5240
7F40
5240
6200
2E00
ENDCHAR
STARTCHAR iota
ENCODING 953
SWIDTH 299 0
DWIDTH 3 0
BBX 2 5 1 0
BITMAP
80
80
80
80
A0
ENDCHAR
STARTCHAR kappa
ENCODING 954
SWIDTH 491 0
DWIDTH 5 0
BBX 5 5 0 0
BITMAP
6200
6900
7800
6900
6240
ENDCHAR
STARTCHAR lambda
ENCODING 955
SWIDTH 485 0
DWIDTH 5 0
BBX 5 7 0 0
BITMAP
7000
2400
1C00
2D00
2600
6300
9280
ENDCHAR
STARTCHAR uni03BC
ENCODING 956
SWIDTH 498 0
DWIDTH 5 0
BBX 5 7 0 -2
BITMAP
6240
6240
6240
6240
7F40
6000
6000
ENDCHAR
STARTCHAR nu
ENCODING 957
SWIDTH 427 0
DWIDTH 4 0
BBX 4 5 0 0
BITMAP
93
66
29
28
18
ENDCHAR
STARTCHAR xi
ENCODING 958
SWIDTH 431 0
DWIDTH 4 0
BBX 4 9 0 -2
BITMAP
2E
60
20
2D
60
50
39
07
02
ENDCHAR
STARTCHAR omicron
ENCODING 959
SWIDTH 501 0
DWIDTH 5 0
BBX 5 5 0 0
BITMAP
2E00
6240
9180
6240
2E00
ENDCHAR
STARTCHAR pi
ENCODING 960
SWIDTH 520 0
DWIDTH 5 0
BBX 5 5 0 0
BITMAP
BF80
2240
2240
2240
21C0
ENDCHAR
STARTCHAR rho
ENCODING 961
SWIDTH 498 0
DWIDTH 5 0
BBX 5 7 0 -2
BITMAP
2E00
2240
6140
6240
7E00
6000
6000
ENDCHAR
STARTCHAR sigma1
ENCODING 962
SWIDTH 472 0
DWIDTH 5 0
BBX 4 7 0 -2
BITMAP
2D
62
50
60
2D
02
01
ENDCHAR
STARTCHAR sigma
ENCODING 963
SWIDTH 498 0
DWIDTH 5 0
BBX 5 5 0 0
BITMAP
2F80
6200
5140
6240
2E00
ENDCHAR
STARTCHAR tau
ENCODING 964
SWIDTH 460 0
DWIDTH 5 0
BBX 4 5 0 0
BITMAP
BF
18
18
18
0D
ENDCHAR
STARTCHAR upsilon
ENCODING 965
SWIDTH 480 0
DWIDTH 5 0
BBX 5 5 0 0
BITMAP
6300
6240
6240
6300
2D00
ENDCHAR
STARTCHAR phi
ENCODING 966
SWIDTH 617 0
DWIDTH 6 0
BBX 6 7 0 -2
BITMAP
2780
5660
9520
66A0
2F80
0500
0500
ENDCHAR
STARTCHAR chi
ENCODING 967
SWIDTH 438 0
DWIDTH 4 0
BBX 5 7 0 -2
BITMAP
A200
3600
1C00
1C00
2D00
2600
5240
ENDCHAR
STARTCHAR psi
ENCODING 968
SWIDTH 612 0
DWIDTH 6 0
BBX 6 7 0 -2
BITMAP
9550
9560
9560
6590
2F80
0500
0500
ENDCHAR
STARTCHAR omega
ENCODING 969
SWIDTH 711 0
DWIDTH 7 0
BBX 7 5 0 0
BITMAP
2020
6214
5314
6314
2DA0
ENDCHAR
STARTCHAR iotadieresis
ENCODING 970
SWIDTH 299 0
DWIDTH 3 0
BBX 3 7 0 0
BITMAP
88
00
20
20
20
20
28
ENDCHAR
STARTCHAR upsilondieresis
ENCODING 971
SWIDTH 480 0
DWIDTH 5 0
BBX 5 7 0 0
BITMAP
2200
0000
6300
6240
6240
6300
2D00
ENDCHAR
STARTCHAR omicrontonos
ENCODING 972
SWIDTH 501 0
DWIDTH 5 0
BBX 5 8 0 0
BITMAP
0800
0800
0000
2E00
6240
9180
6240
2E00
ENDCHAR
STARTCHAR upsilontonos
ENCODING 973
SWIDTH 480 0
DWIDTH 5 0
BBX 5 8 0 0
BITMAP
0800
0800
0000
6300
6240
6240
6300
2D00
ENDCHAR
STARTCHAR omegatonos
ENCODING 974
SWIDTH 711 0
DWIDTH 7 0
BBX 7 8 0 0
BITMAP
0240
0200
0000
2020
6214
5314
6314
2DA0
ENDCHAR
STARTCHAR theta1
ENCODING 977
SWIDTH 507 0
DWIDTH 5 0
BBX 5 7 0 0
BITMAP
1E00
2640
1A40
5B80
5240
6200
2E00
ENDCHAR
STARTCHAR Upsilon1
ENCODING 978
SWIDTH 465 0
DWIDTH 5 0
BBX 5 7 0 0
BITMAP
D280
6300
3600
1C00
0800
0800
0800
ENDCHAR
STARTCHAR omega1
ENCODING 982
SWIDTH 678 0
DWIDTH 7 0
BBX 7 5 0 0
BITMAP
BFF8
6020
6320
6730
2DE0
ENDCHAR
STARTCHAR uni0400
ENCODING 1024
SWIDTH 496 0
DWIDTH 5 0
BBX 5 10 0 0
BITMAP
2800
0800
0000
7F80
6000
6000
7F40
6000
6000
7F80
ENDCHAR
STARTCHAR uni0401
ENCODING 1025
SWIDTH 496 0
DWIDTH 5 0
BBX 5 9 0 0
BITMAP
2200
0000
7F80
6000
6000
7F40
6000
6000
7F80
ENDCHAR
STARTCHAR uni0402
ENCODING 1026
SWIDTH 650 0
DWIDTH 7 0
BBX 6 7 0 0
BITMAP
BFC0
0800
0800
0FD0
0C30
0830
08D0
ENDCHAR
STARTCHAR uni0403
ENCODING 1027
SWIDTH 487 0
DWIDTH 5 0
BBX 5 10 0 0
BITMAP
0700
0900
0000
7F80
6000
6000
6000
6000
6000
6000
ENDCHAR
STARTCHAR uni0404
ENCODING 1028
SWIDTH 589 0
DWIDTH 6 0
BBX 5 7 0 0
BITMAP
1F40
30C0
6040
7E00
6040
30C0
1F40
ENDCHAR
STARTCHAR uni0405
ENCODING 1029
SWIDTH 518 0
DWIDTH 5 0
BBX 5 7 0 0
BITMAP
2E00
6180
6040
1A00
4180
6180
2F40
ENDCHAR
STARTCHAR uni0406
ENCODING 1030
SWIDTH 250 0
DWIDTH 3 0
BBX 2 7 0 0
BITMAP
60
60
60
60
60
60
60
ENDCHAR
STARTCHAR uni0407
ENCODING 1031
SWIDTH 250 0
DWIDTH 3 0
BBX 4 9 -1 0
BITMAP
62
00
18
18
18
18
18
18
18
ENDCHAR
STARTCHAR uni0408
ENCODING 1032
SWIDTH 483 0
DWIDTH 5 0
BBX 4 7 0 0
BITMAP
02
02
02
02
02
93
7D
ENDCHAR
STARTCHAR uni0409
ENCODING 1033
SWIDTH 923 0
DWIDTH 9 0
BBX 9 7 0 0
BITMAP
1FD000
149000
249000
24BE40
249180
309180
A0BF40
ENDCHAR
STARTCHAR uni040A
ENCODING 1034
SWIDTH 927 0
DWIDTH 9 0
BBX 9 7 0 0
BITMAP
609000
609000
609000
7FFF40
609180
609180
60BF40
ENDCHAR
STARTCHAR uni040B
ENCODING 1035
SWIDTH 705 0
DWIDTH 7 0
BBX 7 7 0 0
BITMAP
BFC0
0C00
0C00
0FE0
0C24
0C24
0C24
ENDCHAR
STARTCHAR uni040C
ENCODING 1036
SWIDTH 544 0
DWIDTH 5 0
BBX 5 10 0 0
BITMAP
0600
0800
0000
6180
6200
6900
7D00
6600
6240
60C0
ENDCHAR
STARTCHAR uni040D
ENCODING 1037
SWIDTH 619 0
DWIDTH 6 0
BBX 6 10 0 0
BITMAP
0C00
0500
0000
6090
61D0
6290
6590
6890
7490
7090
ENDCHAR
STARTCHAR uni040E
ENCODING 1038
SWIDTH 547 0
DWIDTH 5 0
BBX 5 10 0 0
BITMAP
2600
1E00
0000
60C0
3180
2640
0B00
0A00
0800
2800
ENDCHAR
STARTCHAR uni040F
ENCODING 1039
SWIDTH 621 0
DWIDTH 6 0
BBX 6 9 0 -2
BITMAP
6090
6090
6090
6090
6090
6090
7FD0
0600
0600
ENDCHAR
STARTCHAR uni0410
ENCODING 1040
SWIDTH 576 0
DWIDTH 6 0
BBX 6 7 0 0
BITMAP
0900
0A00
1600
2140
3F80
6080
9090
ENDCHAR
STARTCHAR uni0411
ENCODING 1041
SWIDTH 549 0
DWIDTH 6 0
BBX 5 7 0 0
BITMAP
7F40
6000
6000
7F40
60C0
60C0
7F40
ENDCHAR
STARTCHAR uni0412
ENCODING 1042
SWIDTH 545 0
DWIDTH 5 0
BBX 5 7 0 0
BITMAP
7F40
6180
6180
7F40
6180
6180
7F40
ENDCHAR
STARTCHAR uni0413
ENCODING 1043
SWIDTH 487 0
DWIDTH 5 0
BBX 5 7 0 0
BITMAP
7F80
6000
6000
6000
6000
6000
6000
ENDCHAR
STARTCHAR uni0414
ENCODING 1044
SWIDTH 660 0
DWIDTH 7 0
BBX 7 9 0 -2
BITMAP
1FD0
1850
1850
1450
2450
3050
BFF4
9024
9024
ENDCHAR
STARTCHAR uni0415
ENCODING 1045
SWIDTH 496 0
DWIDTH 5 0
BBX 5 7 0 0
BITMAP
7F80
6000
6000
7F40
6000
6000
7F80
ENDCHAR
STARTCHAR uni0416
ENCODING 1046
SWIDTH 791 0
DWIDTH 8 0
BBX 8 7 0 0
BITMAP
6149
2558
1964
0FF0
1964
314C
A149
ENDCHAR
STARTCHAR uni0417
ENCODING 1047
SWIDTH 517 0
DWIDTH 5 0
BBX 5 7 0 0
BITMAP
2E00
6180
0180
0F00
0180
6180
2E00
ENDCHAR
STARTCHAR uni0418
ENCODING 1048
SWIDTH 619 0
DWIDTH 6 0
BBX 6 7 0 0
BITMAP
6090
61D0
6290
6590
6890
7490
7090
ENDCHAR
STARTCHAR uni0419
ENCODING 1049
SWIDTH 619 0
DWIDTH 6 0
BBX 6 10 0 0
BITMAP
1980
0B00
0000
6090
61D0
6290
6590
6890
7490
7090
ENDCHAR
STARTCHAR uni041A
ENCODING 1050
SWIDTH 560 0
DWIDTH 6 0
BBX 6 7 0 0
BITMAP
60C0
6240
6600
7D00
6600
6280
60D0
ENDCHAR
STARTCHAR uni041B
ENCODING 1051
SWIDTH 615 0
DWIDTH 6 0
BBX 6 7 0 0
BITMAP
1FD0
1490
1490
2490
2490
3090
A090
ENDCHAR
STARTCHAR uni041C
ENCODING 1052
SWIDTH 755 0
DWIDTH 8 0
BBX 7 7 0 0
BITMAP
7028
7428
6868
6898
6588
6288
6248
ENDCHAR
STARTCHAR uni041D
ENCODING 1053
SWIDTH 620 0
DWIDTH 6 0
BBX 6 7 0 0
BITMAP
6050
6050
6050
7FD0
6050
6050
6050
ENDCHAR
STARTCHAR uni041E
ENCODING 1054
SWIDTH 600 0
DWIDTH 6 0
BBX 6 7 0 0
BITMAP
1F40
30C0
6090
6090
6090
30C0
1F40
ENDCHAR
STARTCHAR uni041F
ENCODING 1055
SWIDTH 620 0
DWIDTH 6 0
BBX 6 7 0 0
BITMAP
7FD0
6090
6090
6090
6090
6090
6090
ENDCHAR
STARTCHAR uni0420
ENCODING 1056
SWIDTH 554 0
DWIDTH 6 0
BBX 5 7 0 0
BITMAP
7F40
60C0
60C0
7F40
6000
6000
6000
ENDCHAR
STARTCHAR uni0421
ENCODING 1057
SWIDTH 566 0
DWIDTH 6 0
BBX 5 7 0 0
BITMAP
1F40
30C0
6040
6000
6040
30C0
1F40
ENDCHAR
STARTCHAR uni0422
ENCODING 1058
SWIDTH 520 0
DWIDTH 5 0
BBX 5 7 0 0
BITMAP
BFC0
0C00
0C00
0C00
0C00
0C00
0C00
ENDCHAR
STARTCHAR uni0423
ENCODING 1059
SWIDTH 547 0
DWIDTH 5 0
BBX 5 7 0 0
BITMAP
60C0
3180
2640
0B00
0A00
0800
2800
ENDCHAR
STARTCHAR uni0424
ENCODING 1060
SWIDTH 676 0
DWIDTH 7 0
BBX 7 7 0 0
BITMAP
0300
2FD0
6320
9324
6320
2FD0
0300
ENDCHAR
STARTCHAR uni0425
ENCODING 1061
SWIDTH 550 0
DWIDTH 6 0
BBX 5 7 0 0
BITMAP
60C0
2640
1A00
0D00
1A00
3240
60C0
ENDCHAR
STARTCHAR uni0426
ENCODING 1062
SWIDTH 639 0
DWIDTH 6 0
BBX 6 9 0 -2
BITMAP
6090
6090
6090
6090
6090
6090
7FF0
0030
0020
ENDCHAR
STARTCHAR uni0427
ENCODING 1063
SWIDTH 600 0
DWIDTH 6 0
BBX 6 7 0 0
BITMAP
6090
6090
6090
6090
2FD0
0090
0090
ENDCHAR
STARTCHAR uni0428
ENCODING 1064
SWIDTH 814 0
DWIDTH 8 0
BBX 8 7 0 0
BITMAP
6189
6189
6189
6189
6189
6189
7FFD
ENDCHAR
STARTCHAR uni0429
ENCODING 1065
SWIDTH 841 0
DWIDTH 8 0
BBX 8 9 0 -2
BITMAP
6189
6189
6189
6189
6189
6189
7FFF
0002
0002
ENDCHAR
STARTCHAR uni042A
ENCODING 1066
SWIDTH 651 0
DWIDTH 7 0
BBX 6 7 0 0
BITMAP
B800
1800
1800
1FD0
1830
1830
1FD0
ENDCHAR
STARTCHAR uni042B
ENCODING 1067
SWIDTH 755 0
DWIDTH 8 0
BBX 7 7 0 0
BITMAP
6018
6018
6018
7F58
60D8
60D8
7F58
ENDCHAR
STARTCHAR uni042C
ENCODING 1068
SWIDTH 551 0
DWIDTH 6 0
BBX 5 7 0 0
BITMAP
6000
6000
6000
7F40
60C0
60C0
7F40
ENDCHAR
STARTCHAR uni042D
ENCODING 1069
SWIDTH 589 0
DWIDTH 6 0
BBX 5 7 1 0
BITMAP
7D00
C700
4240
2F40
0240
C300
7D00
ENDCHAR
STARTCHAR uni042E
ENCODING 1070
SWIDTH 765 0
DWIDTH 8 0
BBX 8 7 0 0
BITMAP
62F4
661C
6509
7D09
6509
660C
62F4
ENDCHAR
STARTCHAR uni042F
ENCODING 1071
SWIDTH 562 0
DWIDTH 6 0
BBX 5 7 0 0
BITMAP
1F80
3080
6080
3080
1F80
2480
6080
ENDCHAR
STARTCHAR uni0430
ENCODING 1072
SWIDTH 479 0
DWIDTH 5 0
BBX 5 5 0 0
BITMAP
2E00
1300
2F00
6200
3F40
ENDCHAR
STARTCHAR uni0431
ENCODING 1073
SWIDTH 484 0
DWIDTH 5 0
BBX 5 8 0 0
BITMAP
0200
1D00
2000
6E00
6240
5140
6240
2E00
ENDCHAR
STARTCHAR uni0432
ENCODING 1074
SWIDTH 503 0
DWIDTH 5 0
BBX 5 5 0 0
BITMAP
7E00
6240
7F00
6240
7F40
ENDCHAR
STARTCHAR uni0433
ENCODING 1075
SWIDTH 371 0
DWIDTH 4 0
BBX 4 5 0 0
BITMAP
7E
60
60
60
60
ENDCHAR
STARTCHAR uni0434
ENCODING 1076
SWIDTH 536 0
DWIDTH 5 0
BBX 5 7 0 -2
BITMAP
2F40
2540
2140
2140
BFC0
80C0
80C0
ENDCHAR
STARTCHAR uni0435
ENCODING 1077
SWIDTH 468 0
DWIDTH 5 0
BBX 5 5 0 0
BITMAP
2E00
6200
BF40
6000
2E00
ENDCHAR
STARTCHAR uni0436
ENCODING 1078
SWIDTH 662 0
DWIDTH 7 0
BBX 6 5 0 0
BITMAP
6230
2690
1FC0
3660
A230
ENDCHAR
STARTCHAR uni0437
ENCODING 1079
SWIDTH 446 0
DWIDTH 4 0
BBX 4 5 0 0
BITMAP
2D
56
2E
53
7E
ENDCHAR
STARTCHAR uni0438
ENCODING 1080
SWIDTH 509 0
DWIDTH 5 0
BBX 5 5 0 0
BITMAP
6240
6740
6A40
7640
7240
ENDCHAR
STARTCHAR uni0439
ENCODING 1081
SWIDTH 509 0
DWIDTH 5 0
BBX 5 8 0 0
BITMAP
2200
1D00
0000
6240
6740
6A40
7640
7240
ENDCHAR
STARTCHAR uni043A
ENCODING 1082
SWIDTH 479 0
DWIDTH 5 0
BBX 5 5 0 0
BITMAP
6200
6900
7C00
6A00
6240
ENDCHAR
STARTCHAR uni043B
ENCODING 1083
SWIDTH 509 0
DWIDTH 5 0
BBX 5 5 0 0
BITMAP
2F40
2240
3240
3240
9240
ENDCHAR
STARTCHAR uni043C
ENCODING 1084
SWIDTH 645 0
DWIDTH 6 0
BBX 6 5 0 0
BITMAP
70A0
74E0
69A0
6A60
6620
ENDCHAR
STARTCHAR uni043D
ENCODING 1085
SWIDTH 508 0
DWIDTH 5 0
BBX 5 5 0 0
BITMAP
6240
6240
7F40
6240
6240
ENDCHAR
STARTCHAR uni043E
ENCODING 1086
SWIDTH 501 0
DWIDTH 5 0
BBX 5 5 0 0
BITMAP
2E00
6240
9180
6240
2E00
ENDCHAR
STARTCHAR uni043F
ENCODING 1087
SWIDTH 509 0
DWIDTH 5 0
BBX 5 5 0 0
BITMAP
7F40
6240
6240
6240
6240
ENDCHAR
STARTCHAR uni0440
ENCODING 1088
SWIDTH 493 0
DWIDTH 5 0
BBX 5 7 0 -2
BITMAP
6E00
6240
6140
6240
6E00
6000
6000
ENDCHAR
STARTCHAR uni0441
ENCODING 1089
SWIDTH 461 0
DWIDTH 5 0
BBX 4 5 0 0
BITMAP
2E
62
90
62
2E
ENDCHAR
STARTCHAR uni0442
ENCODING 1090
SWIDTH 424 0
DWIDTH 4 0
BBX 4 5 0 0
BITMAP
BF
18
18
18
18
ENDCHAR
STARTCHAR uni0443
ENCODING 1091
SWIDTH 416 0
DWIDTH 4 0
BBX 4 7 0 -2
BITMAP
92
66
29
28
18
24
A0
ENDCHAR
STARTCHAR uni0444
ENCODING 1092
SWIDTH 628 0
DWIDTH 6 0
BBX 6 10 0 -2
BITMAP
0600
0600
0600
2FD0
6660
5620
6660
2FD0
0600
0600
ENDCHAR
STARTCHAR uni0445
ENCODING 1093
SWIDTH 438 0
DWIDTH 4 0
BBX 4 5 0 0
BITMAP
66
29
18
29
62
ENDCHAR
STARTCHAR uni0446
ENCODING 1094
SWIDTH 524 0
DWIDTH 5 0
BBX 5 7 0 -2
BITMAP
6240
6240
6240
6240
7FC0
0080
0080
ENDCHAR
STARTCHAR uni0447
ENCODING 1095
SWIDTH 479 0
DWIDTH 5 0
BBX 4 5 0 0
BITMAP
52
52
62
2F
02
ENDCHAR
STARTCHAR uni0448
ENCODING 1096
SWIDTH 703 0
DWIDTH 7 0
BBX 7 5 0 0
BITMAP
6324
6324
6324
6324
7FF4
ENDCHAR
STARTCHAR uni0449
ENCODING 1097
SWIDTH 722 0
DWIDTH 7 0
BBX 7 7 0 -2
BITMAP
6324
6324
6324
6324
7FFC
0008
0008
ENDCHAR
STARTCHAR uni044A
ENCODING 1098
SWIDTH 538 0
DWIDTH 5 0
BBX 5 5 0 0
BITMAP
B400
2400
2F80
24C0
2F80
ENDCHAR
STARTCHAR uni044B
ENCODING 1099
SWIDTH 679 0
DWIDTH 7 0
BBX 6 5 0 0
BITMAP
6030
6030
7E30
6270
7E30
ENDCHAR
STARTCHAR uni044C
ENCODING 1100
SWIDTH 478 0
DWIDTH 5 0
BBX 5 5 0 0
BITMAP
6000
6000
7E00
6240
7E00
ENDCHAR
STARTCHAR uni044D
ENCODING 1101
SWIDTH 472 0
DWIDTH 5 0
BBX 4 5 0 0
BITMAP
2D
53
1F
53
2D
ENDCHAR
STARTCHAR uni044E
ENCODING 1102
SWIDTH 706 0
DWIDTH 7 0
BBX 7 5 0 0
BITMAP
62E0
6624
7D18
6624
62E0
ENDCHAR
STARTCHAR uni044F
ENCODING 1103
SWIDTH 482 0
DWIDTH 5 0
BBX 4 5 0 0
BITMAP
3F
62
3F
22
92
ENDCHAR
STARTCHAR uni0450
ENCODING 1104
SWIDTH 468 0
DWIDTH 5 0
BBX 5 8 0 0
BITMAP
2400
1800
0000
2E00
6200
BF40
6000
2E00
ENDCHAR
STARTCHAR uni0451
ENCODING 1105
SWIDTH 468 0
DWIDTH 5 0
BBX 5 7 0 0
BITMAP
2200
0000
2E00
6200
BF40
6000
2E00
ENDCHAR
STARTCHAR uni0452
ENCODING 1106
SWIDTH 482 0
DWIDTH 5 0
BBX 5 10 0 -2
BITMAP
6000
F800
6000
6E00
6200
6240
6240
6240
0200
0A00
ENDCHAR
STARTCHAR uni0453
ENCODING 1107
SWIDTH 371 0
DWIDTH 4 0
BBX 4 8 0 0
BITMAP
0C
14
00
7E
60
60
60
60
ENDCHAR
STARTCHAR uni0454
ENCODING 1108
SWIDTH 472 0
DWIDTH 5 0
BBX 5 5 0 0
BITMAP
2E00
6240
7C00
6100
2E00
ENDCHAR
STARTCHAR uni0455
ENCODING 1109
SWIDTH 455 0
DWIDTH 5 0
BBX 4 5 0 0
BITMAP
2E
65
1E
53
2E
ENDCHAR
STARTCHAR uni0456
ENCODING 1110
SWIDTH 229 0
DWIDTH 2 0
BBX 2 7 0 0
BITMAP
60
00
60
60
60
60
60
ENDCHAR
STARTCHAR uni0457
ENCODING 1111
SWIDTH 234 0
DWIDTH 2 0
BBX 4 7 -1 0
BITMAP
66
00
18
18
18
18
18
ENDCHAR
STARTCHAR uni0458
ENCODING 1112
SWIDTH 223 0
DWIDTH 2 0
BBX 2 9 0 -2
BITMAP
50
00
60
60
60
60
60
60
D0
ENDCHAR
STARTCHAR uni0459
ENCODING 1113
SWIDTH 729 0
DWIDTH 7 0
BBX 7 5 0 0
BITMAP
2F40
2240
32F4
324C
92F4
ENDCHAR
STARTCHAR uni045A
ENCODING 1114
SWIDTH 743 0
DWIDTH 7 0
BBX 7 5 0 0
BITMAP
6240
6240
7FF8
624C
62F8
ENDCHAR
STARTCHAR uni045B
ENCODING 1115
SWIDTH 499 0
DWIDTH 5 0
BBX 5 8 0 0
BITMAP
6000
F800
6000
6E00
6200
6240
6240
6240
ENDCHAR
STARTCHAR uni045C
ENCODING 1116
SWIDTH 479 0
DWIDTH 5 0
BBX 5 8 0 0
BITMAP
0A00
0800
0000
6200
6900
7C00
6A00
6240
ENDCHAR
STARTCHAR uni045D
ENCODING 1117
SWIDTH 509 0
DWIDTH 5 0
BBX 5 8 0 0
BITMAP
2400
0800
0000
6240
6740
6A40
7640
7240
ENDCHAR
STARTCHAR uni045E
ENCODING 1118
SWIDTH 416 0
DWIDTH 4 0
BBX 4 10 0 -2
BITMAP
66
2D
00
92
66
29
28
18
24
A0
ENDCHAR
STARTCHAR uni045F
ENCODING 1119
SWIDTH 509 0
DWIDTH 5 0
BBX 5 7 0 -2
BITMAP
6240
6240
6240
6240
7F40
0C00
0C00
ENDCHAR
STARTCHAR uni0460
ENCODING 1120
SWIDTH 754 0
DWIDTH 8 0
BBX 7 7 0 0
BITMAP
624C
624C
624C
624C
624C
6398
2DB4
ENDCHAR
STARTCHAR uni0461
ENCODING 1121
SWIDTH 650 0
DWIDTH 7 0
BBX 6 5 0 0
BITMAP
5230
5230
5230
6730
3EE0
ENDCHAR
STARTCHAR uni0462
ENCODING 1122
SWIDTH 551 0
DWIDTH 6 0
BBX 5 7 0 0
BITMAP
6000
F800
6000
7F40
60C0
60C0
7F40
ENDCHAR
STARTCHAR uni0463
ENCODING 1123
SWIDTH 477 0
DWIDTH 5 0
BBX 5 8 0 0
BITMAP
6000
6000
FC00
6000
7E00
6240
6240
7E00
ENDCHAR
STARTCHAR uni0464
ENCODING 1124
SWIDTH 772 0
DWIDTH 8 0
BBX 7 7 0 0
BITMAP
61F4
661C
6904
7FE0
6904
661C
62F4
ENDCHAR
STARTCHAR uni0465
ENCODING 1125
SWIDTH 646 0
DWIDTH 6 0
BBX 6 5 0 0
BITMAP
62D0
6920
7FC0
6920
62D0
ENDCHAR
STARTCHAR uni0466
ENCODING 1126
SWIDTH 526 0
DWIDTH 5 0
BBX 5 7 0 0
BITMAP
0900
0E00
1700
2640
3F80
6980
9980
ENDCHAR
STARTCHAR uni0467
ENCODING 1127
SWIDTH 470 0
DWIDTH 5 0
BBX 5 5 0 0
BITMAP
1C00
2900
2600
7F00
9A40
ENDCHAR
STARTCHAR uni0468
ENCODING 1128
SWIDTH 759 0
DWIDTH 8 0
BBX 7 7 1 0
BITMAP
8280
8280
8680
8950
FFE0
8A70
9A64
ENDCHAR
STARTCHAR uni0469
ENCODING 1129
SWIDTH 654 0
DWIDTH 7 0
BBX 5 5 1 0
BITMAP
8600
8A00
8940
FF80
A680
ENDCHAR
STARTCHAR uni046A
ENCODING 1130
SWIDTH 747 0
DWIDTH 7 0
BBX 7 7 0 0
BITMAP
1FF0
0850
0680
2FF4
6258
6248
6248
ENDCHAR
STARTCHAR uni046B
ENCODING 1131
SWIDTH 645 0
DWIDTH 6 0
BBX 6 5 0 0
BITMAP
1FC0
0A40
2FD0
6660
6620
ENDCHAR
STARTCHAR uni046C
ENCODING 1132
SWIDTH 980 0
DWIDTH 10 0
BBX 9 7 0 0
BITMAP
60FF40
609200
602900
7FFF40
6258C0
631880
631880
ENDCHAR
STARTCHAR uni046D
ENCODING 1133
SWIDTH 856 0
DWIDTH 9 0
BBX 8 5 0 0
BITMAP
61FC
6094
7FFD
6226
6623
ENDCHAR
STARTCHAR uni046E
ENCODING 1134
SWIDTH 454 0
DWIDTH 5 0
BBX 4 12 0 -2
BITMAP
25
18
00
7D
06
06
3D
06
06
7D
90
20
ENDCHAR
STARTCHAR uni046F
ENCODING 1135
SWIDTH 423 0
DWIDTH 4 0
BBX 4 10 0 -2
BITMAP
28
28
00
7D
06
2D
06
7D
90
20
ENDCHAR
STARTCHAR uni0470
ENCODING 1136
SWIDTH 600 0
DWIDTH 6 0
BBX 6 7 0 0
BITMAP
9960
9960
9950
6990
2F40
0900
0900
ENDCHAR
STARTCHAR uni0471
ENCODING 1137
SWIDTH 612 0
DWIDTH 6 0
BBX 6 7 0 -2
BITMAP
9550
9560
9560
6590
2F80
0500
0500
ENDCHAR
STARTCHAR uni0472
ENCODING 1138
SWIDTH 593 0
DWIDTH 6 0
BBX 6 7 0 0
BITMAP
1F40
21C0
5090
7FD0
5090
31C0
1F40
ENDCHAR
STARTCHAR uni0473
ENCODING 1139
SWIDTH 497 0
DWIDTH 5 0
BBX 5 5 0 0
BITMAP
2E00
6240
BF80
6240
2E00
ENDCHAR
STARTCHAR uni0474
ENCODING 1140
SWIDTH 553 0
DWIDTH 6 0
BBX 6 7 0 0
BITMAP
9090
6180
2140
2200
1600
1D00
0D00
ENDCHAR
STARTCHAR uni0475
ENCODING 1141
SWIDTH 443 0
DWIDTH 4 0
BBX 5 5 0 0
BITMAP
9240
6600
2500
2800
1800
ENDCHAR
STARTCHAR uni0476
ENCODING 1142
SWIDTH 553 0
DWIDTH 6 0
BBX 6 10 0 0
BITMAP
6800
2900
0000
9090
6180
2140
2200
1600
1D00
0D00
ENDCHAR
STARTCHAR uni0477
ENCODING 1143
SWIDTH 443 0
DWIDTH 4 0
BBX 5 8 0 0
BITMAP
A800
2800
0000
9240
6600
2500
2800
1800
ENDCHAR
STARTCHAR uni0478
ENCODING 1144
SWIDTH 1017 0
DWIDTH 10 0
BBX 10 9 0 -2
BITMAP
1F4000
30C000
609920
609660
609290
30C280
1F4180
000240
000A00
ENDCHAR
STARTCHAR uni0479
ENCODING 1145
SWIDTH 918 0
DWIDTH 9 0
BBX 9 7 0 -2
BITMAP
2E2480
625980
918A40
624A00
2E0600
000900
002800
ENDCHAR
STARTCHAR uni047A
ENCODING 1146
SWIDTH 593 0
DWIDTH 6 0
BBX 6 9 0 -1
BITMAP
0500
1F40
35C0
5090
5090
5090
35C0
1F40
0500
ENDCHAR
STARTCHAR uni047B
ENCODING 1147
SWIDTH 498 0
DWIDTH 5 0
BBX 5 7 0 -1
BITMAP
0400
2E00
6640
9180
6640
2E00
0400
ENDCHAR
STARTCHAR uni047C
ENCODING 1148
SWIDTH 752 0
DWIDTH 8 0
BBX 7 10 0 0
BITMAP
0740
09A0
0140
2424
6018
600C
624C
624C
6358
2EB4
ENDCHAR
STARTCHAR uni047D
ENCODING 1149
SWIDTH 654 0
DWIDTH 7 0
BBX 6 8 0 0
BITMAP
0A40
09D0
0200
2050
6030
5230
6730
3ED0
ENDCHAR
STARTCHAR uni047E
ENCODING 1150
SWIDTH 754 0
DWIDTH 8 0
BBX 7 10 0 0
BITMAP
0FE0
0240
0000
624C
624C
624C
624C
624C
6398
2EB4
ENDCHAR
STARTCHAR uni047F
ENCODING 1151
SWIDTH 650 0
DWIDTH 7 0
BBX 6 8 0 0
BITMAP
1FC0
0200
0000
5230
5230
5230
6730
3EE0
ENDCHAR
STARTCHAR uni0480
ENCODING 1152
SWIDTH 570 0
DWIDTH 6 0
BBX 5 9 0 -2
BITMAP
1F40
31C0
6040
5000
6000
3000
1D00
0900
0900
ENDCHAR
STARTCHAR uni0481
ENCODING 1153
SWIDTH 472 0
DWIDTH 5 0
BBX 4 7 0 -2
BITMAP
2E
62
50
60
2C
0C
0C
ENDCHAR
STARTCHAR uni0482
ENCODING 1154
SWIDTH 547 0
DWIDTH 5 0
BBX 5 7 0 0
BITMAP
0140
0A00
0740
4840
2800
2A00
2000
ENDCHAR
STARTCHAR uni0483
ENCODING 1155
SWIDTH 0 0
DWIDTH 0 0
BBX 4 3 -4 5
BITMAP
04
BD
40
ENDCHAR
STARTCHAR uni0484
ENCODING 1156
SWIDTH 0 0
DWIDTH 0 0
BBX 4 2 -4 6
BITMAP
1D
A5
ENDCHAR
STARTCHAR uni0485
ENCODING 1157
SWIDTH 0 0
DWIDTH 0 0
BBX 2 2 -3 6
BITMAP
80
50
ENDCHAR
STARTCHAR uni0486
ENCODING 1158
SWIDTH 0 0
DWIDTH 0 0
BBX 2 2 -3 6
BITMAP
20
50
ENDCHAR
STARTCHAR uni0488
ENCODING 1160
SWIDTH 0 0
DWIDTH 0 0
BBX 9 10 -7 -3
BITMAP
01C000
754600
440500
000000
D00280
500140
740A00
440500
01C000
014000
ENDCHAR
STARTCHAR uni0489
ENCODING 1161
SWIDTH 0 0
DWIDTH 0 0
BBX 9 9 -7 -2
BITMAP
008000
104900
140000
000000
900240
000000
000800
244500
014000
ENDCHAR
STARTCHAR uni048A
ENCODING 1162
SWIDTH 666 0
DWIDTH 7 0
BBX 7 11 0 -1
BITMAP
0880
0B40
0000
6090
61D0
6290
6590
6890
7490
70B4
0020
ENDCHAR
STARTCHAR uni048B
ENCODING 1163
SWIDTH 550 0
DWIDTH 6 0
BBX 6 9 0 -1
BITMAP
2640
1E00
0000
6240
6740
6A40
7640
72D0
0080
ENDCHAR
STARTCHAR uni048C
ENCODING 1164
SWIDTH 551 0
DWIDTH 6 0
BBX 5 7 0 0
BITMAP
6000
F800
6000
7F40
60C0
60C0
7F40
ENDCHAR
STARTCHAR uni048D
ENCODING 1165
SWIDTH 477 0
DWIDTH 5 0
BBX 5 8 0 0
BITMAP
6000
FC00
6000
6000
7E00
6240
6240
7E00
ENDCHAR
STARTCHAR uni048E
ENCODING 1166
SWIDTH 557 0
DWIDTH 6 0
BBX 5 7 0 0
BITMAP
7F40
60C0
61C0
7FC0
6000
6000
6000
ENDCHAR
STARTCHAR uni048F
ENCODING 1167
SWIDTH 496 0
DWIDTH 5 0
BBX 5 7 0 -2
BITMAP
6E00
6240
6140
6740
7F40
6000
6000
ENDCHAR
STARTCHAR uni0490
ENCODING 1168
SWIDTH 479 0
DWIDTH 5 0
BBX 5 9 0 0
BITMAP
0140
0140
7F40
6000
6000
6000
6000
6000
6000
ENDCHAR
STARTCHAR uni0491
ENCODING 1169
SWIDTH 395 0
DWIDTH 4 0
BBX 4 7 0 0
BITMAP
05
06
7E
60
60
60
60
ENDCHAR
STARTCHAR uni0492
ENCODING 1170
SWIDTH 487 0
DWIDTH 5 0
BBX 5 7 0 0
BITMAP
7F80
6000
6000
F800
6000
6000
6000
ENDCHAR
STARTCHAR uni0493
ENCODING 1171
SWIDTH 371 0
DWIDTH 4 0
BBX 4 5 0 0
BITMAP
7E
60
F8
60
60
ENDCHAR
STARTCHAR uni0494
ENCODING 1172
SWIDTH 539 0
DWIDTH 5 0
BBX 5 8 0 -1
BITMAP
7F80
6000
6000
7E00
6180
60C0
6180
0340
ENDCHAR
STARTCHAR uni0495
ENCODING 1173
SWIDTH 443 0
DWIDTH 4 0
BBX 4 6 0 -1
BITMAP
7E
60
7D
63
63
09
ENDCHAR
STARTCHAR uni0496
ENCODING 1174
SWIDTH 833 0
DWIDTH 8 0
BBX 8 9 0 -2
BITMAP
6149
2558
1964
0FF0
1964
314C
A14B
0002
0002
ENDCHAR
STARTCHAR uni0497
ENCODING 1175
SWIDTH 696 0
DWIDTH 7 0
BBX 7 7 0 -2
BITMAP
6230
2690
1FC0
3660
A23C
0018
0018
ENDCHAR
STARTCHAR uni0498
ENCODING 1176
SWIDTH 517 0
DWIDTH 5 0
BBX 5 9 0 -2
BITMAP
2E00
6180
0180
0F00
0180
6180
2E00
0C00
0C00
ENDCHAR
STARTCHAR uni0499
ENCODING 1177
SWIDTH 446 0
DWIDTH 4 0
BBX 4 7 0 -2
BITMAP
2D
56
2E
53
7E
18
18
ENDCHAR
STARTCHAR uni049A
ENCODING 1178
SWIDTH 617 0
DWIDTH 6 0
BBX 6 9 0 -2
BITMAP
60C0
6240
6600
7D00
6600
6280
60F0
0020
0020
ENDCHAR
STARTCHAR uni049B
ENCODING 1179
SWIDTH 524 0
DWIDTH 5 0
BBX 5 7 0 -2
BITMAP
6200
6900
7C00
6A00
62C0
00C0
00C0
ENDCHAR
STARTCHAR uni049C
ENCODING 1180
SWIDTH 553 0
DWIDTH 6 0
BBX 6 7 0 0
BITMAP
60C0
6580
6A00
7E00
6A40
6180
60D0
ENDCHAR
STARTCHAR uni049D
ENCODING 1181
SWIDTH 498 0
DWIDTH 5 0
BBX 5 5 0 0
BITMAP
6240
6A00
7E00
6B00
6180
ENDCHAR
STARTCHAR uni049E
ENCODING 1182
SWIDTH 570 0
DWIDTH 6 0
BBX 6 7 0 0
BITMAP
20C0
FA40
2600
3D00
2700
2280
2090
ENDCHAR
STARTCHAR uni049F
ENCODING 1183
SWIDTH 462 0
DWIDTH 5 0
BBX 6 8 -1 0
BITMAP
1800
7D00
1800
18C0
1A40
1F00
1A80
1890
ENDCHAR
STARTCHAR uni04A0
ENCODING 1184
SWIDTH 710 0
DWIDTH 7 0
BBX 7 7 0 0
BITMAP
BD28
0960
09D0
0B80
0990
0930
0918
ENDCHAR
STARTCHAR uni04A1
ENCODING 1185
SWIDTH 607 0
DWIDTH 6 0
BBX 6 5 0 0
BITMAP
BC90
0D80
0F40
0D80
0C60
ENDCHAR
STARTCHAR uni04A2
ENCODING 1186
SWIDTH 662 0
DWIDTH 7 0
BBX 7 9 0 -2
BITMAP
6050
6050
6050
7FD0
6050
6050
6074
0024
0024
ENDCHAR
STARTCHAR uni04A3
ENCODING 1187
SWIDTH 541 0
DWIDTH 5 0
BBX 5 7 0 -2
BITMAP
6240
6240
7F40
6240
62C0
0080
0080
ENDCHAR
STARTCHAR uni04A4
ENCODING 1188
SWIDTH 829 0
DWIDTH 8 0
BBX 8 7 0 0
BITMAP
607F
6050
6050
7FD0
6050
6050
6050
ENDCHAR
STARTCHAR uni04A5
ENCODING 1189
SWIDTH 614 0
DWIDTH 6 0
BBX 6 5 0 0
BITMAP
62E0
6240
7F40
6240
6240
ENDCHAR
STARTCHAR uni04A6
ENCODING 1190
SWIDTH 880 0
DWIDTH 9 0
BBX 9 8 0 -1
BITMAP
7FD000
609000
609000
60BD00
609300
609240
609200
000A00
ENDCHAR
STARTCHAR uni04A7
ENCODING 1191
SWIDTH 755 0
DWIDTH 8 0
BBX 7 6 0 -1
BITMAP
7F40
6240
62F4
624C
624C
0014
ENDCHAR
STARTCHAR uni04A8
ENCODING 1192
SWIDTH 641 0
DWIDTH 6 0
BBX 6 7 0 0
BITMAP
26D0
6660
5530
5530
6620
3650
1FF0
ENDCHAR
STARTCHAR uni04A9
ENCODING 1193
SWIDTH 528 0
DWIDTH 5 0
BBX 5 5 0 0
BITMAP
2740
6D80
5880
6540
2FC0
ENDCHAR
STARTCHAR uni04AA
ENCODING 1194
SWIDTH 566 0
DWIDTH 6 0
BBX 5 9 0 -2
BITMAP
1F40
30C0
6040
6000
6040
30C0
1F40
0900
0900
ENDCHAR
STARTCHAR uni04AB
ENCODING 1195
SWIDTH 461 0
DWIDTH 5 0
BBX 4 7 0 -2
BITMAP
2E
62
90
61
3E
18
18
ENDCHAR
STARTCHAR uni04AC
ENCODING 1196
SWIDTH 520 0
DWIDTH 5 0
BBX 5 9 0 -2
BITMAP
BFC0
0C00
0C00
0C00
0C00
0C00
0E00
0200
0200
ENDCHAR
STARTCHAR uni04AD
ENCODING 1197
SWIDTH 424 0
DWIDTH 4 0
BBX 4 7 0 -2
BITMAP
BF
18
18
18
1D
09
09
ENDCHAR
STARTCHAR uni04AE
ENCODING 1198
SWIDTH 524 0
DWIDTH 5 0
BBX 5 7 0 0
BITMAP
90C0
6240
2600
1D00
0C00
0800
0800
ENDCHAR
STARTCHAR uni04AF
ENCODING 1199
SWIDTH 444 0
DWIDTH 4 0
BBX 4 7 0 -2
BITMAP
92
62
25
2C
18
18
18
ENDCHAR
STARTCHAR uni04B0
ENCODING 1200
SWIDTH 524 0
DWIDTH 5 0
BBX 5 7 0 0
BITMAP
90C0
6240
2700
1E00
2F00
0800
0800
ENDCHAR
STARTCHAR uni04B1
ENCODING 1201
SWIDTH 444 0
DWIDTH 4 0
BBX 4 7 0 -2
BITMAP
92
62
25
1C
3E
18
18
ENDCHAR
STARTCHAR uni04B2
ENCODING 1202
SWIDTH 559 0
DWIDTH 6 0
BBX 6 9 0 -2
BITMAP
60C0
2640
1A00
0D00
1A00
3240
60D0
0050
0050
ENDCHAR
STARTCHAR uni04B3
ENCODING 1203
SWIDTH 465 0
DWIDTH 5 0
BBX 5 7 0 -2
BITMAP
6600
2900
1800
2900
6340
0140
0140
ENDCHAR
STARTCHAR uni04B4
ENCODING 1204
SWIDTH 781 0
DWIDTH 8 0
BBX 7 9 0 -2
BITMAP
BF54
0814
0814
0814
0814
0814
0FFC
0008
0008
ENDCHAR
STARTCHAR uni04B5
ENCODING 1205
SWIDTH 587 0
DWIDTH 6 0
BBX 6 7 0 -2
BITMAP
BCC0
24C0
24C0
24C0
2FD0
0050
0050
ENDCHAR
STARTCHAR uni04B6
ENCODING 1206
SWIDTH 638 0
DWIDTH 6 0
BBX 6 9 0 -2
BITMAP
6090
6090
6090
6090
2FD0
0090
00B0
0030
0030
ENDCHAR
STARTCHAR uni04B7
ENCODING 1207
SWIDTH 512 0
DWIDTH 5 0
BBX 5 7 0 -2
BITMAP
5200
5200
6200
2F00
03C0
0080
0080
ENDCHAR
STARTCHAR uni04B8
ENCODING 1208
SWIDTH 595 0
DWIDTH 6 0
BBX 6 7 0 0
BITMAP
6090
6090
6190
6590
2FD0
0590
0090
ENDCHAR
STARTCHAR uni04B9
ENCODING 1209
SWIDTH 483 0
DWIDTH 5 0
BBX 5 5 0 0
BITMAP
5240
5640
6A40
2F40
0640
ENDCHAR
STARTCHAR uni04BA
ENCODING 1210
SWIDTH 595 0
DWIDTH 6 0
BBX 5 7 0 0
BITMAP
6000
6000
6000
7F80
60C0
6080
6080
ENDCHAR
STARTCHAR uni04BB
ENCODING 1211
SWIDTH 482 0
DWIDTH 5 0
BBX 5 8 0 0
BITMAP
6000
6000
6000
6E00
6200
6240
6240
6240
ENDCHAR
STARTCHAR uni04BC
ENCODING 1212
SWIDTH 674 0
DWIDTH 7 0
BBX 7 7 0 0
BITMAP
07D0
0D60
6820
3FF4
1800
0D10
07E0
ENDCHAR
STARTCHAR uni04BD
ENCODING 1213
SWIDTH 518 0
DWIDTH 5 0
BBX 5 5 0 0
BITMAP
1E00
B180
7F80
3000
1F40
ENDCHAR
STARTCHAR uni04BE
ENCODING 1214
SWIDTH 674 0
DWIDTH 7 0
BBX 7 9 0 -2
BITMAP
07D0
0D60
6820
3FF4
1800
0D10
07E0
0180
0180
ENDCHAR
STARTCHAR uni04BF
ENCODING 1215
SWIDTH 518 0
DWIDTH 5 0
BBX 5 7 0 -2
BITMAP
1E00
B180
7F80
3000
1F40
0500
0500
ENDCHAR
STARTCHAR uni04C0
ENCODING 1216
SWIDTH 250 0
DWIDTH 3 0
BBX 2 7 0 0
BITMAP
60
60
60
60
60
60
60
ENDCHAR
STARTCHAR uni04C1
ENCODING 1217
SWIDTH 791 0
DWIDTH 8 0
BBX 8 10 0 0
BITMAP
0550
0380
0000
6149
2558
1964
0FF0
1964
314C
A149
ENDCHAR
STARTCHAR uni04C2
ENCODING 1218
SWIDTH 662 0
DWIDTH 7 0
BBX 6 8 0 0
BITMAP
0880
0B40
0000
6230
2690
1FC0
3660
A230
ENDCHAR
STARTCHAR uni04C3
ENCODING 1219
SWIDTH 553 0
DWIDTH 6 0
BBX 5 8 0 -1
BITMAP
6180
6240
6900
7F40
61C0
6080
60C0
0240
ENDCHAR
STARTCHAR uni04C4
ENCODING 1220
SWIDTH 481 0
DWIDTH 5 0
BBX 5 6 0 -1
BITMAP
6200
6900
7E00
6240
6240
0600
ENDCHAR
STARTCHAR uni04C5
ENCODING 1221
SWIDTH 662 0
DWIDTH 7 0
BBX 7 8 0 -1
BITMAP
1FD0
1490
1490
2490
2490
3090
A0B4
0020
ENDCHAR
STARTCHAR uni04C6
ENCODING 1222
SWIDTH 551 0
DWIDTH 6 0
BBX 6 6 0 -1
BITMAP
2F40
2240
3240
3240
92D0
0080
ENDCHAR
STARTCHAR uni04C7
ENCODING 1223
SWIDTH 620 0
DWIDTH 6 0
BBX 6 9 0 -2
BITMAP
6090
6090
6090
7FD0
6090
6090
6090
0090
01C0
ENDCHAR
STARTCHAR uni04C8
ENCODING 1224
SWIDTH 498 0
DWIDTH 5 0
BBX 5 7 0 -2
BITMAP
6240
6240
7F40
6240
6240
0240
0700
ENDCHAR
STARTCHAR uni04C9
ENCODING 1225
SWIDTH 671 0
DWIDTH 7 0
BBX 7 8 0 -1
BITMAP
6050
6050
6050
7FD0
6050
6050
6074
0020
ENDCHAR
STARTCHAR uni04CA
ENCODING 1226
SWIDTH 550 0
DWIDTH 6 0
BBX 6 6 0 -1
BITMAP
6240
6240
7F40
6240
62D0
0080
ENDCHAR
STARTCHAR uni04CB
ENCODING 1227
SWIDTH 600 0
DWIDTH 6 0
BBX 6 9 0 -2
BITMAP
6090
6090
6090
6090
2FD0
0090
01D0
0140
0140
ENDCHAR
STARTCHAR uni04CC
ENCODING 1228
SWIDTH 479 0
DWIDTH 5 0
BBX 4 7 0 -2
BITMAP
52
52
62
2F
0B
09
09
ENDCHAR
STARTCHAR uni04CD
ENCODING 1229
SWIDTH 801 0
DWIDTH 8 0
BBX 8 8 0 -1
BITMAP
7028
7428
6868
6898
6588
6288
624E
0005
ENDCHAR
STARTCHAR uni04CE
ENCODING 1230
SWIDTH 687 0
DWIDTH 7 0
BBX 7 6 0 -1
BITMAP
70A0
74E0
69A0
6A60
6638
0014
ENDCHAR
STARTCHAR uni04CF
ENCODING 1231
SWIDTH 250 0
DWIDTH 3 0
BBX 2 7 0 0
BITMAP
60
60
60
60
60
60
60
ENDCHAR
STARTCHAR uni04D0
ENCODING 1232
SWIDTH 576 0
DWIDTH 6 0
BBX 6 10 0 0
BITMAP
1640
0E00
0000
0900
0A00
1600
2140
3F80
6080
9090
ENDCHAR
STARTCHAR uni04D1
ENCODING 1233
SWIDTH 479 0
DWIDTH 5 0
BBX 5 8 0 0
BITMAP
2200
1D00
0000
2E00
1300
2F00
6200
3F40
ENDCHAR
STARTCHAR uni04D2
ENCODING 1234
SWIDTH 576 0
DWIDTH 6 0
BBX 6 9 0 0
BITMAP
2540
0000
0900
0A00
1600
2140
3F80
6080
9090
ENDCHAR
STARTCHAR uni04D3
ENCODING 1235
SWIDTH 479 0
DWIDTH 5 0
BBX 5 7 0 0
BITMAP
2200
0000
2E00
1300
2F00
6200
3F40
ENDCHAR
STARTCHAR uni04D4
ENCODING 1236
SWIDTH 812 0
DWIDTH 8 0
BBX 8 7 0 0
BITMAP
02FE
06C0
08C0
18FD
2FC0
60C0
90FF
ENDCHAR
STARTCHAR uni04D5
ENCODING 1237
SWIDTH 728 0
DWIDTH 7 0
BBX 7 5 0 0
BITMAP
2EF4
5358
7FFC
9340
7DB8
ENDCHAR
STARTCHAR uni04D6
ENCODING 1238
SWIDTH 496 0
DWIDTH 5 0
BBX 5 10 0 0
BITMAP
2200
1E00
0000
7F80
6000
6000
7F40
6000
6000
7F80
ENDCHAR
STARTCHAR uni04D7
ENCODING 1239
SWIDTH 468 0
DWIDTH 5 0
BBX 5 8 0 0
BITMAP
2200
2D00
0000
2E00
6200
BF40
6000
2E00
ENDCHAR
STARTCHAR uni04D8
ENCODING 1240
SWIDTH 597 0
DWIDTH 6 0
BBX 6 7 0 0
BITMAP
2E40
11C0
0090
BFD0
5090
61C0
1F40
ENDCHAR
STARTCHAR uni04D9
ENCODING 1241
SWIDTH 465 0
DWIDTH 5 0
BBX 5 5 0 0
BITMAP
3D00
0200
7F40
6300
2D00
ENDCHAR
STARTCHAR uni04DA
ENCODING 1242
SWIDTH 597 0
DWIDTH 6 0
BBX 6 9 0 0
BITMAP
2200
0000
2E40
11C0
0090
BFD0
5090
61C0
1F40
ENDCHAR
STARTCHAR uni04DB
ENCODING 1243
SWIDTH 465 0
DWIDTH 5 0
BBX 5 7 0 0
BITMAP
2200
0000
3D00
0200
7F40
6300
2D00
ENDCHAR
STARTCHAR uni04DC
ENCODING 1244
SWIDTH 791 0
DWIDTH 8 0
BBX 8 9 0 0
BITMAP
0550
0000
6149
2558
1964
0FF0
1964
314C
A149
ENDCHAR
STARTCHAR uni04DD
ENCODING 1245
SWIDTH 662 0
DWIDTH 7 0
BBX 6 7 0 0
BITMAP
0880
0000
6230
2690
1FC0
3660
A230
ENDCHAR
STARTCHAR uni04DE
ENCODING 1246
SWIDTH 517 0
DWIDTH 5 0
BBX 5 9 0 0
BITMAP
2200
0000
2E00
6180
0180
0F00
0180
6180
2E00
ENDCHAR
STARTCHAR uni04DF
ENCODING 1247
SWIDTH 446 0
DWIDTH 4 0
BBX 4 7 0 0
BITMAP
62
00
2D
56
2E
53
7E
ENDCHAR
STARTCHAR uni04E0
ENCODING 1248
SWIDTH 510 0
DWIDTH 5 0
BBX 5 7 0 0
BITMAP
7F40
0600
0800
1E00
0240
6240
2E00
ENDCHAR
STARTCHAR uni04E1
ENCODING 1249
SWIDTH 510 0
DWIDTH 5 0
BBX 5 7 0 -2
BITMAP
7F40
0600
0800
1E00
0240
6240
2E00
ENDCHAR
STARTCHAR uni04E2
ENCODING 1250
SWIDTH 619 0
DWIDTH 6 0
BBX 6 9 0 0
BITMAP
1F80
0000
6090
61D0
6290
6590
6890
7490
7090
ENDCHAR
STARTCHAR uni04E3
ENCODING 1251
SWIDTH 509 0
DWIDTH 5 0
BBX 5 7 0 0
BITMAP
3F00
0000
6240
6740
6A40
7640
7240
ENDCHAR
STARTCHAR uni04E4
ENCODING 1252
SWIDTH 619 0
DWIDTH 6 0
BBX 6 9 0 0
BITMAP
1580
0000
6090
61D0
6290
6590
6890
7490
7090
ENDCHAR
STARTCHAR uni04E5
ENCODING 1253
SWIDTH 509 0
DWIDTH 5 0
BBX 5 7 0 0
BITMAP
2200
0000
6240
6740
6A40
7640
7240
ENDCHAR
STARTCHAR uni04E6
ENCODING 1254
SWIDTH 600 0
DWIDTH 6 0
BBX 6 9 0 0
BITMAP
1540
0000
1F40
30C0
6090
6090
6090
30C0
1F40
ENDCHAR
STARTCHAR uni04E7
ENCODING 1255
SWIDTH 501 0
DWIDTH 5 0
BBX 5 7 0 0
BITMAP
2200
0000
2E00
6240
9180
6240
2E00
ENDCHAR
STARTCHAR uni04E8
ENCODING 1256
SWIDTH 593 0
DWIDTH 6 0
BBX 6 7 0 0
BITMAP
1F40
21C0
5090
7FD0
5090
31C0
1F40
ENDCHAR
STARTCHAR uni04E9
ENCODING 1257
SWIDTH 497 0
DWIDTH 5 0
BBX 5 5 0 0
BITMAP
2E00
6240
BF80
6240
2E00
ENDCHAR
STARTCHAR uni04EA
ENCODING 1258
SWIDTH 593 0
DWIDTH 6 0
BBX 6 9 0 0
BITMAP
1580
0000
1F40
21C0
5090
7FD0
5090
31C0
1F40
ENDCHAR
STARTCHAR uni04EB
ENCODING 1259
SWIDTH 497 0
DWIDTH 5 0
BBX 5 7 0 0
BITMAP
2200
0000
2E00
6240
BF80
6240
2E00
ENDCHAR
STARTCHAR uni04EC
ENCODING 1260
SWIDTH 589 0
DWIDTH 6 0
BBX 5 9 1 0
BITMAP
5500
0000
7D00
C700
4240
2F40
0240
C300
7D00
ENDCHAR
STARTCHAR uni04ED
ENCODING 1261
SWIDTH 472 0
DWIDTH 5 0
BBX 4 7 0 0
BITMAP
22
00
2D
53
1F
53
2D
ENDCHAR
STARTCHAR uni04EE
ENCODING 1262
SWIDTH 547 0
DWIDTH 5 0
BBX 5 9 0 0
BITMAP
2F40
0000
60C0
3180
2640
0B00
0A00
0800
2800
ENDCHAR
STARTCHAR uni04EF
ENCODING 1263
SWIDTH 416 0
DWIDTH 4 0
BBX 4 9 0 -2
BITMAP
7E
00
92
66
29
28
18
24
A0
ENDCHAR
STARTCHAR uni04F0
ENCODING 1264
SWIDTH 547 0
DWIDTH 5 0
BBX 5 9 0 0
BITMAP
2240
0000
60C0
3180
2640
0B00
0A00
0800
2800
ENDCHAR
STARTCHAR uni04F1
ENCODING 1265
SWIDTH 416 0
DWIDTH 4 0
BBX 4 9 0 -2
BITMAP
66
00
92
66
29
28
18
24
A0
ENDCHAR
STARTCHAR uni04F2
ENCODING 1266
SWIDTH 547 0
DWIDTH 5 0
BBX 5 10 0 0
BITMAP
0A40
0A00
0000
60C0
3180
2640
0B00
0A00
0800
2800
ENDCHAR
STARTCHAR uni04F3
ENCODING 1267
SWIDTH 416 0
DWIDTH 4 0
BBX 4 10 0 -2
BITMAP
1A
29
00
92
66
29
28
18
24
A0
ENDCHAR
STARTCHAR uni04F4
ENCODING 1268
SWIDTH 600 0
DWIDTH 6 0
BBX 6 9 0 0
BITMAP
2540
0000
6090
6090
6090
6090
2FD0
0090
0090
ENDCHAR
STARTCHAR uni04F5
ENCODING 1269
SWIDTH 479 0
DWIDTH 5 0
BBX 4 7 0 0
BITMAP
62
00
52
52
62
2F
02
ENDCHAR
STARTCHAR uni04F6
ENCODING 1270
SWIDTH 487 0
DWIDTH 5 0
BBX 5 9 0 -2
BITMAP
7F80
6000
6000
6000
6000
6000
7400
1400
1400
ENDCHAR
STARTCHAR uni04F7
ENCODING 1271
SWIDTH 371 0
DWIDTH 4 0
BBX 4 7 0 -2
BITMAP
7E
60
60
60
74
24
24
ENDCHAR
STARTCHAR uni04F8
ENCODING 1272
SWIDTH 755 0
DWIDTH 8 0
BBX 7 9 0 0
BITMAP
0890
0000
6018
6018
6018
7F98
60D8
60D8
7F58
ENDCHAR
STARTCHAR uni04F9
ENCODING 1273
SWIDTH 679 0
DWIDTH 7 0
BBX 6 7 0 0
BITMAP
0880
0000
6030
6030
7E30
6270
7E30
ENDCHAR
STARTCHAR uni04FA
ENCODING 1274
SWIDTH 520 0
DWIDTH 5 0
BBX 5 9 0 -2
BITMAP
3F80
3000
3000
BC00
3000
3000
3C00
1800
3400
ENDCHAR
STARTCHAR uni04FB
ENCODING 1275
SWIDTH 410 0
DWIDTH 4 0
BBX 4 7 0 -2
BITMAP
3F
30
BC
30
38
18
34
ENDCHAR
STARTCHAR uni04FC
ENCODING 1276
SWIDTH 570 0
DWIDTH 6 0
BBX 6 9 0 -2
BITMAP
60C0
2640
1A00
0D00
1A00
3240
60E0
0050
01C0
ENDCHAR
STARTCHAR uni04FD
ENCODING 1277
SWIDTH 476 0
DWIDTH 5 0
BBX 5 7 0 -2
BITMAP
6600
2900
1800
2900
6380
0140
0700
ENDCHAR
STARTCHAR uni04FE
ENCODING 1278
SWIDTH 550 0
DWIDTH 6 0
BBX 5 7 0 0
BITMAP
60C0
2640
1A00
2F00
1A00
2240
60C0
ENDCHAR
STARTCHAR uni04FF
ENCODING 1279
SWIDTH 438 0
DWIDTH 4 0
BBX 4 5 0 0
BITMAP
66
29
3E
28
62
ENDCHAR
STARTCHAR uni0500
ENCODING 1280
SWIDTH 555 0
DWIDTH 6 0
BBX 5 7 0 0
BITMAP
00C0
00C0
00C0
2FC0
60C0
60C0
2FC0
ENDCHAR
STARTCHAR uni0501
ENCODING 1281
SWIDTH 496 0
DWIDTH 5 0
BBX 5 8 0 0
BITMAP
0240
0240
0240
2F40
6240
9240
6240
2E40
ENDCHAR
STARTCHAR uni0502
ENCODING 1282
SWIDTH 723 0
DWIDTH 7 0
BBX 7 7 0 0
BITMAP
00C0
00C0
00C0
2FC8
60CC
60D8
2FF4
ENDCHAR
STARTCHAR uni0503
ENCODING 1283
SWIDTH 743 0
DWIDTH 7 0
BBX 7 8 0 0
BITMAP
0240
0240
0240
2F48
624C
5248
6258
2EE0
ENDCHAR
STARTCHAR uni0504
ENCODING 1284
SWIDTH 685 0
DWIDTH 7 0
BBX 7 7 0 0
BITMAP
BD00
0600
0620
3D24
0624
0330
02D0
ENDCHAR
STARTCHAR uni0505
ENCODING 1285
SWIDTH 562 0
DWIDTH 6 0
BBX 6 5 0 0
BITMAP
B800
0C80
7890
0980
0740
ENDCHAR
STARTCHAR uni0506
ENCODING 1286
SWIDTH 470 0
DWIDTH 5 0
BBX 5 8 0 -1
BITMAP
B800
0900
0900
7C00
0900
0600
0740
0200
ENDCHAR
STARTCHAR uni0507
ENCODING 1287
SWIDTH 443 0
DWIDTH 4 0
BBX 5 7 0 -2
BITMAP
7D00
0900
3C00
0900
0740
0200
0200
ENDCHAR
STARTCHAR uni0508
ENCODING 1288
SWIDTH 834 0
DWIDTH 8 0
BBX 8 7 0 0
BITMAP
1FD0
1890
1492
1493
2493
2496
A078
ENDCHAR
STARTCHAR uni0509
ENCODING 1289
SWIDTH 698 0
DWIDTH 7 0
BBX 7 5 0 0
BITMAP
2F54
2658
2258
3254
A1E0
ENDCHAR
STARTCHAR uni050A
ENCODING 1290
SWIDTH 864 0
DWIDTH 9 0
BBX 8 7 0 0
BITMAP
6090
6090
6092
7FD3
6093
60A6
607C
ENDCHAR
STARTCHAR uni050B
ENCODING 1291
SWIDTH 716 0
DWIDTH 7 0
BBX 7 5 0 0
BITMAP
6244
6248
7F48
6198
61F0
ENDCHAR
STARTCHAR uni050C
ENCODING 1292
SWIDTH 541 0
DWIDTH 5 0
BBX 5 7 0 0
BITMAP
1F40
3000
6000
50C0
60C0
3180
1F40
ENDCHAR
STARTCHAR uni050D
ENCODING 1293
SWIDTH 452 0
DWIDTH 5 0
BBX 4 5 0 0
BITMAP
2D
60
52
63
2E
ENDCHAR
STARTCHAR uni050E
ENCODING 1294
SWIDTH 616 0
DWIDTH 6 0
BBX 6 7 0 0
BITMAP
BFC0
0C00
0C50
0C60
0C60
0990
0780
ENDCHAR
STARTCHAR uni050F
ENCODING 1295
SWIDTH 558 0
DWIDTH 6 0
BBX 5 5 0 0
BITMAP
BF00
1880
1880
08C0
0B40
ENDCHAR
STARTCHAR uni0510
ENCODING 1296
SWIDTH 589 0
DWIDTH 6 0
BBX 6 7 0 0
BITMAP
1F40
3090
2000
2E00
2000
6090
1F80
ENDCHAR
STARTCHAR uni0511
ENCODING 1297
SWIDTH 470 0
DWIDTH 5 0
BBX 4 5 0 0
BITMAP
2E
61
3D
62
2E
ENDCHAR
STARTCHAR uni0512
ENCODING 1298
SWIDTH 664 0
DWIDTH 7 0
BBX 7 9 0 -2
BITMAP
1FD0
1490
1490
2490
2490
3090
A0B4
0020
00A0
ENDCHAR
STARTCHAR uni0513
ENCODING 1299
SWIDTH 553 0
DWIDTH 6 0
BBX 6 7 0 -2
BITMAP
2F40
2240
3240
3240
92D0
0090
0280
ENDCHAR
STARTCHAR uni1E00
ENCODING 7680
SWIDTH 576 0
DWIDTH 6 0
BBX 6 10 0 -3
BITMAP
0900
0A00
1600
2140
3F80
6080
9090
0000
0900
0900
ENDCHAR
STARTCHAR uni1E01
ENCODING 7681
SWIDTH 479 0
DWIDTH 5 0
BBX 5 8 0 -3
BITMAP
2E00
1300
2F00
6200
3F40
0000
1800
1800
ENDCHAR
STARTCHAR uni1E3E
ENCODING 7742
SWIDTH 755 0
DWIDTH 8 0
BBX 7 10 0 0
BITMAP
00C0
0140
0000
7028
7428
6868
6898
6588
6288
6248
ENDCHAR
STARTCHAR uni1E3F
ENCODING 7743
SWIDTH 752 0
DWIDTH 8 0
BBX 7 8 0 0
BITMAP
00C0
0140
0000
6EB4
624C
624C
624C
624C
ENDCHAR
STARTCHAR Wgrave
ENCODING 7808
SWIDTH 761 0
DWIDTH 8 0
BBX 8 10 0 0
BITMAP
0600
0240
0000
9249
6288
2288
2598
2864
2C74
1830
ENDCHAR
STARTCHAR wgrave
ENCODING 7809
SWIDTH 649 0
DWIDTH 7 0
BBX 6 8 0 0
BITMAP
0C00
0500
0000
9620
5B20
2960
29D0
24C0
ENDCHAR
STARTCHAR Wacute
ENCODING 7810
SWIDTH 761 0
DWIDTH 8 0
BBX 8 10 0 0
BITMAP
00C0
0140
0000
9249
6288
2288
2598
2864
2C74
1830
ENDCHAR
STARTCHAR wacute
ENCODING 7811
SWIDTH 649 0
DWIDTH 7 0
BBX 6 8 0 0
BITMAP
0240
0200
0000
9620
5B20
2960
29D0
24C0
ENDCHAR
STARTCHAR Wdieresis
ENCODING 7812
SWIDTH 761 0
DWIDTH 8 0
BBX 8 9 0 0
BITMAP
0950
0000
9249
6288
2288
2598
2864
2C74
1830
ENDCHAR
STARTCHAR wdieresis
ENCODING 7813
SWIDTH 649 0
DWIDTH 7 0
BBX 6 7 0 0
BITMAP
1880
0000
9620
5B20
2960
29D0
24C0
ENDCHAR
STARTCHAR uni1EA0
ENCODING 7840
SWIDTH 576 0
DWIDTH 6 0
BBX 6 9 0 -2
BITMAP
0900
0A00
1600
2140
3F80
6080
9090
0000
0500
ENDCHAR
STARTCHAR uni1EA1
ENCODING 7841
SWIDTH 479 0
DWIDTH 5 0
BBX 5 7 0 -2
BITMAP
2E00
1300
2F00
6200
3F40
0000
1800
ENDCHAR
STARTCHAR uni1EA2
ENCODING 7842
SWIDTH 576 0
DWIDTH 6 0
BBX 6 11 0 0
BITMAP
0600
0200
0500
0000
0900
0A00
1600
2140
3F80
6080
9090
ENDCHAR
STARTCHAR uni1EA3
ENCODING 7843
SWIDTH 479 0
DWIDTH 5 0
BBX 5 9 0 0
BITMAP
0800
0500
0800
0000
2E00
1300
2F00
6200
3F40
ENDCHAR
STARTCHAR uni1EA4
ENCODING 7844
SWIDTH 576 0
DWIDTH 6 0
BBX 6 11 0 0
BITMAP
0050
0A80
1A40
0000
0900
0A00
1600
2140
3F80
6080
9090
ENDCHAR
STARTCHAR uni1EA5
ENCODING 7845
SWIDTH 479 0
DWIDTH 5 0
BBX 5 9 0 0
BITMAP
0080
1D80
2600
0000
2E00
1300
2F00
6200
3F40
ENDCHAR
STARTCHAR uni1EA6
ENCODING 7846
SWIDTH 576 0
DWIDTH 6 0
BBX 6 11 0 0
BITMAP
9000
5A00
1640
0000
0900
0A00
1600
2140
3F80
6080
9090
ENDCHAR
STARTCHAR uni1EA7
ENCODING 7847
SWIDTH 479 0
DWIDTH 5 0
BBX 5 9 0 0
BITMAP
8000
9D00
2600
0000
2E00
1300
2F00
6200
3F40
ENDCHAR
STARTCHAR uni1EA8
ENCODING 7848
SWIDTH 576 0
DWIDTH 6 0
BBX 6 12 0 0
BITMAP
0080
0080
0A80
1640
0000
0900
0A00
1600
2140
3F80
6080
9090
ENDCHAR
STARTCHAR uni1EA9
ENCODING 7849
SWIDTH 479 0
DWIDTH 5 0
BBX 5 10 0 0
BITMAP
0140
0080
1E40
2200
0000
2E00
1300
2F00
6200
3F40
ENDCHAR
STARTCHAR uni1EAA
ENCODING 7850
SWIDTH 576 0
DWIDTH 6 0
BBX 6 12 0 0
BITMAP
0900
0600
0A00
1640
0000
0900
0A00
1600
2140
3F80
6080
9090
ENDCHAR
STARTCHAR uni1EAB
ENCODING 7851
SWIDTH 479 0
DWIDTH 5 0
BBX 5 10 0 0
BITMAP
1500
1900
1D00
2200
0000
2E00
1300
2F00
6200
3F40
ENDCHAR
STARTCHAR uni1EAC
ENCODING 7852
SWIDTH 576 0
DWIDTH 6 0
BBX 6 12 0 -2
BITMAP
0A00
1A00
0000
0900
0A00
1600
2140
3F80
6080
9090
0000
0500
ENDCHAR
STARTCHAR uni1EAD
ENCODING 7853
SWIDTH 479 0
DWIDTH 5 0
BBX 5 10 0 -2
BITMAP
0C00
2600
0000
2E00
1300
2F00
6200
3F40
0000
1800
ENDCHAR
STARTCHAR uni1EAE
ENCODING 7854
SWIDTH 576 0
DWIDTH 6 0
BBX 6 12 0 0
BITMAP
0200
0500
1600
0E00
0000
0900
0A00
1600
2140
3F80
6080
9090
ENDCHAR
STARTCHAR uni1EAF
ENCODING 7855
SWIDTH 479 0
DWIDTH 5 0
BBX 5 10 0 0
BITMAP
0500
0400
2600
1D00
0000
2E00
1300
2F00
6200
3F40
ENDCHAR
STARTCHAR uni1EB0
ENCODING 7856
SWIDTH 576 0
DWIDTH 6 0
BBX 6 12 0 0
BITMAP
0800
0400
1600
0E00
0000
0900
0A00
1600
2140
3F80
6080
9090
ENDCHAR
STARTCHAR uni1EB1
ENCODING 7857
SWIDTH 479 0
DWIDTH 5 0
BBX 5 10 0 0
BITMAP
1400
0400
2600
1D00
0000
2E00
1300
2F00
6200
3F40
ENDCHAR
STARTCHAR uni1EB2
ENCODING 7858
SWIDTH 576 0
DWIDTH 6 0
BBX 6 13 0 0
BITMAP
0500
0600
0500
1600
0E00
0000
0900
0A00
1600
2140
3F80
6080
9090
ENDCHAR
STARTCHAR uni1EB3
ENCODING 7859
SWIDTH 479 0
DWIDTH 5 0
BBX 5 11 0 0
BITMAP
0800
0900
0800
2600
1D00
0000
2E00
1300
2F00
6200
3F40
ENDCHAR
STARTCHAR uni1EB4
ENCODING 7860
SWIDTH 576 0
DWIDTH 6 0
BBX 6 13 0 0
BITMAP
0900
0600
0000
1600
0E00
0000
0900
0A00
1600
2140
3F80
6080
9090
ENDCHAR
STARTCHAR uni1EB5
ENCODING 7861
SWIDTH 479 0
DWIDTH 5 0
BBX 5 11 0 0
BITMAP
1900
1900
0000
2600
1D00
0000
2E00
1300
2F00
6200
3F40
ENDCHAR
STARTCHAR uni1EB6
ENCODING 7862
SWIDTH 576 0
DWIDTH 6 0
BBX 6 12 0 -2
BITMAP
1640
0E00
0000
0900
0A00
1600
2140
3F80
6080
9090
0000
0500
ENDCHAR
STARTCHAR uni1EB7
ENCODING 7863
SWIDTH 479 0
DWIDTH 5 0
BBX 5 10 0 -2
BITMAP
2200
1D00
0000
2E00
1300
2F00
6200
3F40
0000
1800
ENDCHAR
STARTCHAR uni1EB8
ENCODING 7864
SWIDTH 496 0
DWIDTH 5 0
BBX 5 9 0 -2
BITMAP
7F80
6000
6000
7F40
6000
6000
7F80
0000
0800
ENDCHAR
STARTCHAR uni1EB9
ENCODING 7865
SWIDTH 468 0
DWIDTH 5 0
BBX 5 7 0 -2
BITMAP
2E00
6200
BF40
6000
2E00
0000
0800
ENDCHAR
STARTCHAR uni1EBA
ENCODING 7866
SWIDTH 496 0
DWIDTH 5 0
BBX 5 11 0 0
BITMAP
0900
0600
0800
0000
7F80
6000
6000
7F40
6000
6000
7F80
ENDCHAR
STARTCHAR uni1EBB
ENCODING 7867
SWIDTH 468 0
DWIDTH 5 0
BBX 5 9 0 0
BITMAP
0800
0500
0800
0000
2E00
6200
BF40
6000
2E00
ENDCHAR
STARTCHAR uni1EBC
ENCODING 7868
SWIDTH 496 0
DWIDTH 5 0
BBX 5 10 0 0
BITMAP
1A00
2600
0000
7F80
6000
6000
7F40
6000
6000
7F80
ENDCHAR
STARTCHAR uni1EBD
ENCODING 7869
SWIDTH 468 0
DWIDTH 5 0
BBX 5 8 0 0
BITMAP
2600
2A00
0000
2E00
6200
BF40
6000
2E00
ENDCHAR
STARTCHAR uni1EBE
ENCODING 7870
SWIDTH 496 0
DWIDTH 5 0
BBX 6 11 0 0
BITMAP
0090
0D80
2600
0000
7F80
6000
6000
7F40
6000
6000
7F80
ENDCHAR
STARTCHAR uni1EBF
ENCODING 7871
SWIDTH 468 0
DWIDTH 5 0
BBX 5 9 0 0
BITMAP
00C0
1D40
2600
0000
2E00
6200
BF40
6000
2E00
ENDCHAR
STARTCHAR uni1EC0
ENCODING 7872
SWIDTH 496 0
DWIDTH 5 0
BBX 5 11 0 0
BITMAP
8000
5D00
2600
0000
7F80
6000
6000
7F40
6000
6000
7F80
ENDCHAR
STARTCHAR uni1EC1
ENCODING 7873
SWIDTH 468 0
DWIDTH 5 0
BBX 5 9 0 0
BITMAP
8000
9D00
2600
0000
2E00
6200
BF40
6000
2E00
ENDCHAR
STARTCHAR uni1EC2
ENCODING 7874
SWIDTH 496 0
DWIDTH 5 0
BBX 5 12 0 0
BITMAP
0040
0080
1E40
2200
0000
7F80
6000
6000
7F40
6000
6000
7F80
ENDCHAR
STARTCHAR uni1EC3
ENCODING 7875
SWIDTH 468 0
DWIDTH 5 0
BBX 5 10 0 0
BITMAP
0140
0080
1E40
2200
0000
2E00
6200
BF40
6000
2E00
ENDCHAR
STARTCHAR uni1EC4
ENCODING 7876
SWIDTH 496 0
DWIDTH 5 0
BBX 5 12 0 0
BITMAP
1900
1500
0D00
2600
0000
7F80
6000
6000
7F40
6000
6000
7F80
ENDCHAR
STARTCHAR uni1EC5
ENCODING 7877
SWIDTH 468 0
DWIDTH 5 0
BBX 5 10 0 0
BITMAP
1500
1900
1D00
2600
0000
2E00
6200
BF40
6000
2E00
ENDCHAR
STARTCHAR uni1EC6
ENCODING 7878
SWIDTH 496 0
DWIDTH 5 0
BBX 5 12 0 -2
BITMAP
0D00
1600
0000
7F80
6000
6000
7F40
6000
6000
7F80
0000
0800
ENDCHAR
STARTCHAR uni1EC7
ENCODING 7879
SWIDTH 468 0
DWIDTH 5 0
BBX 5 10 0 -2
BITMAP
1C00
2500
0000
2E00
6200
BF40
6000
2E00
0000
0800
ENDCHAR
STARTCHAR uni1EC8
ENCODING 7880
SWIDTH 250 0
DWIDTH 3 0
BBX 2 11 0 0
BITMAP
20
20
20
00
60
60
60
60
60
60
60
ENDCHAR
STARTCHAR uni1EC9
ENCODING 7881
SWIDTH 234 0
DWIDTH 2 0
BBX 2 9 0 0
BITMAP
60
20
20
00
60
60
60
60
60
ENDCHAR
STARTCHAR uni1ECA
ENCODING 7882
SWIDTH 250 0
DWIDTH 3 0
BBX 2 9 0 -2
BITMAP
60
60
60
60
60
60
60
00
60
ENDCHAR
STARTCHAR uni1ECB
ENCODING 7883
SWIDTH 229 0
DWIDTH 2 0
BBX 2 9 0 -2
BITMAP
60
00
60
60
60
60
60
00
60
ENDCHAR
STARTCHAR uni1ECC
ENCODING 7884
SWIDTH 600 0
DWIDTH 6 0
BBX 6 9 0 -2
BITMAP
1F40
30C0
6090
6090
6090
30C0
1F40
0000
0500
ENDCHAR
STARTCHAR uni1ECD
ENCODING 7885
SWIDTH 501 0
DWIDTH 5 0
BBX 5 7 0 -2
BITMAP
2E00
6240
9180
6240
2E00
0000
0800
ENDCHAR
STARTCHAR uni1ECE
ENCODING 7886
SWIDTH 600 0
DWIDTH 6 0
BBX 6 11 0 0
BITMAP
0600
0200
0600
0000
1F40
30C0
6090
6090
6090
30C0
1F40
ENDCHAR
STARTCHAR uni1ECF
ENCODING 7887
SWIDTH 501 0
DWIDTH 5 0
BBX 5 9 0 0
BITMAP
0800
0500
0800
0000
2E00
6240
9180
6240
2E00
ENDCHAR
STARTCHAR uni1ED0
ENCODING 7888
SWIDTH 600 0
DWIDTH 6 0
BBX 6 11 0 0
BITMAP
0060
0A80
1A40
0000
1F40
30C0
6090
6090
6090
30C0
1F40
ENDCHAR
STARTCHAR uni1ED1
ENCODING 7889
SWIDTH 501 0
DWIDTH 5 0
BBX 5 9 0 0
BITMAP
00C0
1D80
2600
0000
2E00
6240
9180
6240
2E00
ENDCHAR
STARTCHAR uni1ED2
ENCODING 7890
SWIDTH 600 0
DWIDTH 6 0
BBX 6 11 0 0
BITMAP
9000
2A00
1A40
0000
1F40
30C0
6090
6090
6090
30C0
1F40
ENDCHAR
STARTCHAR uni1ED3
ENCODING 7891
SWIDTH 501 0
DWIDTH 5 0
BBX 5 9 0 0
BITMAP
8000
9D00
2600
0000
2E00
6240
9180
6240
2E00
ENDCHAR
STARTCHAR uni1ED4
ENCODING 7892
SWIDTH 600 0
DWIDTH 6 0
BBX 6 12 0 0
BITMAP
0080
0090
0A80
1540
0000
1F40
30C0
6090
6090
6090
30C0
1F40
ENDCHAR
STARTCHAR uni1ED5
ENCODING 7893
SWIDTH 501 0
DWIDTH 5 0
BBX 5 10 0 0
BITMAP
0140
0080
1E40
2200
0000
2E00
6240
9180
6240
2E00
ENDCHAR
STARTCHAR uni1ED6
ENCODING 7894
SWIDTH 600 0
DWIDTH 6 0
BBX 6 12 0 0
BITMAP
0900
0600
0A00
1540
0000
1F40
30C0
6090
6090
6090
30C0
1F40
ENDCHAR
STARTCHAR uni1ED7
ENCODING 7895
SWIDTH 501 0
DWIDTH 5 0
BBX 5 10 0 0
BITMAP
1500
1900
1D00
2200
0000
2E00
6240
9180
6240
2E00
ENDCHAR
STARTCHAR uni1ED8
ENCODING 7896
SWIDTH 600 0
DWIDTH 6 0
BBX 6 12 0 -2
BITMAP
0A00
0A00
0000
1F40
30C0
6090
6090
6090
30C0
1F40
0000
0500
ENDCHAR
STARTCHAR uni1ED9
ENCODING 7897
SWIDTH 501 0
DWIDTH 5 0
BBX 5 10 0 -2
BITMAP
1C00
2500
0000
2E00
6240
9180
6240
2E00
0000
0800
ENDCHAR
STARTCHAR uni1EDA
ENCODING 7898
SWIDTH 592 0
DWIDTH 6 0
BBX 6 10 0 0
BITMAP
0340
0600
0010
1E60
71D0
5080
9090
5090
71C0
1F40
ENDCHAR
STARTCHAR uni1EDB
ENCODING 7899
SWIDTH 502 0
DWIDTH 5 0
BBX 5 8 0 0
BITMAP
0600
0800
0000
2D80
6280
9140
6240
2E00
ENDCHAR
STARTCHAR uni1EDC
ENCODING 7900
SWIDTH 592 0
DWIDTH 6 0
BBX 6 10 0 0
BITMAP
1800
0900
0010
1E60
71D0
5080
9090
5090
71C0
1F40
ENDCHAR
STARTCHAR uni1EDD
ENCODING 7901
SWIDTH 502 0
DWIDTH 5 0
BBX 5 8 0 0
BITMAP
2400
0800
0000
2D80
6280
9140
6240
2E00
ENDCHAR
STARTCHAR uni1EDE
ENCODING 7902
SWIDTH 592 0
DWIDTH 6 0
BBX 6 11 0 0
BITMAP
0600
0200
0500
0010
1E60
71D0
5080
9090
5090
71C0
1F40
ENDCHAR
STARTCHAR uni1EDF
ENCODING 7903
SWIDTH 502 0
DWIDTH 5 0
BBX 5 9 0 0
BITMAP
0800
0500
0800
0000
2D80
6280
9140
6240
2E00
ENDCHAR
STARTCHAR uni1EE0
ENCODING 7904
SWIDTH 592 0
DWIDTH 6 0
BBX 6 10 0 0
BITMAP
1D40
1700
0010
1E60
71D0
5080
9090
5090
71C0
1F40
ENDCHAR
STARTCHAR uni1EE1
ENCODING 7905
SWIDTH 502 0
DWIDTH 5 0
BBX 5 8 0 0
BITMAP
2600
2A00
0000
2D80
6280
9140
6240
2E00
ENDCHAR
STARTCHAR uni1EE2
ENCODING 7906
SWIDTH 592 0
DWIDTH 6 0
BBX 6 10 0 -2
BITMAP
0010
1E60
71D0
5080
9090
5090
71C0
1F40
0000
0900
ENDCHAR
STARTCHAR uni1EE3
ENCODING 7907
SWIDTH 502 0
DWIDTH 5 0
BBX 5 7 0 -2
BITMAP
2D80
6280
9140
6240
2E00
0000
0800
ENDCHAR
STARTCHAR uni1EE4
ENCODING 7908
SWIDTH 561 0
DWIDTH 6 0
BBX 5 9 0 -2
BITMAP
60C0
60C0
60C0
60C0
60C0
61C0
2F40
0000
0900
ENDCHAR
STARTCHAR uni1EE5
ENCODING 7909
SWIDTH 483 0
DWIDTH 5 0
BBX 5 7 0 -2
BITMAP
5240
5240
5240
6240
3F40
0000
1800
ENDCHAR
STARTCHAR uni1EE6
ENCODING 7910
SWIDTH 561 0
DWIDTH 6 0
BBX 5 11 0 0
BITMAP
0900
0200
0500
0000
60C0
60C0
60C0
60C0
60C0
61C0
2F40
ENDCHAR
STARTCHAR uni1EE7
ENCODING 7911
SWIDTH 483 0
DWIDTH 5 0
BBX 5 9 0 0
BITMAP
0800
0500
0800
0000
5240
5240
5240
6240
3F40
ENDCHAR
STARTCHAR uni1EE8
ENCODING 7912
SWIDTH 608 0
DWIDTH 6 0
BBX 7 10 0 0
BITMAP
0340
0600
0004
60D4
60E0
60C0
60C0
60C0
61C0
2F40
ENDCHAR
STARTCHAR uni1EE9
ENCODING 7913
SWIDTH 549 0
DWIDTH 6 0
BBX 6 8 0 0
BITMAP
0600
0800
0000
5250
52C0
5240
6240
3F40
ENDCHAR
STARTCHAR uni1EEA
ENCODING 7914
SWIDTH 608 0
DWIDTH 6 0
BBX 7 10 0 0
BITMAP
1800
0900
0004
60D4
60E0
60C0
60C0
60C0
61C0
2F40
ENDCHAR
STARTCHAR uni1EEB
ENCODING 7915
SWIDTH 549 0
DWIDTH 6 0
BBX 6 8 0 0
BITMAP
2400
0800
0000
5250
52C0
5240
6240
3F40
ENDCHAR
STARTCHAR uni1EEC
ENCODING 7916
SWIDTH 608 0
DWIDTH 6 0
BBX 7 11 0 0
BITMAP
0600
0200
0500
0004
60D4
60E0
60C0
60C0
60C0
61C0
2F40
ENDCHAR
STARTCHAR uni1EED
ENCODING 7917
SWIDTH 549 0
DWIDTH 6 0
BBX 6 9 0 0
BITMAP
0800
0500
0800
0000
5250
52C0
5240
6240
3F40
ENDCHAR
STARTCHAR uni1EEE
ENCODING 7918
SWIDTH 608 0
DWIDTH 6 0
BBX 7 10 0 0
BITMAP
1D40
1700
0004
60D4
60E0
60C0
60C0
60C0
61C0
2F40
ENDCHAR
STARTCHAR uni1EEF
ENCODING 7919
SWIDTH 549 0
DWIDTH 6 0
BBX 6 8 0 0
BITMAP
2600
2A00
0000
5250
52C0
5240
6240
3F40
ENDCHAR
STARTCHAR uni1EF0
ENCODING 7920
SWIDTH 608 0
DWIDTH 6 0
BBX 7 10 0 -2
BITMAP
0004
60D4
60E0
60C0
60C0
60C0
61C0
2F40
0000
0500
ENDCHAR
STARTCHAR uni1EF1
ENCODING 7921
SWIDTH 549 0
DWIDTH 6 0
BBX 6 7 0 -2
BITMAP
5250
52C0
5240
6240
3F40
0000
0800
ENDCHAR
STARTCHAR Ygrave
ENCODING 7922
SWIDTH 524 0
DWIDTH 5 0
BBX 5 10 0 0
BITMAP
2800
0800
0000
90C0
6240
2600
1D00
0C00
0800
0800
ENDCHAR
STARTCHAR ygrave
ENCODING 7923
SWIDTH 416 0
DWIDTH 4 0
BBX 4 10 0 -2
BITMAP
30
14
00
92
66
29
28
18
24
A0
ENDCHAR
STARTCHAR uni1EF4
ENCODING 7924
SWIDTH 524 0
DWIDTH 5 0
BBX 5 9 0 -2
BITMAP
90C0
6240
2600
1D00
0C00
0800
0800
0000
0800
ENDCHAR
STARTCHAR uni1EF5
ENCODING 7925
SWIDTH 416 0
DWIDTH 4 0
BBX 4 8 0 -3
BITMAP
92
66
29
28
18
24
A0
05
ENDCHAR
STARTCHAR uni1EF6
ENCODING 7926
SWIDTH 524 0
DWIDTH 5 0
BBX 5 11 0 0
BITMAP
0900
0600
0800
0000
90C0
6240
2600
1D00
0C00
0800
0800
ENDCHAR
STARTCHAR uni1EF7
ENCODING 7927
SWIDTH 416 0
DWIDTH 4 0
BBX 4 11 0 -2
BITMAP
18
08
08
00
92
66
29
28
18
24
A0
ENDCHAR
STARTCHAR uni1EF8
ENCODING 7928
SWIDTH 524 0
DWIDTH 5 0
BBX 5 10 0 0
BITMAP
1A00
2600
0000
90C0
6240
2600
1D00
0C00
0800
0800
ENDCHAR
STARTCHAR uni1EF9
ENCODING 7929
SWIDTH 416 0
DWIDTH 4 0
BBX 4 10 0 -2
BITMAP
36
59
00
92
66
29
28
18
24
A0
ENDCHAR
STARTCHAR uni1F4D
ENCODING 8013
SWIDTH 634 0
DWIDTH 6 0
BBX 8 8 -2 0
BITMAP
9400
A1B8
0249
0306
0302
0306
0249
01B8
ENDCHAR
STARTCHAR uni2000
ENCODING 8192
SWIDTH 447 0
DWIDTH 4 0
BBX 1 1 0 0
BITMAP
00
ENDCHAR
STARTCHAR uni2001
ENCODING 8193
SWIDTH 876 0
DWIDTH 9 0
BBX 1 1 0 0
BITMAP
00
ENDCHAR
STARTCHAR uni2002
ENCODING 8194
SWIDTH 447 0
DWIDTH 4 0
BBX 1 1 0 0
BITMAP
00
ENDCHAR
STARTCHAR uni2003
ENCODING 8195
SWIDTH 876 0
DWIDTH 9 0
BBX 1 1 0 0
BITMAP
00
ENDCHAR
STARTCHAR uni2004
ENCODING 8196
SWIDTH 305 0
DWIDTH 3 0
BBX 1 1 0 0
BITMAP
00
ENDCHAR
STARTCHAR uni2005
ENCODING 8197
SWIDTH 233 0
DWIDTH 2 0
BBX 1 1 0 0
BITMAP
00
ENDCHAR
STARTCHAR uni2006
ENCODING 8198
SWIDTH 162 0
DWIDTH 2 0
BBX 1 1 0 0
BITMAP
00
ENDCHAR
STARTCHAR uni2007
ENCODING 8199
SWIDTH 491 0
DWIDTH 5 0
BBX 1 1 0 0
BITMAP
00
ENDCHAR
STARTCHAR uni2008
ENCODING 8200
SWIDTH 249 0
DWIDTH 2 0
BBX 1 1 0 0
BITMAP
00
ENDCHAR
STARTCHAR uni2009
ENCODING 8201
SWIDTH 190 0
DWIDTH 2 0
BBX 1 1 0 0
BITMAP
00
ENDCHAR
STARTCHAR uni200A
ENCODING 8202
SWIDTH 105 0
DWIDTH 1 0
BBX 1 1 0 0
BITMAP
00
ENDCHAR
STARTCHAR uni200B
ENCODING 8203
SWIDTH 0 0
DWIDTH 0 0
BBX 1 1 0 0
BITMAP
00
ENDCHAR
STARTCHAR uni2010
ENCODING 8208
SWIDTH 248 0
DWIDTH 2 0
BBX 3 1 0 2
BITMAP
B4
ENDCHAR
STARTCHAR uni2011
ENCODING 8209
SWIDTH 248 0
DWIDTH 2 0
BBX 3 1 0 2
BITMAP
B4
ENDCHAR
STARTCHAR endash
ENCODING 8211
SWIDTH 572 0
DWIDTH 6 0
BBX 5 1 0 3
BITMAP
7FC0
ENDCHAR
STARTCHAR emdash
ENCODING 8212
SWIDTH 678 0
DWIDTH 7 0
BBX 7 1 0 3
BITMAP
7FF4
ENDCHAR
STARTCHAR uni2015
ENCODING 8213
SWIDTH 678 0
DWIDTH 7 0
BBX 7 1 0 3
BITMAP
7FF4
ENDCHAR
STARTCHAR underscoredbl
ENCODING 8215
SWIDTH 402 0
DWIDTH 4 0
BBX 4 3 0 -3
BITMAP
FF
00
FF
ENDCHAR
STARTCHAR quoteleft
ENCODING 8216
SWIDTH 194 0
DWIDTH 2 0
BBX 2 2 0 6
BITMAP
20
50
ENDCHAR
STARTCHAR quoteright
ENCODING 8217
SWIDTH 194 0
DWIDTH 2 0
BBX 2 3 0 5
BITMAP
60
50
80
ENDCHAR
STARTCHAR quotesinglbase
ENCODING 8218
SWIDTH 194 0
DWIDTH 2 0
BBX 2 2 0 -1
BITMAP
50
80
ENDCHAR
STARTCHAR quotereversed
ENCODING 8219
SWIDTH 194 0
DWIDTH 2 0
BBX 2 2 0 6
BITMAP
90
50
ENDCHAR
STARTCHAR quotedblleft
ENCODING 8220
SWIDTH 333 0
DWIDTH 3 0
BBX 3 2 0 6
BITMAP
28
58
ENDCHAR
STARTCHAR quotedblright
ENCODING 8221
SWIDTH 337 0
DWIDTH 3 0
BBX 3 3 0 5
BITMAP
6C
58
54
ENDCHAR
STARTCHAR quotedblbase
ENCODING 8222
SWIDTH 326 0
DWIDTH 3 0
BBX 3 2 0 -1
BITMAP
68
94
ENDCHAR
STARTCHAR dagger
ENCODING 8224
SWIDTH 482 0
DWIDTH 5 0
BBX 5 7 0 0
BITMAP
0C00
0C00
BF40
0C00
0C00
0C00
0C00
ENDCHAR
STARTCHAR daggerdbl
ENCODING 8225
SWIDTH 500 0
DWIDTH 5 0
BBX 5 9 0 -2
BITMAP
0C00
0C00
BF80
0C00
0C00
0C00
BF80
0C00
0C00
ENDCHAR
STARTCHAR bullet
ENCODING 8226
SWIDTH 336 0
DWIDTH 3 0
BBX 3 2 0 3
BITMAP
74
78
ENDCHAR
STARTCHAR twodotenleader
ENCODING 8229
SWIDTH 420 0
DWIDTH 4 0
BBX 4 1 0 0
BITMAP
66
ENDCHAR
STARTCHAR ellipsis
ENCODING 8230
SWIDTH 590 0
DWIDTH 6 0
BBX 6 1 0 0
BITMAP
6690
ENDCHAR
STARTCHAR uni2027
ENCODING 8231
SWIDTH 181 0
DWIDTH 2 0
BBX 2 1 0 3
BITMAP
50
ENDCHAR
STARTCHAR perthousand
ENCODING 8240
SWIDTH 818 0
DWIDTH 8 0
BBX 8 7 0 0
BITMAP
7400
8840
7600
0500
09ED
1662
01ED
ENDCHAR
STARTCHAR minute
ENCODING 8242
SWIDTH 174 0
DWIDTH 2 0
BBX 2 2 0 6
BITMAP
50
50
ENDCHAR
STARTCHAR second
ENCODING 8243
SWIDTH 319 0
DWIDTH 3 0
BBX 3 3 0 5
BITMAP
58
58
58
ENDCHAR
STARTCHAR guilsinglleft
ENCODING 8249
SWIDTH 271 0
DWIDTH 3 0
BBX 2 4 0 1
BITMAP
20
60
60
20
ENDCHAR
STARTCHAR guilsinglright
ENCODING 8250
SWIDTH 271 0
DWIDTH 3 0
BBX 2 4 0 1
BITMAP
50
20
20
50
ENDCHAR
STARTCHAR exclamdbl
ENCODING 8252
SWIDTH 491 0
DWIDTH 5 0
BBX 4 7 0 0
BITMAP
62
62
62
62
22
00
22
ENDCHAR
STARTCHAR fraction
ENCODING 8260
SWIDTH 403 0
DWIDTH 4 0
BBX 4 5 0 1
BITMAP
01
08
14
20
40
ENDCHAR
STARTCHAR uni2074
ENCODING 8308
SWIDTH 329 0
DWIDTH 3 0
BBX 3 4 0 3
BITMAP
28
68
BC
08
ENDCHAR
STARTCHAR uni207F
ENCODING 8319
SWIDTH 374 0
DWIDTH 4 0
BBX 4 4 0 3
BITMAP
6C
59
59
59
ENDCHAR
STARTCHAR franc
ENCODING 8355
SWIDTH 480 0
DWIDTH 5 0
BBX 5 7 0 0
BITMAP
7F40
6000
6000
7F00
6000
F800
6000
ENDCHAR
STARTCHAR lira
ENCODING 8356
SWIDTH 510 0
DWIDTH 5 0
BBX 5 7 0 0
BITMAP
1F00
3580
3000
BD00
BD00
3000
BF80
ENDCHAR
STARTCHAR uni20A6
ENCODING 8358
SWIDTH 691 0
DWIDTH 7 0
BBX 7 7 0 0
BITMAP
3420
3820
BFF8
3220
BFF8
30E0
3060
ENDCHAR
STARTCHAR peseta
ENCODING 8359
SWIDTH 709 0
DWIDTH 7 0
BBX 7 7 0 0
BITMAP
7E00
6260
62F4
6260
7E60
6060
6034
ENDCHAR
STARTCHAR uni20A8
ENCODING 8360
SWIDTH 911 0
DWIDTH 9 0
BBX 9 7 0 0
BITMAP
7F4000
618000
619F40
7F6540
630B40
619180
60DF40
ENDCHAR
STARTCHAR uni20A9
ENCODING 8361
SWIDTH 634 0
DWIDTH 6 0
BBX 6 7 0 0
BITMAP
9630
5620
BFF0
2A50
BFF0
29C0
29C0
ENDCHAR
STARTCHAR uni20AA
ENCODING 8362
SWIDTH 669 0
DWIDTH 7 0
BBX 6 5 0 0
BITMAP
7F20
6260
6A60
6830
6BE0
ENDCHAR
STARTCHAR dong
ENCODING 8363
SWIDTH 510 0
DWIDTH 5 0
BBX 5 10 0 -2
BITMAP
0240
0BC0
0240
2F40
6240
9240
6240
2E40
0000
7F80
ENDCHAR
STARTCHAR Euro
ENCODING 8364
SWIDTH 493 0
DWIDTH 5 0
BBX 5 7 0 0
BITMAP
0B40
2400
BE00
2000
BE00
2400
1B40
ENDCHAR
STARTCHAR uni20B1
ENCODING 8369
SWIDTH 648 0
DWIDTH 6 0
BBX 7 7 0 0
BITMAP
3F40
30C0
BFF4
3050
BFE4
3F80
3000
ENDCHAR
STARTCHAR uni20B9
ENCODING 8377
SWIDTH 462 0
DWIDTH 5 0
BBX 5 7 0 0
BITMAP
BF40
0900
BF40
0900
B800
2000
0900
ENDCHAR
STARTCHAR uni20BA
ENCODING 8378
SWIDTH 500 0
DWIDTH 5 0
BBX 5 7 0 0
BITMAP
2000
2900
B400
6A80
B540
6740
2D00
ENDCHAR
STARTCHAR uni20BC
ENCODING 8380
SWIDTH 575 0
DWIDTH 6 0
BBX 6 5 0 0
BITMAP
0900
1F40
69C0
5990
9990
ENDCHAR
STARTCHAR uni20BD
ENCODING 8381
SWIDTH 583 0
DWIDTH 6 0
BBX 6 7 0 0
BITMAP
3F80
3090
3090
BF80
3000
BD00
3000
ENDCHAR
STARTCHAR uni2105
ENCODING 8453
SWIDTH 640 0
DWIDTH 6 0
BBX 6 7 0 0
BITMAP
3800
5480
3A00
0500
09E0
1660
01E0
ENDCHAR
STARTCHAR uni2113
ENCODING 8467
SWIDTH 422 0
DWIDTH 4 0
BBX 4 8 0 0
BITMAP
1D
26
26
29
2C
74
24
1C
ENDCHAR
STARTCHAR uni2116
ENCODING 8470
SWIDTH 886 0
DWIDTH 9 0
BBX 9 7 0 0
BITMAP
709E00
74A640
68A640
699E00
668000
629F00
618000
ENDCHAR
STARTCHAR trademark
ENCODING 8482
SWIDTH 547 0
DWIDTH 5 0
BBX 5 3 0 4
BITMAP
7880
1640
1540
ENDCHAR
STARTCHAR Omega
ENCODING 8486
SWIDTH 581 0
DWIDTH 6 0
BBX 5 7 0 0
BITMAP
1F40
71C0
6080
5080
6080
2080
7BC0
ENDCHAR
STARTCHAR estimated
ENCODING 8494
SWIDTH 636 0
DWIDTH 6 0
BBX 6 5 0 0
BITMAP
1B80
3050
7FE0
3000
1F80
ENDCHAR
STARTCHAR oneeighth
ENCODING 8539
SWIDTH 666 0
DWIDTH 7 0
BBX 6 7 0 0
BITMAP
2000
B040
2200
25E0
08A0
11A0
00E0
ENDCHAR
STARTCHAR threeeighths
ENCODING 8540
SWIDTH 736 0
DWIDTH 7 0
BBX 7 7 0 0
BITMAP
6800
2850
0880
7AB4
0564
08A8
0074
ENDCHAR
STARTCHAR fiveeighths
ENCODING 8541
SWIDTH 736 0
DWIDTH 7 0
BBX 7 7 0 0
BITMAP
7800
7840
0880
7A74
0564
08A8
0074
ENDCHAR
STARTCHAR seveneighths
ENCODING 8542
SWIDTH 692 0
DWIDTH 7 0
BBX 7 7 0 0
BITMAP
BC00
0880
1540
22B0
08A4
14A4
00B4
ENDCHAR
STARTCHAR partialdiff
ENCODING 8706
SWIDTH 497 0
DWIDTH 5 0
BBX 5 7 0 0
BITMAP
3D00
0200
2E40
6240
5140
6240
2E00
ENDCHAR
STARTCHAR Delta
ENCODING 8710
SWIDTH 614 0
DWIDTH 6 0
BBX 6 7 0 0
BITMAP
0600
0A00
1A40
2480
2080
6050
BFE0
ENDCHAR
STARTCHAR product
ENCODING 8719
SWIDTH 614 0
DWIDTH 6 0
BBX 6 8 0 -1
BITMAP
7FD0
6090
6090
6090
6090
6090
6090
6090
ENDCHAR
STARTCHAR summation
ENCODING 8721
SWIDTH 513 0
DWIDTH 5 0
BBX 5 8 0 -1
BITMAP
BF80
6000
1800
0900
0500
1800
6000
BFC0
ENDCHAR
STARTCHAR minus
ENCODING 8722
SWIDTH 499 0
DWIDTH 5 0
BBX 5 1 0 3
BITMAP
7F40
ENDCHAR
STARTCHAR radical
ENCODING 8730
SWIDTH 536 0
DWIDTH 5 0
BBX 5 7 0 0
BITMAP
00C0
0180
0240
B200
2600
1D00
0C00
ENDCHAR
STARTCHAR infinity
ENCODING 8734
SWIDTH 874 0
DWIDTH 9 0
BBX 9 5 0 0
BITMAP
2E2D00
62D300
91C240
62D300
2E2D00
ENDCHAR
STARTCHAR integral
ENCODING 8747
SWIDTH 235 0
DWIDTH 2 0
BBX 3 10 0 -2
BITMAP
28
20
60
60
60
60
60
60
60
D0
ENDCHAR
STARTCHAR approxequal
ENCODING 8776
SWIDTH 492 0
DWIDTH 5 0
BBX 5 4 0 1
BITMAP
7440
4B40
7440
4B40
ENDCHAR
STARTCHAR notequal
ENCODING 8800
SWIDTH 479 0
DWIDTH 5 0
BBX 4 5 0 1
BITMAP
02
7F
08
7F
20
ENDCHAR
STARTCHAR lessequal
ENCODING 8804
SWIDTH 445 0
DWIDTH 4 0
BBX 4 5 0 0
BITMAP
06
64
29
01
BE
ENDCHAR
STARTCHAR greaterequal
ENCODING 8805
SWIDTH 460 0
DWIDTH 5 0
BBX 4 5 0 0
BITMAP
64
06
19
50
7F
ENDCHAR
STARTCHAR lozenge
ENCODING 9674
SWIDTH 442 0
DWIDTH 4 0
BBX 4 7 0 0
BITMAP
18
29
62
92
62
29
18
ENDCHAR
STARTCHAR uniEE01
ENCODING 60929
SWIDTH 271 0
DWIDTH 3 0
BBX 1 5 1 1
BITMAP
80
00
00
00
80
ENDCHAR
STARTCHAR uniEE02
ENCODING 60930
SWIDTH 298 0
DWIDTH 3 0
BBX 3 2 0 3
BITMAP
58
58
ENDCHAR
STARTCHAR uniF6C3
ENCODING 63171
SWIDTH 235 0
DWIDTH 2 0
BBX 2 2 0 -1
BITMAP
60
50
ENDCHAR
STARTCHAR uniFB01
ENCODING 64257
SWIDTH 489 0
DWIDTH 5 0
BBX 4 8 0 0
BITMAP
1E
30
20
BA
22
22
22
22
ENDCHAR
STARTCHAR uniFB02
ENCODING 64258
SWIDTH 503 0
DWIDTH 5 0
BBX 5 8 0 0
BITMAP
1F40
3240
3240
BA40
3240
3240
3240
3240
ENDCHAR
STARTCHAR uniFB03
ENCODING 64259
SWIDTH 744 0
DWIDTH 7 0
BBX 7 8 0 0
BITMAP
1CB4
3180
3240
BFD8
3248
3248
3248
3248
ENDCHAR
STARTCHAR uniFB04
ENCODING 64260
SWIDTH 744 0
DWIDTH 7 0
BBX 7 8 0 0
BITMAP
1CF8
3158
3248
BFD8
3248
3248
3248
3248
ENDCHAR
STARTCHAR uniFEFF
ENCODING 65279
SWIDTH 0 0
DWIDTH 0 0
BBX 1 1 0 0
BITMAP
00
ENDCHAR
STARTCHAR uniFFFC
ENCODING 65532
SWIDTH 1024 0
DWIDTH 10 0
BBX 10 9 0 -2
BITMAP
B7BAB0
000000
800020
0EB440
96B560
0EB640
800020
000000
B7BAB0
ENDCHAR
STARTCHAR uniFFFD
ENCODING 65533
SWIDTH 1025 0
DWIDTH 10 0
BBX 9 10 1 -2
BITMAP
018000
07E000
1FF400
7D6D00
FF9F40
FE7F40
7FFD00
1E7400
07E000
018000
ENDCHAR
STARTCHAR .notdef
ENCODING -1
SWIDTH 392 0
DWIDTH 4 0
BBX 4 7 0 0
BITMAP
7D
41
41
51
41
41
7D
ENDCHAR
STARTCHAR glyph369
ENCODING -1
SWIDTH 364 0
DWIDTH 4 0
BBX 3 2 0 6
BITMAP
58
24
ENDCHAR
STARTCHAR uni2009.locl
ENCODING -1
SWIDTH 124 0
DWIDTH 1 0
BBX 1 1 0 0
BITMAP
00
ENDCHAR
STARTCHAR f_f.dlig
ENCODING -1
SWIDTH 546 0
DWIDTH 5 0
BBX 6 8 0 0
BITMAP
1DD0
3240
3240
BFC0
3240
3240
3240
3240
ENDCHAR
STARTCHAR longs_t.dlig
ENCODING -1
SWIDTH 544 0
DWIDTH 5 0
BBX 5 9 0 -1
BITMAP
1E00
3240
3240
B7C0
3240
3240
3240
31C0
1000
ENDCHAR
STARTCHAR s_t.dlig
ENCODING -1
SWIDTH 710 0
DWIDTH 7 0
BBX 7 8 0 0
BITMAP
02D0
0660
0630
2FB8
6230
1930
5330
2E28
ENDCHAR
STARTCHAR two.dnom
ENCODING -1
SWIDTH 329 0
DWIDTH 3 0
BBX 3 4 0 0
BITMAP
78
58
20
BC
ENDCHAR
STARTCHAR one.dnom
ENCODING -1
SWIDTH 329 0
DWIDTH 3 0
BBX 3 4 0 0
BITMAP
24
74
24
24
ENDCHAR
STARTCHAR zero.dnom
ENCODING -1
SWIDTH 329 0
DWIDTH 3 0
BBX 3 4 0 0
BITMAP
74
98
98
78
ENDCHAR
STARTCHAR nine.c2sc
ENCODING -1
SWIDTH 447 0
DWIDTH 4 0
BBX 4 6 0 0
BITMAP
2D
66
53
3E
06
28
ENDCHAR
STARTCHAR eight.c2sc
ENCODING -1
SWIDTH 447 0
DWIDTH 4 0
BBX 4 6 0 0
BITMAP
2D
66
3D
62
63
2D
ENDCHAR
STARTCHAR seven.c2sc
ENCODING -1
SWIDTH 447 0
DWIDTH 4 0
BBX 4 6 0 0
BITMAP
BF
02
05
08
18
20
ENDCHAR
STARTCHAR six.c2sc
ENCODING -1
SWIDTH 447 0
DWIDTH 4 0
BBX 4 6 0 0
BITMAP
1D
20
7E
63
63
2D
ENDCHAR
STARTCHAR five.c2sc
ENCODING -1
SWIDTH 447 0
DWIDTH 4 0
BBX 4 6 0 0
BITMAP
3F
20
7E
03
63
2D
ENDCHAR
STARTCHAR four.c2sc
ENCODING -1
SWIDTH 447 0
DWIDTH 4 0
BBX 5 6 0 0
BITMAP
0A00
1E00
2600
5600
BF40
0600
ENDCHAR
STARTCHAR three.c2sc
ENCODING -1
SWIDTH 447 0
DWIDTH 4 0
BBX 4 6 0 0
BITMAP
2D
56
1D
02
57
3D
ENDCHAR
STARTCHAR two.c2sc
ENCODING -1
SWIDTH 447 0
DWIDTH 4 0
BBX 4 6 0 0
BITMAP
2D
57
06
08
24
7F
ENDCHAR
STARTCHAR one.c2sc
ENCODING -1
SWIDTH 447 0
DWIDTH 4 0
BBX 3 6 0 0
BITMAP
18
6C
0C
0C
0C
0C
ENDCHAR
STARTCHAR zero.c2sc
ENCODING -1
SWIDTH 447 0
DWIDTH 4 0
BBX 4 6 0 0
BITMAP
2D
62
53
53
62
2D
ENDCHAR
STARTCHAR Z.c2sc
ENCODING -1
SWIDTH 454 0
DWIDTH 5 0
BBX 5 6 0 0
BITMAP
BF00
0600
0800
2400
6000
BF40
ENDCHAR
STARTCHAR Y.c2sc
ENCODING -1
SWIDTH 458 0
DWIDTH 5 0
BBX 5 6 0 0
BITMAP
9240
6200
2900
1C00
0800
0800
ENDCHAR
STARTCHAR X.c2sc
ENCODING -1
SWIDTH 478 0
DWIDTH 5 0
BBX 5 6 0 0
BITMAP
6240
3600
1D00
1D00
3600
6240
ENDCHAR
STARTCHAR W.c2sc
ENCODING -1
SWIDTH 655 0
DWIDTH 7 0
BBX 7 6 0 0
BITMAP
9624
5720
6A60
29A0
28D0
2490
ENDCHAR
STARTCHAR V.c2sc
ENCODING -1
SWIDTH 487 0
DWIDTH 5 0
BBX 5 6 0 0
BITMAP
9180
6240
2200
2600
1900
0C00
ENDCHAR
STARTCHAR U.c2sc
ENCODING -1
SWIDTH 488 0
DWIDTH 5 0
BBX 5 6 0 0
BITMAP
5240
5240
5240
5240
6240
2E00
ENDCHAR
STARTCHAR T.c2sc
ENCODING -1
SWIDTH 456 0
DWIDTH 5 0
BBX 5 6 0 0
BITMAP
BF40
0800
0800
0800
0800
0800
ENDCHAR
STARTCHAR S.c2sc
ENCODING -1
SWIDTH 453 0
DWIDTH 5 0
BBX 4 6 0 0
BITMAP
2D
62
78
07
93
2E
ENDCHAR
STARTCHAR R.c2sc
ENCODING -1
SWIDTH 465 0
DWIDTH 5 0
BBX 5 6 0 0
BITMAP
7E00
6240
6200
7E00
6600
6240
ENDCHAR
STARTCHAR Q.c2sc
ENCODING -1
SWIDTH 519 0
DWIDTH 5 0
BBX 5 7 0 -1
BITMAP
2E00
6240
9180
9180
6240
2F00
0140
ENDCHAR
STARTCHAR P.c2sc
ENCODING -1
SWIDTH 481 0
DWIDTH 5 0
BBX 5 6 0 0
BITMAP
7E00
6240
6240
7E00
6000
6000
ENDCHAR
STARTCHAR O.c2sc
ENCODING -1
SWIDTH 519 0
DWIDTH 5 0
BBX 5 6 0 0
BITMAP
2E00
6240
5180
5180
6240
2E00
ENDCHAR
STARTCHAR N.c2sc
ENCODING -1
SWIDTH 533 0
DWIDTH 5 0
BBX 5 6 0 0
BITMAP
6180
7580
6980
6580
6380
6180
ENDCHAR
STARTCHAR M.c2sc
ENCODING -1
SWIDTH 652 0
DWIDTH 7 0
BBX 6 6 0 0
BITMAP
7070
74A0
68A0
5960
6B30
6630
ENDCHAR
STARTCHAR L.c2sc
ENCODING -1
SWIDTH 411 0
DWIDTH 4 0
BBX 4 6 0 0
BITMAP
60
60
60
60
60
7F
ENDCHAR
STARTCHAR K.c2sc
ENCODING -1
SWIDTH 473 0
DWIDTH 5 0
BBX 5 6 0 0
BITMAP
6240
6900
6800
7900
6600
6240
ENDCHAR
STARTCHAR J.c2sc
ENCODING -1
SWIDTH 419 0
DWIDTH 4 0
BBX 4 6 0 0
BITMAP
06
06
06
06
56
7C
ENDCHAR
STARTCHAR I.c2sc
ENCODING -1
SWIDTH 221 0
DWIDTH 2 0
BBX 2 6 0 0
BITMAP
60
60
60
60
60
60
ENDCHAR
STARTCHAR H.c2sc
ENCODING -1
SWIDTH 533 0
DWIDTH 5 0
BBX 5 6 0 0
BITMAP
6180
6180
7F80
6180
6180
6180
ENDCHAR
STARTCHAR G.c2sc
ENCODING -1
SWIDTH 509 0
DWIDTH 5 0
BBX 5 6 0 0
BITMAP
2E00
6240
5000
5780
6180
2F40
ENDCHAR
STARTCHAR F.c2sc
ENCODING -1
SWIDTH 415 0
DWIDTH 4 0
BBX 4 6 0 0
BITMAP
7F
60
7E
60
60
60
ENDCHAR
STARTCHAR dollar.c2sc
ENCODING -1
SWIDTH 453 0
DWIDTH 5 0
BBX 4 8 0 -1
BITMAP
08
2E
62
78
07
52
2E
08
ENDCHAR
STARTCHAR sterling.c2sc
ENCODING -1
SWIDTH 467 0
DWIDTH 5 0
BBX 5 6 0 0
BITMAP
1E00
3300
2000
BD00
2000
7F40
ENDCHAR
STARTCHAR yen.c2sc
ENCODING -1
SWIDTH 400 0
DWIDTH 4 0
BBX 4 6 0 0
BITMAP
96
69
28
BD
BD
14
ENDCHAR
STARTCHAR Gamma.c2sc
ENCODING -1
SWIDTH 405 0
DWIDTH 4 0
BBX 4 6 0 0
BITMAP
7E
60
60
60
60
60
ENDCHAR
STARTCHAR Delta.c2sc
ENCODING -1
SWIDTH 487 0
DWIDTH 5 0
BBX 5 6 0 0
BITMAP
0C00
1900
2600
2200
5240
BF80
ENDCHAR
STARTCHAR Theta.c2sc
ENCODING -1
SWIDTH 519 0
DWIDTH 5 0
BBX 5 6 0 0
BITMAP
2E00
6240
6E80
5180
6240
2E00
ENDCHAR
STARTCHAR Lambda.c2sc
ENCODING -1
SWIDTH 487 0
DWIDTH 5 0
BBX 5 6 0 0
BITMAP
0C00
1900
2600
2200
6240
9180
ENDCHAR
STARTCHAR Xi.c2sc
ENCODING -1
SWIDTH 389 0
DWIDTH 4 0
BBX 4 6 0 0
BITMAP
BE
00
7D
00
00
BE
ENDCHAR
STARTCHAR Pi.c2sc
ENCODING -1
SWIDTH 525 0
DWIDTH 5 0
BBX 5 6 0 0
BITMAP
7F80
6180
6180
6180
6180
6180
ENDCHAR
STARTCHAR Sigma.c2sc
ENCODING -1
SWIDTH 435 0
DWIDTH 4 0
BBX 4 6 0 0
BITMAP
BF
60
24
24
60
BF
ENDCHAR
STARTCHAR Phi.c2sc
ENCODING -1
SWIDTH 587 0
DWIDTH 6 0
BBX 6 6 0 0
BITMAP
0500
2F80
6990
6990
2F80
0500
ENDCHAR
STARTCHAR Psi.c2sc
ENCODING -1
SWIDTH 560 0
DWIDTH 6 0
BBX 5 6 0 0
BITMAP
9980
9980
5980
6980
2F40
0900
ENDCHAR
STARTCHAR Omega.c2sc
ENCODING -1
SWIDTH 540 0
DWIDTH 5 0
BBX 5 6 0 0
BITMAP
2E00
6180
5080
5080
2140
7BC0
ENDCHAR
STARTCHAR uni0402.c2sc
ENCODING -1
SWIDTH 596 0
DWIDTH 6 0
BBX 6 6 0 0
BITMAP
BF00
1800
1F80
1850
1860
1980
ENDCHAR
STARTCHAR uni0404.c2sc
ENCODING -1
SWIDTH 490 0
DWIDTH 5 0
BBX 5 6 0 0
BITMAP
2E00
6240
7C00
5000
6240
2E00
ENDCHAR
STARTCHAR uni0409.c2sc
ENCODING -1
SWIDTH 782 0
DWIDTH 8 0
BBX 8 6 0 0
BITMAP
2F80
2180
21F8
3189
3189
91F8
ENDCHAR
STARTCHAR uni040A.c2sc
ENCODING -1
SWIDTH 788 0
DWIDTH 8 0
BBX 8 6 0 0
BITMAP
6180
6180
7FF8
6189
6189
61F8
ENDCHAR
STARTCHAR uni040B.c2sc
ENCODING -1
SWIDTH 596 0
DWIDTH 6 0
BBX 6 6 0 0
BITMAP
BF00
1800
1F80
1850
1860
1860
ENDCHAR
STARTCHAR uni040F.c2sc
ENCODING -1
SWIDTH 524 0
DWIDTH 5 0
BBX 5 8 0 -2
BITMAP
6180
6180
6180
6180
6180
7F80
0800
0800
ENDCHAR
STARTCHAR uni0411.c2sc
ENCODING -1
SWIDTH 479 0
DWIDTH 5 0
BBX 5 6 0 0
BITMAP
7F00
6000
7E00
6240
6240
7E00
ENDCHAR
STARTCHAR uni0414.c2sc
ENCODING -1
SWIDTH 563 0
DWIDTH 6 0
BBX 6 8 0 -2
BITMAP
2F80
2480
2480
2080
2080
BFD0
8090
8090
ENDCHAR
STARTCHAR uni0416.c2sc
ENCODING -1
SWIDTH 651 0
DWIDTH 7 0
BBX 6 6 0 0
BITMAP
6660
2690
1FC0
2690
3660
9630
ENDCHAR
STARTCHAR uni0417.c2sc
ENCODING -1
SWIDTH 466 0
DWIDTH 5 0
BBX 4 6 0 0
BITMAP
3E
53
1D
03
53
7D
ENDCHAR
STARTCHAR uni0418.c2sc
ENCODING -1
SWIDTH 537 0
DWIDTH 5 0
BBX 5 6 0 0
BITMAP
6180
6380
6680
6880
7480
6080
ENDCHAR
STARTCHAR uni041A.c2sc
ENCODING -1
SWIDTH 473 0
DWIDTH 5 0
BBX 5 6 0 0
BITMAP
6200
6900
7800
6C00
6600
6340
ENDCHAR
STARTCHAR uni041B.c2sc
ENCODING -1
SWIDTH 521 0
DWIDTH 5 0
BBX 5 6 0 0
BITMAP
2F80
2180
2180
3180
3180
9180
ENDCHAR
STARTCHAR uni0423.c2sc
ENCODING -1
SWIDTH 454 0
DWIDTH 5 0
BBX 5 6 0 0
BITMAP
9240
6200
2500
1C00
1800
3400
ENDCHAR
STARTCHAR uni0426.c2sc
ENCODING -1
SWIDTH 564 0
DWIDTH 6 0
BBX 6 8 0 -2
BITMAP
6180
6180
6180
6180
6180
7FD0
0050
0050
ENDCHAR
STARTCHAR uni0427.c2sc
ENCODING -1
SWIDTH 487 0
DWIDTH 5 0
BBX 5 6 0 0
BITMAP
9240
9240
9240
3F40
0240
0240
ENDCHAR
STARTCHAR uni0428.c2sc
ENCODING -1
SWIDTH 691 0
DWIDTH 7 0
BBX 7 6 0 0
BITMAP
6324
6324
6324
6324
6324
7FF4
ENDCHAR
STARTCHAR uni0429.c2sc
ENCODING -1
SWIDTH 731 0
DWIDTH 7 0
BBX 7 8 0 -2
BITMAP
6324
6324
6324
6324
6324
7FFC
0008
0008
ENDCHAR
STARTCHAR uni042A.c2sc
ENCODING -1
SWIDTH 559 0
DWIDTH 6 0
BBX 5 6 0 0
BITMAP
F400
2400
2F80
24C0
24C0
2F80
ENDCHAR
STARTCHAR uni042B.c2sc
ENCODING -1
SWIDTH 658 0
DWIDTH 7 0
BBX 6 6 0 0
BITMAP
6030
6030
7E30
6270
6270
7E30
ENDCHAR
STARTCHAR uni042C.c2sc
ENCODING -1
SWIDTH 475 0
DWIDTH 5 0
BBX 5 6 0 0
BITMAP
6000
6000
7E00
6240
6240
7E00
ENDCHAR
STARTCHAR uni042D.c2sc
ENCODING -1
SWIDTH 491 0
DWIDTH 5 0
BBX 5 6 0 0
BITMAP
2E00
9240
0F40
0140
5240
2E00
ENDCHAR
STARTCHAR uni042E.c2sc
ENCODING -1
SWIDTH 705 0
DWIDTH 7 0
BBX 7 6 0 0
BITMAP
62E0
6A24
7D18
6918
6624
62E0
ENDCHAR
STARTCHAR uni042F.c2sc
ENCODING -1
SWIDTH 499 0
DWIDTH 5 0
BBX 5 6 0 0
BITMAP
2F40
6240
6240
2F40
2240
6240
ENDCHAR
STARTCHAR uni0492.c2sc
ENCODING -1
SWIDTH 444 0
DWIDTH 4 0
BBX 5 6 0 0
BITMAP
3F40
3000
3000
F800
3000
3000
ENDCHAR
STARTCHAR uni0496.c2sc
ENCODING -1
SWIDTH 676 0
DWIDTH 7 0
BBX 7 8 0 -2
BITMAP
6660
2690
1FC0
2690
3660
9638
0018
0004
ENDCHAR
STARTCHAR uni049A.c2sc
ENCODING -1
SWIDTH 492 0
DWIDTH 5 0
BBX 5 8 0 -2
BITMAP
6200
6900
7800
6C00
6600
6380
0080
0080
ENDCHAR
STARTCHAR uni049C.c2sc
ENCODING -1
SWIDTH 562 0
DWIDTH 6 0
BBX 5 6 0 0
BITMAP
6180
6A00
7E00
6B00
6180
60C0
ENDCHAR
STARTCHAR uni04A0.c2sc
ENCODING -1
SWIDTH 571 0
DWIDTH 6 0
BBX 6 6 0 0
BITMAP
B480
1640
1E00
1700
1580
14D0
ENDCHAR
STARTCHAR uni04A8.c2sc
ENCODING -1
SWIDTH 625 0
DWIDTH 6 0
BBX 6 6 0 0
BITMAP
27C0
6950
5960
5560
6690
1FD0
ENDCHAR
STARTCHAR uni04B0.c2sc
ENCODING -1
SWIDTH 480 0
DWIDTH 5 0
BBX 5 6 0 0
BITMAP
9240
6200
2900
3E00
0800
0800
ENDCHAR
STARTCHAR uni04B2.c2sc
ENCODING -1
SWIDTH 514 0
DWIDTH 5 0
BBX 5 8 0 -2
BITMAP
6240
3600
1D00
1D00
3600
62C0
0080
0080
ENDCHAR
STARTCHAR uni04B4.c2sc
ENCODING -1
SWIDTH 695 0
DWIDTH 7 0
BBX 7 8 0 -2
BITMAP
BF60
1860
1860
1860
1860
1FF4
0014
0014
ENDCHAR
STARTCHAR uni04B8.c2sc
ENCODING -1
SWIDTH 487 0
DWIDTH 5 0
BBX 5 6 0 0
BITMAP
9240
9240
9A40
3F40
0A40
0240
ENDCHAR
STARTCHAR uni04BA.c2sc
ENCODING -1
SWIDTH 487 0
DWIDTH 5 0
BBX 5 6 0 0
BITMAP
6000
6000
7E00
6240
6180
6180
ENDCHAR
STARTCHAR uni04BC.c2sc
ENCODING -1
SWIDTH 632 0
DWIDTH 6 0
BBX 6 6 0 0
BITMAP
0780
0860
9420
7FF0
1800
0BC0
ENDCHAR
STARTCHAR uni04D8.c2sc
ENCODING -1
SWIDTH 527 0
DWIDTH 5 0
BBX 5 6 0 0
BITMAP
2E00
0280
0080
BF80
6180
2E00
ENDCHAR
STARTCHAR uni04E0.c2sc
ENCODING -1
SWIDTH 466 0
DWIDTH 5 0
BBX 4 6 0 0
BITMAP
7F
09
1D
03
53
2D
ENDCHAR
STARTCHAR uni04E8.c2sc
ENCODING -1
SWIDTH 519 0
DWIDTH 5 0
BBX 5 6 0 0
BITMAP
2E00
6140
7F80
5180
6240
2E00
ENDCHAR
STARTCHAR lira.c2sc
ENCODING -1
SWIDTH 467 0
DWIDTH 5 0
BBX 5 6 0 0
BITMAP
2E00
3000
BD00
2000
BD00
7F40
ENDCHAR
STARTCHAR Euro.c2sc
ENCODING -1
SWIDTH 433 0
DWIDTH 4 0
BBX 4 6 0 0
BITMAP
1E
34
BE
30
BE
2E
ENDCHAR
STARTCHAR uni2116.c2sc
ENCODING -1
SWIDTH 884 0
DWIDTH 9 0
BBX 9 6 0 0
BITMAP
619E00
75A640
69A640
659E00
638000
619F00
ENDCHAR
STARTCHAR uni20BD.c2sc
ENCODING -1
SWIDTH 512 0
DWIDTH 5 0
BBX 5 6 0 0
BITMAP
3F40
3180
BF40
3000
BC00
3000
ENDCHAR
STARTCHAR three.dnom
ENCODING -1
SWIDTH 329 0
DWIDTH 3 0
BBX 3 4 0 0
BITMAP
78
28
08
74
ENDCHAR
STARTCHAR four.dnom
ENCODING -1
SWIDTH 329 0
DWIDTH 3 0
BBX 3 4 0 0
BITMAP
28
68
BC
08
ENDCHAR
STARTCHAR five.dnom
ENCODING -1
SWIDTH 329 0
DWIDTH 3 0
BBX 3 4 0 0
BITMAP
78
78
08
78
ENDCHAR
STARTCHAR six.dnom
ENCODING -1
SWIDTH 329 0
DWIDTH 3 0
BBX 3 4 0 0
BITMAP
24
78
98
78
ENDCHAR
STARTCHAR seven.dnom
ENCODING -1
SWIDTH 329 0
DWIDTH 3 0
BBX 3 4 0 0
BITMAP
BC
08
20
20
ENDCHAR
STARTCHAR eight.dnom
ENCODING -1
SWIDTH 329 0
DWIDTH 3 0
BBX 3 4 0 0
BITMAP
78
68
68
78
ENDCHAR
STARTCHAR nine.dnom
ENCODING -1
SWIDTH 329 0
DWIDTH 3 0
BBX 3 4 0 0
BITMAP
74
A8
18
34
ENDCHAR
STARTCHAR glyph550
ENCODING -1
SWIDTH 404 0
DWIDTH 4 0
BBX 4 1 0 3
BITMAP
7D
ENDCHAR
STARTCHAR glyph551
ENCODING -1
SWIDTH 306 0
DWIDTH 3 0
BBX 2 4 1 5
BITMAP
50
80
C0
C0
ENDCHAR
STARTCHAR E.c2sc
ENCODING -1
SWIDTH 428 0
DWIDTH 4 0
BBX 4 6 0 0
BITMAP
7F
60
7E
60
60
7F
ENDCHAR
STARTCHAR g.ss01
ENCODING -1
SWIDTH 463 0
DWIDTH 5 0
BBX 5 7 0 -2
BITMAP
7F40
A300
3E00
6000
7E00
9240
7E00
ENDCHAR
STARTCHAR alpha.ss02
ENCODING -1
SWIDTH 523 0
DWIDTH 5 0
BBX 5 5 0 0
BITMAP
2E80
6240
5240
6240
2E80
ENDCHAR
STARTCHAR R.ss03
ENCODING -1
SWIDTH 577 0
DWIDTH 6 0
BBX 5 7 0 0
BITMAP
7F40
60C0
6080
7F40
61C0
60C0
6080
ENDCHAR
STARTCHAR K.ss04
ENCODING -1
SWIDTH 560 0
DWIDTH 6 0
BBX 6 7 0 0
BITMAP
60C0
6240
6600
7D00
6600
6280
60D0
ENDCHAR
STARTCHAR k.ss04
ENCODING -1
SWIDTH 453 0
DWIDTH 5 0
BBX 4 8 0 0
BITMAP
60
60
60
63
69
7C
69
62
ENDCHAR
STARTCHAR K.ss05
ENCODING -1
SWIDTH 572 0
DWIDTH 6 0
BBX 5 7 0 0
BITMAP
6180
6300
6900
7800
6900
6240
60C0
ENDCHAR
STARTCHAR k.ss05
ENCODING -1
SWIDTH 454 0
DWIDTH 5 0
BBX 4 8 0 0
BITMAP
60
60
60
66
6C
74
69
62
ENDCHAR
STARTCHAR D.c2sc
ENCODING -1
SWIDTH 492 0
DWIDTH 5 0
BBX 5 6 0 0
BITMAP
7D00
6200
6140
6140
6240
7D00
ENDCHAR
STARTCHAR C.c2sc
ENCODING -1
SWIDTH 490 0
DWIDTH 5 0
BBX 5 6 0 0
BITMAP
2E00
6240
5000
5000
6240
2E00
ENDCHAR
STARTCHAR B.c2sc
ENCODING -1
SWIDTH 475 0
DWIDTH 5 0
BBX 5 6 0 0
BITMAP
7E00
6300
7E00
6200
6240
7E00
ENDCHAR
STARTCHAR A.c2sc
ENCODING -1
SWIDTH 501 0
DWIDTH 5 0
BBX 5 6 0 0
BITMAP
0C00
1D00
2600
3300
7F40
9180
ENDCHAR
STARTCHAR glyph564
ENCODING -1
SWIDTH 236 0
DWIDTH 2 0
BBX 2 2 0 6
BITMAP
20
60
ENDCHAR
STARTCHAR glyph565
ENCODING -1
SWIDTH 402 0
DWIDTH 4 0
BBX 3 4 0 6
BITMAP
20
10
58
38
ENDCHAR
STARTCHAR glyph566
ENCODING -1
SWIDTH 0 0
DWIDTH 0 0
BBX 3 2 -4 6
BITMAP
14
64
ENDCHAR
STARTCHAR glyph567
ENCODING -1
SWIDTH 455 0
DWIDTH 5 0
BBX 4 3 1 6
BITMAP
06
A5
94
ENDCHAR
STARTCHAR glyph568
ENCODING -1
SWIDTH 454 0
DWIDTH 5 0
BBX 5 3 -1 6
BITMAP
5000
2A00
1A40
ENDCHAR
STARTCHAR glyph569
ENCODING -1
SWIDTH 446 0
DWIDTH 4 0
BBX 5 4 0 6
BITMAP
0200
0140
2A00
6500
ENDCHAR
STARTCHAR glyph570
ENCODING -1
SWIDTH 453 0
DWIDTH 5 0
BBX 4 4 0 6
BITMAP
24
18
28
65
ENDCHAR
STARTCHAR uni0490.c2sc
ENCODING -1
SWIDTH 405 0
DWIDTH 4 0
BBX 4 8 0 0
BITMAP
01
02
7E
60
60
60
60
60
ENDCHAR
STARTCHAR glyph572
ENCODING -1
SWIDTH 404 0
DWIDTH 4 0
BBX 3 4 0 6
BITMAP
08
14
58
38
ENDCHAR
STARTCHAR glyph573
ENCODING -1
SWIDTH 404 0
DWIDTH 4 0
BBX 3 5 0 6
BITMAP
14
18
14
58
38
ENDCHAR
STARTCHAR zero.numr
ENCODING -1
SWIDTH 329 0
DWIDTH 3 0
BBX 3 4 0 3
BITMAP
74
98
98
78
ENDCHAR
STARTCHAR four.numr
ENCODING -1
SWIDTH 329 0
DWIDTH 3 0
BBX 3 4 0 3
BITMAP
28
68
BC
08
ENDCHAR
STARTCHAR five.numr
ENCODING -1
SWIDTH 329 0
DWIDTH 3 0
BBX 3 4 0 3
BITMAP
78
78
08
78
ENDCHAR
STARTCHAR six.numr
ENCODING -1
SWIDTH 329 0
DWIDTH 3 0
BBX 3 4 0 3
BITMAP
24
78
98
78
ENDCHAR
STARTCHAR seven.numr
ENCODING -1
SWIDTH 329 0
DWIDTH 3 0
BBX 3 4 0 3
BITMAP
BC
08
20
20
ENDCHAR
STARTCHAR eight.numr
ENCODING -1
SWIDTH 329 0
DWIDTH 3 0
BBX 3 4 0 3
BITMAP
78
68
68
78
ENDCHAR
STARTCHAR nine.numr
ENCODING -1
SWIDTH 329 0
DWIDTH 3 0
BBX 3 4 0 3
BITMAP
74
A8
18
34
ENDCHAR
STARTCHAR C.ss06
ENCODING -1
SWIDTH 603 0
DWIDTH 6 0
BBX 6 7 0 0
BITMAP
1F80
3490
6010
6000
6010
3490
1F80
ENDCHAR
STARTCHAR G.ss06
ENCODING -1
SWIDTH 618 0
DWIDTH 6 0
BBX 6 7 0 0
BITMAP
1F80
3490
6000
6000
62E0
3460
1B90
ENDCHAR
STARTCHAR D.ss06
ENCODING -1
SWIDTH 608 0
DWIDTH 6 0
BBX 6 7 0 0
BITMAP
7E40
61C0
6090
6050
6090
61C0
7E40
ENDCHAR
STARTCHAR O.ss06
ENCODING -1
SWIDTH 643 0
DWIDTH 6 0
BBX 6 7 0 0
BITMAP
1B80
3490
6060
6020
6060
3490
1F80
ENDCHAR
STARTCHAR Q.ss06
ENCODING -1
SWIDTH 644 0
DWIDTH 6 0
BBX 6 8 0 -1
BITMAP
1B80
3490
6060
6020
6060
3490
1F80
0090
ENDCHAR
STARTCHAR one.oldstyle.pnum
ENCODING -1
SWIDTH 421 0
DWIDTH 4 0
BBX 3 6 0 0
BITMAP
18
6C
08
08
08
08
ENDCHAR
STARTCHAR two.oldstyle.pnum
ENCODING -1
SWIDTH 492 0
DWIDTH 5 0
BBX 5 6 0 0
BITMAP
2E00
6200
0200
0900
2400
7F40
ENDCHAR
STARTCHAR three.oldstyle.pnum
ENCODING -1
SWIDTH 474 0
DWIDTH 5 0
BBX 4 8 0 -2
BITMAP
BF
06
08
1D
03
02
47
7D
ENDCHAR
STARTCHAR four.oldstyle.pnum
ENCODING -1
SWIDTH 524 0
DWIDTH 5 0
BBX 5 8 0 -2
BITMAP
0300
0B00
0A00
2200
2200
BFC0
0200
0200
ENDCHAR
STARTCHAR five.oldstyle.pnum
ENCODING -1
SWIDTH 483 0
DWIDTH 5 0
BBX 5 8 0 -2
BITMAP
3F40
2000
6000
7E00
1240
0240
0300
7D00
ENDCHAR
STARTCHAR seven.oldstyle.pnum
ENCODING -1
SWIDTH 458 0
DWIDTH 5 0
BBX 5 8 0 -2
BITMAP
BF40
0200
0600
0900
0800
1800
2400
2000
ENDCHAR
STARTCHAR glyph592
ENCODING -1
SWIDTH 402 0
DWIDTH 4 0
BBX 3 5 0 6
BITMAP
24
58
00
58
38
ENDCHAR
STARTCHAR glyph593
ENCODING -1
SWIDTH 183 0
DWIDTH 2 0
BBX 2 3 0 -2
BITMAP
90
90
90
ENDCHAR
STARTCHAR OE.c2sc
ENCODING -1
SWIDTH 714 0
DWIDTH 7 0
BBX 7 6 0 0
BITMAP
2FF8
6240
52F4
5240
6240
2FFC
ENDCHAR
STARTCHAR nine.oldstyle.pnum
ENCODING -1
SWIDTH 520 0
DWIDTH 5 0
BBX 5 8 0 -2
BITMAP
2E00
2240
6180
6180
2F80
0140
0340
2D00
ENDCHAR
STARTCHAR glyph596
ENCODING -1
SWIDTH 234 0
DWIDTH 2 0
BBX 2 3 0 -2
BITMAP
60
60
D0
ENDCHAR
STARTCHAR three.oldstyle
ENCODING -1
SWIDTH 494 0
DWIDTH 5 0
BBX 5 8 0 -2
BITMAP
7F40
0200
0800
1E00
0240
0240
4300
7D00
ENDCHAR
STARTCHAR five.oldstyle
ENCODING -1
SWIDTH 494 0
DWIDTH 5 0
BBX 5 8 0 -2
BITMAP
3F40
2000
2000
7E00
1240
0240
0240
2E00
ENDCHAR
STARTCHAR four.oldstyle
ENCODING -1
SWIDTH 494 0
DWIDTH 5 0
BBX 5 8 0 -2
BITMAP
0300
0B00
1A00
2200
6200
BFC0
0200
0200
ENDCHAR
STARTCHAR two.oldstyle
ENCODING -1
SWIDTH 494 0
DWIDTH 5 0
BBX 5 6 0 0
BITMAP
2E00
6300
0200
0900
2400
7F40
ENDCHAR
STARTCHAR seven.oldstyle
ENCODING -1
SWIDTH 494 0
DWIDTH 5 0
BBX 5 8 0 -2
BITMAP
7F40
0200
0200
0500
0800
0800
1400
2000
ENDCHAR
STARTCHAR zero.oldstyle
ENCODING -1
SWIDTH 494 0
DWIDTH 5 0
BBX 5 6 0 0
BITMAP
2E00
6240
9180
9180
6240
2E00
ENDCHAR
STARTCHAR six.oldstyle
ENCODING -1
SWIDTH 494 0
DWIDTH 5 0
BBX 5 7 0 0
BITMAP
1A00
3400
6E00
6240
6140
6240
2E00
ENDCHAR
STARTCHAR nine.oldstyle
ENCODING -1
SWIDTH 494 0
DWIDTH 5 0
BBX 5 8 0 -2
BITMAP
2E00
6240
5140
6240
2F40
0240
0700
3D00
ENDCHAR
STARTCHAR eight.oldstyle
ENCODING -1
SWIDTH 494 0
DWIDTH 5 0
BBX 5 7 0 0
BITMAP
2E00
6200
2200
2E00
6240
6240
2E00
ENDCHAR
STARTCHAR one.oldstyle
ENCODING -1
SWIDTH 494 0
DWIDTH 5 0
BBX 3 6 1 0
BITMAP
64
A4
14
14
14
14
ENDCHAR
STARTCHAR glyph607
ENCODING -1
SWIDTH 237 0
DWIDTH 2 0
BBX 2 7 0 -2
BITMAP
60
60
60
60
60
60
D0
ENDCHAR
STARTCHAR glyph608
ENCODING -1
SWIDTH 238 0
DWIDTH 2 0
BBX 2 7 0 -2
BITMAP
60
60
60
60
60
60
D0
ENDCHAR
STARTCHAR glyph609
ENCODING -1
SWIDTH 235 0
DWIDTH 2 0
BBX 2 5 0 0
BITMAP
60
60
60
60
60
ENDCHAR
STARTCHAR glyph610
ENCODING -1
SWIDTH 235 0
DWIDTH 2 0
BBX 2 7 0 -2
BITMAP
60
60
60
60
60
80
90
ENDCHAR
STARTCHAR glyph611
ENCODING -1
SWIDTH 235 0
DWIDTH 2 0
BBX 2 5 0 0
BITMAP
60
60
60
60
60
ENDCHAR
STARTCHAR germandbls.sc
ENCODING -1
SWIDTH 475 0
DWIDTH 5 0
BBX 5 6 0 0
BITMAP
2D00
6600
6900
6E00
6240
6E00
ENDCHAR
STARTCHAR zero.oldstyle.pnum
ENCODING -1
SWIDTH 545 0
DWIDTH 5 0
BBX 5 6 0 0
BITMAP
1E00
2180
5080
5080
2180
1E00
ENDCHAR
STARTCHAR seven.pnum
ENCODING -1
SWIDTH 458 0
DWIDTH 5 0
BBX 4 7 0 0
BITMAP
BF
02
05
08
08
14
20
ENDCHAR
STARTCHAR b.ss06
ENCODING -1
SWIDTH 493 0
DWIDTH 5 0
BBX 5 8 0 0
BITMAP
6000
6000
6000
6E00
6240
6180
6240
6E00
ENDCHAR
STARTCHAR c.ss06
ENCODING -1
SWIDTH 460 0
DWIDTH 5 0
BBX 4 5 0 0
BITMAP
2E
62
90
61
2E
ENDCHAR
STARTCHAR d.ss06
ENCODING -1
SWIDTH 503 0
DWIDTH 5 0
BBX 5 8 0 0
BITMAP
0240
0240
0240
2F40
6240
5240
6240
2E40
ENDCHAR
STARTCHAR g.ss06
ENCODING -1
SWIDTH 500 0
DWIDTH 5 0
BBX 5 7 0 -2
BITMAP
2E40
6240
5240
6240
2F40
0240
2E00
ENDCHAR
STARTCHAR o.ss06
ENCODING -1
SWIDTH 508 0
DWIDTH 5 0
BBX 5 5 0 0
BITMAP
2E00
6240
5180
6240
2E00
ENDCHAR
STARTCHAR p.ss06
ENCODING -1
SWIDTH 500 0
DWIDTH 5 0
BBX 5 7 0 -2
BITMAP
6E00
6240
6180
6240
7E00
6000
6000
ENDCHAR
STARTCHAR q.ss06
ENCODING -1
SWIDTH 508 0
DWIDTH 5 0
BBX 5 7 0 -2
BITMAP
2E40
6240
9240
6240
2F40
0240
0240
ENDCHAR
STARTCHAR e.ss07
ENCODING -1
SWIDTH 468 0
DWIDTH 5 0
BBX 5 5 0 0
BITMAP
2E00
6200
7F40
6100
2E00
ENDCHAR
STARTCHAR g.ss07
ENCODING -1
SWIDTH 492 0
DWIDTH 5 0
BBX 5 7 0 -2
BITMAP
2E40
6240
9240
6240
2F40
0200
2E00
ENDCHAR
STARTCHAR one.pnum
ENCODING -1
SWIDTH 382 0
DWIDTH 4 0
BBX 3 7 0 0
BITMAP
18
68
08
08
08
08
08
ENDCHAR
STARTCHAR ampersand.c2sc
ENCODING -1
SWIDTH 526 0
DWIDTH 5 0
BBX 5 6 0 0
BITMAP
2D00
2500
2800
2980
6740
3E80
ENDCHAR
STARTCHAR Lslash.c2sc
ENCODING -1
SWIDTH 411 0
DWIDTH 4 0
BBX 4 6 0 0
BITMAP
60
60
74
A0
60
7F
ENDCHAR
STARTCHAR AE.c2sc
ENCODING -1
SWIDTH 676 0
DWIDTH 7 0
BBX 7 6 0 0
BITMAP
07F0
0A00
1AF0
2600
7F40
92F4
ENDCHAR
STARTCHAR Thorn.c2sc
ENCODING -1
SWIDTH 440 0
DWIDTH 4 0
BBX 4 6 0 0
BITMAP
60
7D
63
63
7D
60
ENDCHAR
STARTCHAR Oslash.c2sc
ENCODING -1
SWIDTH 519 0
DWIDTH 5 0
BBX 5 6 0 0
BITMAP
2F40
6340
5580
5980
7640
3E00
ENDCHAR
STARTCHAR Hbar.c2sc
ENCODING -1
SWIDTH 533 0
DWIDTH 5 0
BBX 5 6 0 0
BITMAP
6180
BFC0
6180
7F80
6180
6180
ENDCHAR
STARTCHAR Eng.c2sc
ENCODING -1
SWIDTH 533 0
DWIDTH 5 0
BBX 5 8 0 -2
BITMAP
6180
7580
6980
6580
6280
6180
0180
0340
ENDCHAR
STARTCHAR Dcroat.c2sc
ENCODING -1
SWIDTH 492 0
DWIDTH 5 0
BBX 6 6 -1 0
BITMAP
1F40
1880
7D50
1850
1890
1F40
ENDCHAR
STARTCHAR Eth.c2sc
ENCODING -1
SWIDTH 492 0
DWIDTH 5 0
BBX 6 6 -1 0
BITMAP
1F40
1880
7D50
1850
1890
1F40
ENDCHAR
STARTCHAR Tbar.c2sc
ENCODING -1
SWIDTH 456 0
DWIDTH 5 0
BBX 5 6 0 0
BITMAP
BF40
0800
3E00
0800
0800
0800
ENDCHAR
STARTCHAR Agrave.c2sc
ENCODING -1
SWIDTH 501 0
DWIDTH 5 0
BBX 5 9 0 0
BITMAP
2400
0800
0000
0C00
1D00
2600
3300
7F40
9180
ENDCHAR
STARTCHAR Aacute.c2sc
ENCODING -1
SWIDTH 501 0
DWIDTH 5 0
BBX 5 9 0 0
BITMAP
0600
0800
0000
0C00
1D00
2600
3300
7F40
9180
ENDCHAR
STARTCHAR Acircumflex.c2sc
ENCODING -1
SWIDTH 501 0
DWIDTH 5 0
BBX 5 9 0 0
BITMAP
0C00
2600
0000
0C00
1D00
2600
3300
7F40
9180
ENDCHAR
STARTCHAR Atilde.c2sc
ENCODING -1
SWIDTH 501 0
DWIDTH 5 0
BBX 5 9 0 0
BITMAP
2A00
2600
0000
0C00
1D00
2600
3300
7F40
9180
ENDCHAR
STARTCHAR Adieresis.c2sc
ENCODING -1
SWIDTH 501 0
DWIDTH 5 0
BBX 5 8 0 0
BITMAP
2200
0000
0C00
1D00
2600
3300
7F40
9180
ENDCHAR
STARTCHAR Aring.c2sc
ENCODING -1
SWIDTH 501 0
DWIDTH 5 0
BBX 5 9 0 0
BITMAP
1900
1900
0000
0C00
1D00
2600
3300
7F40
9180
ENDCHAR
STARTCHAR Aringacute.c2sc
ENCODING -1
SWIDTH 501 0
DWIDTH 5 0
BBX 5 9 0 0
BITMAP
0600
0400
0C00
0D00
1D00
2600
3300
7F40
9180
ENDCHAR
STARTCHAR Ccedilla.c2sc
ENCODING -1
SWIDTH 490 0
DWIDTH 5 0
BBX 5 8 0 -2
BITMAP
2E00
6240
5000
5000
6240
2E00
0400
0D00
ENDCHAR
STARTCHAR Egrave.c2sc
ENCODING -1
SWIDTH 428 0
DWIDTH 4 0
BBX 4 9 0 0
BITMAP
34
18
00
7F
60
7E
60
60
7F
ENDCHAR
STARTCHAR Eacute.c2sc
ENCODING -1
SWIDTH 428 0
DWIDTH 4 0
BBX 4 9 0 0
BITMAP
0A
08
00
7F
60
7E
60
60
7F
ENDCHAR
STARTCHAR Ecircumflex.c2sc
ENCODING -1
SWIDTH 428 0
DWIDTH 4 0
BBX 4 9 0 0
BITMAP
1C
25
00
7F
60
7E
60
60
7F
ENDCHAR
STARTCHAR Edieresis.c2sc
ENCODING -1
SWIDTH 428 0
DWIDTH 4 0
BBX 4 8 0 0
BITMAP
22
00
7F
60
7E
60
60
7F
ENDCHAR
STARTCHAR Igrave.c2sc
ENCODING -1
SWIDTH 221 0
DWIDTH 2 0
BBX 2 9 0 0
BITMAP
C0
50
00
60
60
60
60
60
60
ENDCHAR
STARTCHAR Iacute.c2sc
ENCODING -1
SWIDTH 221 0
DWIDTH 2 0
BBX 3 9 0 0
BITMAP
24
60
00
60
60
60
60
60
60
ENDCHAR
STARTCHAR Icircumflex.c2sc
ENCODING -1
SWIDTH 221 0
DWIDTH 2 0
BBX 3 9 0 0
BITMAP
60
A4
00
60
60
60
60
60
60
ENDCHAR
STARTCHAR Idieresis.c2sc
ENCODING -1
SWIDTH 221 0
DWIDTH 2 0
BBX 4 8 -1 0
BITMAP
56
00
18
18
18
18
18
18
ENDCHAR
STARTCHAR Ntilde.c2sc
ENCODING -1
SWIDTH 533 0
DWIDTH 5 0
BBX 5 9 0 0
BITMAP
1A00
2600
0000
6180
7580
6980
6580
6380
6180
ENDCHAR
STARTCHAR Ograve.c2sc
ENCODING -1
SWIDTH 519 0
DWIDTH 5 0
BBX 5 9 0 0
BITMAP
2800
0800
0000
2E00
6240
5180
5180
6240
2E00
ENDCHAR
STARTCHAR Oacute.c2sc
ENCODING -1
SWIDTH 519 0
DWIDTH 5 0
BBX 5 9 0 0
BITMAP
0600
0900
0000
2E00
6240
5180
5180
6240
2E00
ENDCHAR
STARTCHAR Ocircumflex.c2sc
ENCODING -1
SWIDTH 519 0
DWIDTH 5 0
BBX 5 9 0 0
BITMAP
0D00
1600
0000
2E00
6240
5180
5180
6240
2E00
ENDCHAR
STARTCHAR Otilde.c2sc
ENCODING -1
SWIDTH 519 0
DWIDTH 5 0
BBX 5 9 0 0
BITMAP
2A00
2600
0000
2E00
6240
5180
5180
6240
2E00
ENDCHAR
STARTCHAR Odieresis.c2sc
ENCODING -1
SWIDTH 519 0
DWIDTH 5 0
BBX 5 8 0 0
BITMAP
2200
0000
2E00
6240
5180
5180
6240
2E00
ENDCHAR
STARTCHAR Ugrave.c2sc
ENCODING -1
SWIDTH 488 0
DWIDTH 5 0
BBX 5 9 0 0
BITMAP
2400
0800
0000
5240
5240
5240
5240
6240
2E00
ENDCHAR
STARTCHAR Uacute.c2sc
ENCODING -1
SWIDTH 488 0
DWIDTH 5 0
BBX 5 9 0 0
BITMAP
0600
0800
0000
5240
5240
5240
5240
6240
2E00
ENDCHAR
STARTCHAR Ucircumflex.c2sc
ENCODING -1
SWIDTH 488 0
DWIDTH 5 0
BBX 5 9 0 0
BITMAP
1C00
2500
0000
5240
5240
5240
5240
6240
2E00
ENDCHAR
STARTCHAR Udieresis.c2sc
ENCODING -1
SWIDTH 488 0
DWIDTH 5 0
BBX 5 8 0 0
BITMAP
2200
0000
5240
5240
5240
5240
6240
2E00
ENDCHAR
STARTCHAR Yacute.c2sc
ENCODING -1
SWIDTH 458 0
DWIDTH 5 0
BBX 5 9 0 0
BITMAP
0A00
0800
0000
9240
6200
2900
1C00
0800
0800
ENDCHAR
STARTCHAR Amacron.c2sc
ENCODING -1
SWIDTH 501 0
DWIDTH 5 0
BBX 5 8 0 0
BITMAP
3F00
0000
0C00
1D00
2600
3300
7F40
9180
ENDCHAR
STARTCHAR Abreve.c2sc
ENCODING -1
SWIDTH 501 0
DWIDTH 5 0
BBX 5 7 0 0
BITMAP
2200
1E00
1D00
2600
3300
7F40
9180
ENDCHAR
STARTCHAR Aogonek.c2sc
ENCODING -1
SWIDTH 501 0
DWIDTH 5 0
BBX 5 8 0 -2
BITMAP
0C00
1D00
2600
3300
7F40
9180
0140
0280
ENDCHAR
STARTCHAR Cacute.c2sc
ENCODING -1
SWIDTH 490 0
DWIDTH 5 0
BBX 5 9 0 0
BITMAP
0600
0800
0000
2E00
6240
5000
5000
6240
2E00
ENDCHAR
STARTCHAR Ccircumflex.c2sc
ENCODING -1
SWIDTH 490 0
DWIDTH 5 0
BBX 5 9 0 0
BITMAP
0C00
2600
0000
2E00
6240
5000
5000
6240
2E00
ENDCHAR
STARTCHAR Cdotaccent.c2sc
ENCODING -1
SWIDTH 490 0
DWIDTH 5 0
BBX 5 8 0 0
BITMAP
0800
0000
2E00
6240
5000
5000
6240
2E00
ENDCHAR
STARTCHAR Ccaron.c2sc
ENCODING -1
SWIDTH 490 0
DWIDTH 5 0
BBX 5 9 0 0
BITMAP
2600
0C00
0000
2E00
6240
5000
5000
6240
2E00
ENDCHAR
STARTCHAR Dcaron.c2sc
ENCODING -1
SWIDTH 492 0
DWIDTH 5 0
BBX 5 9 0 0
BITMAP
2900
1800
0000
7D00
6200
6140
6140
6240
7D00
ENDCHAR
STARTCHAR Emacron.c2sc
ENCODING -1
SWIDTH 428 0
DWIDTH 4 0
BBX 4 8 0 0
BITMAP
3E
00
7F
60
7E
60
60
7F
ENDCHAR
STARTCHAR Ebreve.c2sc
ENCODING -1
SWIDTH 428 0
DWIDTH 4 0
BBX 4 7 0 0
BITMAP
22
7F
60
7E
60
60
7F
ENDCHAR
STARTCHAR Edotaccent.c2sc
ENCODING -1
SWIDTH 428 0
DWIDTH 4 0
BBX 4 8 0 0
BITMAP
08
00
7F
60
7E
60
60
7F
ENDCHAR
STARTCHAR Eogonek.c2sc
ENCODING -1
SWIDTH 428 0
DWIDTH 4 0
BBX 4 8 0 -2
BITMAP
7F
60
7E
60
60
7F
05
0A
ENDCHAR
STARTCHAR Ecaron.c2sc
ENCODING -1
SWIDTH 428 0
DWIDTH 4 0
BBX 4 9 0 0
BITMAP
25
18
00
7F
60
7E
60
60
7F
ENDCHAR
STARTCHAR Gcircumflex.c2sc
ENCODING -1
SWIDTH 509 0
DWIDTH 5 0
BBX 5 9 0 0
BITMAP
0C00
2600
0000
2E00
6240
5000
5780
6180
2F40
ENDCHAR
STARTCHAR Gbreve.c2sc
ENCODING -1
SWIDTH 509 0
DWIDTH 5 0
BBX 5 7 0 0
BITMAP
2200
3F00
6240
5000
5780
6180
2F40
ENDCHAR
STARTCHAR Gdotaccent.c2sc
ENCODING -1
SWIDTH 509 0
DWIDTH 5 0
BBX 5 8 0 0
BITMAP
0800
0000
2E00
6240
5000
5780
6180
2F40
ENDCHAR
STARTCHAR uni0122.c2sc
ENCODING -1
SWIDTH 509 0
DWIDTH 5 0
BBX 5 9 0 -3
BITMAP
2E00
6240
5000
5780
6180
2F40
0000
0800
0800
ENDCHAR
STARTCHAR Hcircumflex.c2sc
ENCODING -1
SWIDTH 533 0
DWIDTH 5 0
BBX 5 9 0 0
BITMAP
0D00
1600
0000
6180
6180
7F80
6180
6180
6180
ENDCHAR
STARTCHAR Itilde.c2sc
ENCODING -1
SWIDTH 221 0
DWIDTH 2 0
BBX 4 9 -1 0
BITMAP
36
59
00
18
18
18
18
18
18
ENDCHAR
STARTCHAR Imacron.c2sc
ENCODING -1
SWIDTH 221 0
DWIDTH 2 0
BBX 4 8 -1 0
BITMAP
7E
00
18
18
18
18
18
18
ENDCHAR
STARTCHAR Ibreve.c2sc
ENCODING -1
SWIDTH 221 0
DWIDTH 2 0
BBX 4 7 -1 0
BITMAP
66
3C
18
18
18
18
18
ENDCHAR
STARTCHAR Iogonek.c2sc
ENCODING -1
SWIDTH 221 0
DWIDTH 2 0
BBX 2 8 0 -2
BITMAP
60
60
60
60
60
60
80
A0
ENDCHAR
STARTCHAR Idotaccent.c2sc
ENCODING -1
SWIDTH 221 0
DWIDTH 2 0
BBX 2 8 0 0
BITMAP
60
00
60
60
60
60
60
60
ENDCHAR
STARTCHAR Jcircumflex.c2sc
ENCODING -1
SWIDTH 419 0
DWIDTH 4 0
BBX 4 9 0 0
BITMAP
0A
0A
00
06
06
06
06
56
7C
ENDCHAR
STARTCHAR uni0136.c2sc
ENCODING -1
SWIDTH 473 0
DWIDTH 5 0
BBX 5 9 0 -3
BITMAP
6240
6900
6800
7900
6600
6240
0000
0800
1400
ENDCHAR
STARTCHAR Lacute.c2sc
ENCODING -1
SWIDTH 411 0
DWIDTH 4 0
BBX 4 9 0 0
BITMAP
24
60
00
60
60
60
60
60
7F
ENDCHAR
STARTCHAR uni013B.c2sc
ENCODING -1
SWIDTH 411 0
DWIDTH 4 0
BBX 4 9 0 -3
BITMAP
60
60
60
60
60
7F
00
18
14
ENDCHAR
STARTCHAR Lcaron.c2sc
ENCODING -1
SWIDTH 411 0
DWIDTH 4 0
BBX 4 6 0 0
BITMAP
68
68
60
60
60
7F
ENDCHAR
STARTCHAR Ldot.c2sc
ENCODING -1
SWIDTH 411 0
DWIDTH 4 0
BBX 4 6 0 0
BITMAP
60
60
68
60
60
7F
ENDCHAR
STARTCHAR Nacute.c2sc
ENCODING -1
SWIDTH 533 0
DWIDTH 5 0
BBX 5 9 0 0
BITMAP
0700
0900
0000
6180
7580
6980
6580
6380
6180
ENDCHAR
STARTCHAR uni0145.c2sc
ENCODING -1
SWIDTH 533 0
DWIDTH 5 0
BBX 5 9 0 -3
BITMAP
6180
7580
6980
6580
6380
6180
0000
0800
0800
ENDCHAR
STARTCHAR Ncaron.c2sc
ENCODING -1
SWIDTH 533 0
DWIDTH 5 0
BBX 5 9 0 0
BITMAP
1600
0D00
0000
6180
7580
6980
6580
6380
6180
ENDCHAR
STARTCHAR Omacron.c2sc
ENCODING -1
SWIDTH 519 0
DWIDTH 5 0
BBX 5 8 0 0
BITMAP
2F00
0000
2E00
6240
5180
5180
6240
2E00
ENDCHAR
STARTCHAR Obreve.c2sc
ENCODING -1
SWIDTH 519 0
DWIDTH 5 0
BBX 5 7 0 0
BITMAP
2200
3F00
6240
5180
5180
6240
2E00
ENDCHAR
STARTCHAR Ohungarumlaut.c2sc
ENCODING -1
SWIDTH 519 0
DWIDTH 5 0
BBX 5 9 0 0
BITMAP
0A40
1A00
0000
2E00
6240
5180
5180
6240
2E00
ENDCHAR
STARTCHAR Racute.c2sc
ENCODING -1
SWIDTH 465 0
DWIDTH 5 0
BBX 5 9 0 0
BITMAP
0900
0800
0000
7E00
6240
6200
7E00
6600
6240
ENDCHAR
STARTCHAR uni0156.c2sc
ENCODING -1
SWIDTH 465 0
DWIDTH 5 0
BBX 5 9 0 -3
BITMAP
7E00
6240
6200
7E00
6600
6240
0000
1800
1400
ENDCHAR
STARTCHAR Rcaron.c2sc
ENCODING -1
SWIDTH 465 0
DWIDTH 5 0
BBX 5 9 0 0
BITMAP
2500
1800
0000
7E00
6240
6200
7E00
6600
6240
ENDCHAR
STARTCHAR Sacute.c2sc
ENCODING -1
SWIDTH 453 0
DWIDTH 5 0
BBX 4 9 0 0
BITMAP
0A
08
00
2D
62
78
07
93
2E
ENDCHAR
STARTCHAR Scircumflex.c2sc
ENCODING -1
SWIDTH 453 0
DWIDTH 5 0
BBX 4 9 0 0
BITMAP
1C
25
00
2D
62
78
07
93
2E
ENDCHAR
STARTCHAR Scedilla.c2sc
ENCODING -1
SWIDTH 453 0
DWIDTH 5 0
BBX 4 8 0 -2
BITMAP
2D
62
78
07
93
2E
04
0C
ENDCHAR
STARTCHAR Scaron.c2sc
ENCODING -1
SWIDTH 453 0
DWIDTH 5 0
BBX 4 9 0 0
BITMAP
25
18
00
2D
62
78
07
93
2E
ENDCHAR
STARTCHAR uni021A.c2sc
ENCODING -1
SWIDTH 456 0
DWIDTH 5 0
BBX 5 9 0 -3
BITMAP
BF40
0800
0800
0800
0800
0800
0000
0800
1400
ENDCHAR
STARTCHAR Tcaron.c2sc
ENCODING -1
SWIDTH 456 0
DWIDTH 5 0
BBX 5 9 0 0
BITMAP
2500
1800
0000
BF40
0800
0800
0800
0800
0800
ENDCHAR
STARTCHAR uni0162.c2sc
ENCODING -1
SWIDTH 456 0
DWIDTH 5 0
BBX 5 8 0 -2
BITMAP
BF40
0800
0800
0800
0800
0800
0400
0C00
ENDCHAR
STARTCHAR Utilde.c2sc
ENCODING -1
SWIDTH 488 0
DWIDTH 5 0
BBX 5 9 0 0
BITMAP
2600
2A00
0000
5240
5240
5240
5240
6240
2E00
ENDCHAR
STARTCHAR Umacron.c2sc
ENCODING -1
SWIDTH 488 0
DWIDTH 5 0
BBX 5 8 0 0
BITMAP
3F00
0000
5240
5240
5240
5240
6240
2E00
ENDCHAR
STARTCHAR Ubreve.c2sc
ENCODING -1
SWIDTH 488 0
DWIDTH 5 0
BBX 5 7 0 0
BITMAP
2200
7F40
5240
5240
5240
6240
2E00
ENDCHAR
STARTCHAR Uring.c2sc
ENCODING -1
SWIDTH 488 0
DWIDTH 5 0
BBX 5 9 0 0
BITMAP
1900
1900
0000
5240
5240
5240
5240
6240
2E00
ENDCHAR
STARTCHAR Uhungarumlaut.c2sc
ENCODING -1
SWIDTH 488 0
DWIDTH 5 0
BBX 5 9 0 0
BITMAP
1A00
1600
0000
5240
5240
5240
5240
6240
2E00
ENDCHAR
STARTCHAR Uogonek.c2sc
ENCODING -1
SWIDTH 488 0
DWIDTH 5 0
BBX 5 8 0 -2
BITMAP
5240
5240
5240
5240
6240
2E00
0800
0900
ENDCHAR
STARTCHAR Wcircumflex.c2sc
ENCODING -1
SWIDTH 655 0
DWIDTH 7 0
BBX 7 9 0 0
BITMAP
0700
0940
0000
9624
5720
6A60
29A0
28D0
2490
ENDCHAR
STARTCHAR Ycircumflex.c2sc
ENCODING -1
SWIDTH 458 0
DWIDTH 5 0
BBX 5 9 0 0
BITMAP
1800
2500
0000
9240
6200
2900
1C00
0800
0800
ENDCHAR
STARTCHAR Ydieresis.c2sc
ENCODING -1
SWIDTH 458 0
DWIDTH 5 0
BBX 5 8 0 0
BITMAP
6200
0000
9240
6200
2900
1C00
0800
0800
ENDCHAR
STARTCHAR Zacute.c2sc
ENCODING -1
SWIDTH 454 0
DWIDTH 5 0
BBX 5 9 0 0
BITMAP
0A00
0800
0000
BF00
0600
0800
2400
6000
BF40
ENDCHAR
STARTCHAR Zdotaccent.c2sc
ENCODING -1
SWIDTH 454 0
DWIDTH 5 0
BBX 5 8 0 0
BITMAP
0800
0000
BF00
0600
0800
2400
6000
BF40
ENDCHAR
STARTCHAR Zcaron.c2sc
ENCODING -1
SWIDTH 454 0
DWIDTH 5 0
BBX 5 9 0 0
BITMAP
2500
1800
0000
BF00
0600
0800
2400
6000
BF40
ENDCHAR
STARTCHAR two.pnum
ENCODING -1
SWIDTH 493 0
DWIDTH 5 0
BBX 5 7 0 0
BITMAP
2E00
6240
0200
0600
1800
2000
7F80
ENDCHAR
STARTCHAR three.pnum
ENCODING -1
SWIDTH 493 0
DWIDTH 5 0
BBX 5 7 0 0
BITMAP
2E00
6200
0200
1E00
0240
6240
2E00
ENDCHAR
STARTCHAR four.pnum
ENCODING -1
SWIDTH 493 0
DWIDTH 5 0
BBX 5 7 0 0
BITMAP
0700
0B00
1700
2300
5300
BF80
0300
ENDCHAR
STARTCHAR five.pnum
ENCODING -1
SWIDTH 493 0
DWIDTH 5 0
BBX 5 7 0 0
BITMAP
2F40
2000
3E00
1240
0140
6240
2E00
ENDCHAR
STARTCHAR six.pnum
ENCODING -1
SWIDTH 503 0
DWIDTH 5 0
BBX 5 7 0 0
BITMAP
1A00
2400
2E00
7240
6140
3240
1E00
ENDCHAR
STARTCHAR eight.pnum
ENCODING -1
SWIDTH 513 0
DWIDTH 5 0
BBX 5 7 0 0
BITMAP
2E00
3240
2200
2E00
6240
6240
2E00
ENDCHAR
STARTCHAR nine.pnum
ENCODING -1
SWIDTH 503 0
DWIDTH 5 0
BBX 5 7 0 0
BITMAP
2D00
6300
5240
6240
2E40
0700
2900
ENDCHAR
STARTCHAR zero.pnum
ENCODING -1
SWIDTH 513 0
DWIDTH 5 0
BBX 5 7 0 0
BITMAP
2E00
2240
6140
6140
6140
2240
2E00
ENDCHAR
STARTCHAR G_acutecomb.ccmp
ENCODING -1
SWIDTH 590 0
DWIDTH 6 0
BBX 6 10 0 0
BITMAP
0300
0500
0000
1F40
30C0
6040
6000
63D0
3090
1F80
ENDCHAR
STARTCHAR g_acutecomb.ccmp
ENCODING -1
SWIDTH 492 0
DWIDTH 5 0
BBX 5 10 0 -2
BITMAP
0A00
0800
0000
2E40
6240
9240
6240
2F40
0240
2E00
ENDCHAR
STARTCHAR N_gravecomb.ccmp
ENCODING -1
SWIDTH 619 0
DWIDTH 6 0
BBX 6 10 0 0
BITMAP
0C00
0500
0000
7050
7450
6850
6650
6290
61D0
6090
ENDCHAR
STARTCHAR n_gravecomb.ccmp
ENCODING -1
SWIDTH 483 0
DWIDTH 5 0
BBX 5 8 0 0
BITMAP
2400
0800
0000
6E00
6200
6240
6240
6240
ENDCHAR
STARTCHAR A_uni030F.ccmp
ENCODING -1
SWIDTH 576 0
DWIDTH 6 0
BBX 6 10 0 0
BITMAP
3900
1A00
0000
0900
0A00
1600
2140
3F80
6080
9090
ENDCHAR
STARTCHAR a_uni030F.ccmp
ENCODING -1
SWIDTH 479 0
DWIDTH 5 0
BBX 5 8 0 0
BITMAP
6800
2900
0000
2E00
1300
2F00
6200
3F40
ENDCHAR
STARTCHAR E_uni030F.ccmp
ENCODING -1
SWIDTH 496 0
DWIDTH 5 0
BBX 5 10 0 0
BITMAP
6800
2900
0000
7F80
6000
6000
7F40
6000
6000
7F80
ENDCHAR
STARTCHAR e_uni030F.ccmp
ENCODING -1
SWIDTH 468 0
DWIDTH 5 0
BBX 5 8 0 0
BITMAP
A800
2800
0000
2E00
6200
BF40
6000
2E00
ENDCHAR
STARTCHAR I_uni030F.ccmp
ENCODING -1
SWIDTH 250 0
DWIDTH 3 0
BBX 3 10 -1 0
BITMAP
A8
28
00
18
18
18
18
18
18
18
ENDCHAR
STARTCHAR dotlessi_uni030F.ccmp
ENCODING -1
SWIDTH 234 0
DWIDTH 2 0
BBX 3 8 -1 0
BITMAP
A8
28
00
18
18
18
18
18
ENDCHAR
STARTCHAR O_uni030F.ccmp
ENCODING -1
SWIDTH 600 0
DWIDTH 6 0
BBX 6 10 0 0
BITMAP
2900
1A00
0000
1F40
30C0
6090
6090
6090
30C0
1F40
ENDCHAR
STARTCHAR o_uni030F.ccmp
ENCODING -1
SWIDTH 501 0
DWIDTH 5 0
BBX 5 8 0 0
BITMAP
6800
2900
0000
2E00
6240
9180
6240
2E00
ENDCHAR
STARTCHAR R_uni030F.ccmp
ENCODING -1
SWIDTH 530 0
DWIDTH 5 0
BBX 5 10 0 0
BITMAP
6800
2900
0000
7F40
6180
6180
7F40
6300
6180
60C0
ENDCHAR
STARTCHAR r_uni030F.ccmp
ENCODING -1
SWIDTH 304 0
DWIDTH 3 0
BBX 4 8 -1 0
BITMAP
68
29
00
1A
18
18
18
18
ENDCHAR
STARTCHAR U_uni030F.ccmp
ENCODING -1
SWIDTH 561 0
DWIDTH 6 0
BBX 5 10 0 0
BITMAP
2800
1A00
0000
60C0
60C0
60C0
60C0
60C0
61C0
2F40
ENDCHAR
STARTCHAR u_uni030F.ccmp
ENCODING -1
SWIDTH 483 0
DWIDTH 5 0
BBX 5 8 0 0
BITMAP
A800
2800
0000
5240
5240
5240
6240
3F40
ENDCHAR
STARTCHAR Upsilon1_acutecomb.ccmp
ENCODING -1
SWIDTH 514 0
DWIDTH 5 0
BBX 6 8 -1 0
BITMAP
8000
5830
0990
06C0
0380
0240
0240
0240
ENDCHAR
STARTCHAR B_dotbelowcomb.ccmp
ENCODING -1
SWIDTH 545 0
DWIDTH 5 0
BBX 5 9 0 -2
BITMAP
7F40
6180
6180
7F40
6180
6180
7F40
0000
0800
ENDCHAR
STARTCHAR b_dotbelowcomb.ccmp
ENCODING -1
SWIDTH 493 0
DWIDTH 5 0
BBX 5 10 0 -2
BITMAP
6000
6000
6000
6E00
6240
6140
6240
6E00
0000
0800
ENDCHAR
STARTCHAR D_dotbelowcomb.ccmp
ENCODING -1
SWIDTH 570 0
DWIDTH 6 0
BBX 5 9 0 -2
BITMAP
7E00
6180
60C0
6080
60C0
6180
7E00
0000
0800
ENDCHAR
STARTCHAR d_dotbelowcomb.ccmp
ENCODING -1
SWIDTH 496 0
DWIDTH 5 0
BBX 5 10 0 -2
BITMAP
0240
0240
0240
2F40
6240
9240
6240
2E40
0000
0800
ENDCHAR
STARTCHAR D_uniF6C3.ccmp
ENCODING -1
SWIDTH 570 0
DWIDTH 6 0
BBX 5 10 0 -3
BITMAP
7E00
6180
60C0
6080
60C0
6180
7E00
0000
0800
0800
ENDCHAR
STARTCHAR d_uniF6C3.ccmp
ENCODING -1
SWIDTH 496 0
DWIDTH 5 0
BBX 5 11 0 -3
BITMAP
0240
0240
0240
2F40
6240
9240
6240
2E40
0000
0800
0800
ENDCHAR
STARTCHAR H_dotbelowcomb.ccmp
ENCODING -1
SWIDTH 620 0
DWIDTH 6 0
BBX 6 9 0 -2
BITMAP
6050
6050
6050
7FD0
6050
6050
6050
0000
0500
ENDCHAR
STARTCHAR h_dotbelowcomb.ccmp
ENCODING -1
SWIDTH 482 0
DWIDTH 5 0
BBX 5 10 0 -2
BITMAP
6000
6000
6000
6E00
6200
6240
6240
6240
0000
0800
ENDCHAR
STARTCHAR K_acutecomb.ccmp
ENCODING -1
SWIDTH 544 0
DWIDTH 5 0
BBX 5 10 0 0
BITMAP
0600
0800
0000
6180
6200
6900
7D00
6600
6240
60C0
ENDCHAR
STARTCHAR k_acutecomb.ccmp
ENCODING -1
SWIDTH 450 0
DWIDTH 5 0
BBX 4 11 0 0
BITMAP
0A
08
00
60
60
60
66
6C
78
65
62
ENDCHAR
STARTCHAR K_dotbelowcomb.ccmp
ENCODING -1
SWIDTH 544 0
DWIDTH 5 0
BBX 5 9 0 -2
BITMAP
6180
6200
6900
7D00
6600
6240
60C0
0000
0900
ENDCHAR
STARTCHAR k_dotbelowcomb.ccmp
ENCODING -1
SWIDTH 450 0
DWIDTH 5 0
BBX 4 10 0 -2
BITMAP
60
60
60
66
6C
78
65
62
00
18
ENDCHAR
STARTCHAR L_dotbelowcomb.ccmp
ENCODING -1
SWIDTH 475 0
DWIDTH 5 0
BBX 5 9 0 -2
BITMAP
6000
6000
6000
6000
6000
6000
7F40
0000
0800
ENDCHAR
STARTCHAR l_dotbelowcomb.ccmp
ENCODING -1
SWIDTH 229 0
DWIDTH 2 0
BBX 2 10 0 -2
BITMAP
60
60
60
60
60
60
60
60
00
60
ENDCHAR
STARTCHAR M_dotbelowcomb.ccmp
ENCODING -1
SWIDTH 755 0
DWIDTH 8 0
BBX 7 9 0 -2
BITMAP
7028
7428
6868
6898
6588
6288
6248
0000
0200
ENDCHAR
STARTCHAR m_dotbelowcomb.ccmp
ENCODING -1
SWIDTH 752 0
DWIDTH 8 0
BBX 7 7 0 -2
BITMAP
6EB4
624C
624C
624C
624C
0000
0200
ENDCHAR
STARTCHAR N_dotbelowcomb.ccmp
ENCODING -1
SWIDTH 619 0
DWIDTH 6 0
BBX 6 9 0 -2
BITMAP
7050
7450
6850
6650
6290
61D0
6090
0000
0500
ENDCHAR
STARTCHAR n_dotbelowcomb.ccmp
ENCODING -1
SWIDTH 483 0
DWIDTH 5 0
BBX 5 7 0 -2
BITMAP
6E00
6200
6240
6240
6240
0000
0800
ENDCHAR
STARTCHAR O_tildecomb_acutecomb.ccmp
ENCODING -1
SWIDTH 600 0
DWIDTH 6 0
BBX 6 10 0 0
BITMAP
0200
0A00
0000
1F40
30C0
6090
6090
6090
30C0
1F40
ENDCHAR
STARTCHAR P_acutecomb.ccmp
ENCODING -1
SWIDTH 554 0
DWIDTH 6 0
BBX 5 10 0 0
BITMAP
0600
0900
0000
7F40
60C0
60C0
7F40
6000
6000
6000
ENDCHAR
STARTCHAR p_acutecomb.ccmp
ENCODING -1
SWIDTH 493 0
DWIDTH 5 0
BBX 5 10 0 -2
BITMAP
0700
0900
0000
6E00
6240
6140
6240
6E00
6000
6000
ENDCHAR
STARTCHAR R_dotbelowcomb.ccmp
ENCODING -1
SWIDTH 530 0
DWIDTH 5 0
BBX 5 9 0 -2
BITMAP
7F40
6180
6180
7F40
6300
6180
60C0
0000
0800
ENDCHAR
STARTCHAR r_dotbelowcomb.ccmp
ENCODING -1
SWIDTH 304 0
DWIDTH 3 0
BBX 3 7 0 -2
BITMAP
68
60
60
60
60
00
60
ENDCHAR
STARTCHAR S_dotbelowcomb.ccmp
ENCODING -1
SWIDTH 518 0
DWIDTH 5 0
BBX 5 9 0 -2
BITMAP
2E00
6180
6040
1A00
4180
6180
2F40
0000
0800
ENDCHAR
STARTCHAR s_dotbelowcomb.ccmp
ENCODING -1
SWIDTH 455 0
DWIDTH 5 0
BBX 4 7 0 -2
BITMAP
2E
65
1E
53
2E
00
08
ENDCHAR
STARTCHAR T_dotbelowcomb.ccmp
ENCODING -1
SWIDTH 520 0
DWIDTH 5 0
BBX 5 9 0 -2
BITMAP
BFC0
0C00
0C00
0C00
0C00
0C00
0C00
0000
0800
ENDCHAR
STARTCHAR t_dotbelowcomb.ccmp
ENCODING -1
SWIDTH 295 0
DWIDTH 3 0
BBX 3 8 0 -2
BITMAP
20
F8
20
20
20
28
00
14
ENDCHAR
STARTCHAR U_tildecomb_acutecomb.ccmp
ENCODING -1
SWIDTH 561 0
DWIDTH 6 0
BBX 5 10 0 0
BITMAP
0500
1A00
0000
60C0
60C0
60C0
60C0
60C0
61C0
2F40
ENDCHAR
STARTCHAR V_tildecomb.ccmp
ENCODING -1
SWIDTH 560 0
DWIDTH 6 0
BBX 6 10 0 0
BITMAP
1940
2700
0000
9090
60C0
3180
2640
1600
0E00
0900
ENDCHAR
STARTCHAR v_tildecomb.ccmp
ENCODING -1
SWIDTH 427 0
DWIDTH 4 0
BBX 4 8 0 0
BITMAP
36
59
00
93
66
29
28
18
ENDCHAR
STARTCHAR V_dotbelowcomb.ccmp
ENCODING -1
SWIDTH 560 0
DWIDTH 6 0
BBX 6 9 0 -2
BITMAP
9090
60C0
3180
2640
1600
0E00
0900
0000
0900
ENDCHAR
STARTCHAR v_dotbelowcomb.ccmp
ENCODING -1
SWIDTH 427 0
DWIDTH 4 0
BBX 4 7 0 -2
BITMAP
93
66
29
28
18
00
18
ENDCHAR
STARTCHAR W_dotbelowcomb.ccmp
ENCODING -1
SWIDTH 761 0
DWIDTH 8 0
BBX 8 9 0 -2
BITMAP
9249
6288
2288
2598
2864
2C74
1830
0000
0240
ENDCHAR
STARTCHAR w_dotbelowcomb.ccmp
ENCODING -1
SWIDTH 649 0
DWIDTH 7 0
BBX 6 7 0 -2
BITMAP
9620
5B20
2960
29D0
24C0
0000
0600
ENDCHAR
STARTCHAR Z_dotbelowcomb.ccmp
ENCODING -1
SWIDTH 522 0
DWIDTH 5 0
BBX 5 9 0 -2
BITMAP
BF80
0240
0600
0800
2400
6000
BF80
0000
0800
ENDCHAR
STARTCHAR z_dotbelowcomb.ccmp
ENCODING -1
SWIDTH 438 0
DWIDTH 4 0
BBX 4 7 0 -2
BITMAP
BF
09
18
20
BF
00
18
ENDCHAR
STARTCHAR Alphatonos.c2sc
ENCODING -1
SWIDTH 501 0
DWIDTH 5 0
BBX 5 7 0 0
BITMAP
6000
5C00
1D00
2600
3300
7F40
9180
ENDCHAR
STARTCHAR Epsilontonos.c2sc
ENCODING -1
SWIDTH 458 0
DWIDTH 5 0
BBX 6 7 -1 0
BITMAP
9000
4FD0
0800
0FC0
0800
0800
0FD0
ENDCHAR
STARTCHAR Etatonos.c2sc
ENCODING -1
SWIDTH 562 0
DWIDTH 6 0
BBX 6 7 -1 0
BITMAP
5000
5830
0830
0FF0
0830
0830
0830
ENDCHAR
STARTCHAR Iotatonos.c2sc
ENCODING -1
SWIDTH 250 0
DWIDTH 3 0
BBX 3 7 -1 0
BITMAP
50
4C
0C
0C
0C
0C
0C
ENDCHAR
STARTCHAR Omicrontonos.c2sc
ENCODING -1
SWIDTH 523 0
DWIDTH 5 0
BBX 5 7 0 0
BITMAP
8000
6E00
6280
5080
5080
6180
2E00
ENDCHAR
STARTCHAR Upsilontonos.c2sc
ENCODING -1
SWIDTH 487 0
DWIDTH 5 0
BBX 6 7 -1 0
BITMAP
8000
9860
0C80
0680
0340
0300
0300
ENDCHAR
STARTCHAR Omegatonos.c2sc
ENCODING -1
SWIDTH 545 0
DWIDTH 5 0
BBX 5 7 0 0
BITMAP
8000
6E00
6180
50C0
6080
2140
7BC0
ENDCHAR
STARTCHAR Alpha.c2sc
ENCODING -1
SWIDTH 501 0
DWIDTH 5 0
BBX 5 6 0 0
BITMAP
0C00
1D00
2600
3300
7F40
9180
ENDCHAR
STARTCHAR Beta.c2sc
ENCODING -1
SWIDTH 475 0
DWIDTH 5 0
BBX 5 6 0 0
BITMAP
7E00
6300
7E00
6200
6240
7E00
ENDCHAR
STARTCHAR Epsilon.c2sc
ENCODING -1
SWIDTH 428 0
DWIDTH 4 0
BBX 4 6 0 0
BITMAP
7F
60
7E
60
60
7F
ENDCHAR
STARTCHAR Zeta.c2sc
ENCODING -1
SWIDTH 454 0
DWIDTH 5 0
BBX 5 6 0 0
BITMAP
BF00
0600
0800
2400
6000
BF40
ENDCHAR
STARTCHAR Eta.c2sc
ENCODING -1
SWIDTH 533 0
DWIDTH 5 0
BBX 5 6 0 0
BITMAP
6180
6180
7F80
6180
6180
6180
ENDCHAR
STARTCHAR Iota.c2sc
ENCODING -1
SWIDTH 221 0
DWIDTH 2 0
BBX 2 6 0 0
BITMAP
60
60
60
60
60
60
ENDCHAR
STARTCHAR Kappa.c2sc
ENCODING -1
SWIDTH 473 0
DWIDTH 5 0
BBX 5 6 0 0
BITMAP
6240
6900
6800
7900
6600
6240
ENDCHAR
STARTCHAR Mu.c2sc
ENCODING -1
SWIDTH 652 0
DWIDTH 7 0
BBX 6 6 0 0
BITMAP
7070
74A0
68A0
5960
6B30
6630
ENDCHAR
STARTCHAR Nu.c2sc
ENCODING -1
SWIDTH 533 0
DWIDTH 5 0
BBX 5 6 0 0
BITMAP
6180
7580
6980
6580
6380
6180
ENDCHAR
STARTCHAR Omicron.c2sc
ENCODING -1
SWIDTH 519 0
DWIDTH 5 0
BBX 5 6 0 0
BITMAP
2E00
6240
5180
5180
6240
2E00
ENDCHAR
STARTCHAR Rho.c2sc
ENCODING -1
SWIDTH 481 0
DWIDTH 5 0
BBX 5 6 0 0
BITMAP
7E00
6240
6240
7E00
6000
6000
ENDCHAR
STARTCHAR Tau.c2sc
ENCODING -1
SWIDTH 456 0
DWIDTH 5 0
BBX 5 6 0 0
BITMAP
BF40
0800
0800
0800
0800
0800
ENDCHAR
STARTCHAR Upsilon.c2sc
ENCODING -1
SWIDTH 458 0
DWIDTH 5 0
BBX 5 6 0 0
BITMAP
9240
6200
2900
1C00
0800
0800
ENDCHAR
STARTCHAR Chi.c2sc
ENCODING -1
SWIDTH 478 0
DWIDTH 5 0
BBX 5 6 0 0
BITMAP
6240
3600
1D00
1D00
3600
6240
ENDCHAR
STARTCHAR Iotadieresis.c2sc
ENCODING -1
SWIDTH 221 0
DWIDTH 2 0
BBX 4 8 -1 0
BITMAP
56
00
18
18
18
18
18
18
ENDCHAR
STARTCHAR Upsilondieresis.c2sc
ENCODING -1
SWIDTH 458 0
DWIDTH 5 0
BBX 5 8 0 0
BITMAP
6200
0000
9240
6200
2900
1C00
0800
0800
ENDCHAR
STARTCHAR uni0401.c2sc
ENCODING -1
SWIDTH 428 0
DWIDTH 4 0
BBX 4 8 0 0
BITMAP
22
00
7F
60
7E
60
60
7F
ENDCHAR
STARTCHAR uni0403.c2sc
ENCODING -1
SWIDTH 405 0
DWIDTH 4 0
BBX 4 9 0 0
BITMAP
0A
08
00
7E
60
60
60
60
60
ENDCHAR
STARTCHAR uni0405.c2sc
ENCODING -1
SWIDTH 453 0
DWIDTH 5 0
BBX 4 6 0 0
BITMAP
2D
62
78
07
93
2E
ENDCHAR
STARTCHAR uni0406.c2sc
ENCODING -1
SWIDTH 221 0
DWIDTH 2 0
BBX 2 6 0 0
BITMAP
60
60
60
60
60
60
ENDCHAR
STARTCHAR uni0407.c2sc
ENCODING -1
SWIDTH 221 0
DWIDTH 2 0
BBX 4 8 -1 0
BITMAP
56
00
18
18
18
18
18
18
ENDCHAR
STARTCHAR uni0408.c2sc
ENCODING -1
SWIDTH 419 0
DWIDTH 4 0
BBX 4 6 0 0
BITMAP
06
06
06
06
56
7C
ENDCHAR
STARTCHAR uni040C.c2sc
ENCODING -1
SWIDTH 473 0
DWIDTH 5 0
BBX 5 9 0 0
BITMAP
0900
0800
0000
6240
6900
6800
7900
6600
6240
ENDCHAR
STARTCHAR uni040E.c2sc
ENCODING -1
SWIDTH 454 0
DWIDTH 5 0
BBX 5 7 0 0
BITMAP
2600
BF40
6200
2500
1C00
1800
3400
ENDCHAR
STARTCHAR uni0410.c2sc
ENCODING -1
SWIDTH 501 0
DWIDTH 5 0
BBX 5 6 0 0
BITMAP
0C00
1D00
2600
3300
7F40
9180
ENDCHAR
STARTCHAR uni0412.c2sc
ENCODING -1
SWIDTH 475 0
DWIDTH 5 0
BBX 5 6 0 0
BITMAP
7E00
6300
7E00
6200
6240
7E00
ENDCHAR
STARTCHAR uni0413.c2sc
ENCODING -1
SWIDTH 405 0
DWIDTH 4 0
BBX 4 6 0 0
BITMAP
7E
60
60
60
60
60
ENDCHAR
STARTCHAR uni0415.c2sc
ENCODING -1
SWIDTH 428 0
DWIDTH 4 0
BBX 4 6 0 0
BITMAP
7F
60
7E
60
60
7F
ENDCHAR
STARTCHAR uni0419.c2sc
ENCODING -1
SWIDTH 537 0
DWIDTH 5 0
BBX 5 7 0 0
BITMAP
2200
6F80
6380
6680
6880
7480
6080
ENDCHAR
STARTCHAR uni041C.c2sc
ENCODING -1
SWIDTH 652 0
DWIDTH 7 0
BBX 6 6 0 0
BITMAP
7070
74A0
68A0
5960
6B30
6630
ENDCHAR
STARTCHAR uni041D.c2sc
ENCODING -1
SWIDTH 533 0
DWIDTH 5 0
BBX 5 6 0 0
BITMAP
6180
6180
7F80
6180
6180
6180
ENDCHAR
STARTCHAR uni041E.c2sc
ENCODING -1
SWIDTH 519 0
DWIDTH 5 0
BBX 5 6 0 0
BITMAP
2E00
6240
5180
5180
6240
2E00
ENDCHAR
STARTCHAR uni041F.c2sc
ENCODING -1
SWIDTH 525 0
DWIDTH 5 0
BBX 5 6 0 0
BITMAP
7F80
6180
6180
6180
6180
6180
ENDCHAR
STARTCHAR uni0420.c2sc
ENCODING -1
SWIDTH 481 0
DWIDTH 5 0
BBX 5 6 0 0
BITMAP
7E00
6240
6240
7E00
6000
6000
ENDCHAR
STARTCHAR uni0421.c2sc
ENCODING -1
SWIDTH 490 0
DWIDTH 5 0
BBX 5 6 0 0
BITMAP
2E00
6240
5000
5000
6240
2E00
ENDCHAR
STARTCHAR uni0422.c2sc
ENCODING -1
SWIDTH 456 0
DWIDTH 5 0
BBX 5 6 0 0
BITMAP
BF40
0800
0800
0800
0800
0800
ENDCHAR
STARTCHAR uni0425.c2sc
ENCODING -1
SWIDTH 478 0
DWIDTH 5 0
BBX 5 6 0 0
BITMAP
6240
3600
1D00
1D00
3600
6240
ENDCHAR
STARTCHAR uni0498.c2sc
ENCODING -1
SWIDTH 466 0
DWIDTH 5 0
BBX 4 8 0 -2
BITMAP
3E
53
1D
03
53
7E
18
18
ENDCHAR
STARTCHAR uni04A2.c2sc
ENCODING -1
SWIDTH 533 0
DWIDTH 5 0
BBX 6 8 0 -2
BITMAP
6180
6180
7F80
6180
6180
61D0
0050
0050
ENDCHAR
STARTCHAR uni04AA.c2sc
ENCODING -1
SWIDTH 490 0
DWIDTH 5 0
BBX 5 8 0 -2
BITMAP
2E00
6240
5000
9000
6240
2E00
0C00
0C00
ENDCHAR
STARTCHAR uni04AE.c2sc
ENCODING -1
SWIDTH 458 0
DWIDTH 5 0
BBX 5 6 0 0
BITMAP
9240
6200
2900
1C00
0800
0800
ENDCHAR
STARTCHAR uni04BE.c2sc
ENCODING -1
SWIDTH 632 0
DWIDTH 6 0
BBX 6 8 0 -2
BITMAP
0780
0860
9420
7FF0
1800
0BC0
0240
0240
ENDCHAR
STARTCHAR uni04E2.c2sc
ENCODING -1
SWIDTH 537 0
DWIDTH 5 0
BBX 5 8 0 0
BITMAP
2F00
0000
6180
6380
6680
6880
7480
6080
ENDCHAR
STARTCHAR uni04EE.c2sc
ENCODING -1
SWIDTH 454 0
DWIDTH 5 0
BBX 5 8 0 0
BITMAP
3E00
0000
9240
6200
2500
1C00
1800
3400
ENDCHAR
STARTCHAR uni0424.c2sc
ENCODING -1
SWIDTH 587 0
DWIDTH 6 0
BBX 6 6 0 0
BITMAP
0500
2F80
6990
6990
2F80
0500
ENDCHAR
STARTCHAR IJ.c2sc
ENCODING -1
SWIDTH 641 0
DWIDTH 6 0
BBX 6 6 0 0
BITMAP
6020
6020
6020
6020
6560
63D0
ENDCHAR
STARTCHAR AEacute.c2sc
ENCODING -1
SWIDTH 676 0
DWIDTH 7 0
BBX 7 8 0 0
BITMAP
00C0
0140
07F0
0A00
1AF0
2600
7F40
92F4
ENDCHAR
STARTCHAR Oslashacute.c2sc
ENCODING -1
SWIDTH 519 0
DWIDTH 5 0
BBX 5 8 0 0
BITMAP
0600
0900
2F40
6340
5580
5980
7640
3E00
ENDCHAR
STARTCHAR uni0218.c2sc
ENCODING -1
SWIDTH 453 0
DWIDTH 5 0
BBX 4 9 0 -3
BITMAP
2D
62
78
07
93
2E
00
08
14
ENDCHAR
STARTCHAR Wgrave.c2sc
ENCODING -1
SWIDTH 655 0
DWIDTH 7 0
BBX 7 8 0 0
BITMAP
0D00
0600
9624
5720
6A60
29A0
28D0
2490
ENDCHAR
STARTCHAR Wacute.c2sc
ENCODING -1
SWIDTH 655 0
DWIDTH 7 0
BBX 7 8 0 0
BITMAP
0280
0200
9624
5720
6A60
29A0
28D0
2490
ENDCHAR
STARTCHAR Wdieresis.c2sc
ENCODING -1
SWIDTH 655 0
DWIDTH 7 0
BBX 7 7 0 0
BITMAP
0880
9624
5720
6A60
29A0
28D0
2490
ENDCHAR
STARTCHAR Ygrave.c2sc
ENCODING -1
SWIDTH 458 0
DWIDTH 5 0
BBX 5 8 0 0
BITMAP
3400
1800
9240
6200
2900
1C00
0800
0800
ENDCHAR
STARTCHAR Aogonek.locl
ENCODING -1
SWIDTH 576 0
DWIDTH 6 0
BBX 6 9 0 -2
BITMAP
0900
0A00
1600
2140
3F80
6080
9090
0800
0D00
ENDCHAR
STARTCHAR aogonek.locl
ENCODING -1
SWIDTH 479 0
DWIDTH 5 0
BBX 5 7 0 -2
BITMAP
2E00
1300
2F00
6200
3F40
2000
2400
ENDCHAR
STARTCHAR Eogonek.locl
ENCODING -1
SWIDTH 496 0
DWIDTH 5 0
BBX 5 9 0 -2
BITMAP
7F80
6000
6000
7F40
6000
6000
7F80
1400
1C00
ENDCHAR
STARTCHAR eogonek.locl
ENCODING -1
SWIDTH 468 0
DWIDTH 5 0
BBX 5 7 0 -2
BITMAP
2E00
6200
BF40
6000
2E00
1400
1800
ENDCHAR
STARTCHAR Aogonek.c2sc.locl
ENCODING -1
SWIDTH 501 0
DWIDTH 5 0
BBX 5 8 0 -2
BITMAP
0C00
1D00
2600
3300
7F40
9180
1400
1C00
ENDCHAR
STARTCHAR Eogonek.c2sc.locl
ENCODING -1
SWIDTH 428 0
DWIDTH 4 0
BBX 4 8 0 -2
BITMAP
7F
60
7E
60
60
7F
24
28
ENDCHAR
STARTCHAR glyph1293
ENCODING -1
SWIDTH 234 0
DWIDTH 2 0
BBX 2 7 0 -2
BITMAP
60
60
60
60
60
00
60
ENDCHAR
ENDFONT
